<svg xmlns="http://www.w3.org/2000/svg" width="12.23" height="20.124" viewBox="0 0 12.23 20.124">
  <g id="Groupe_20" data-name="Groupe 20" transform="translate(-2.439 14.655) rotate(-90)">
    <path id="Tracé_180" data-name="Tracé 180" d="M8.38,17.1a5.224,5.224,0,0,1-.5-.4Q4.073,12.907.273,9.1a.684.684,0,0,1-.231-.762.876.876,0,0,1,.2-.3q3.9-3.905,7.8-7.8A.66.66,0,0,1,8.818.059.631.631,0,0,1,9.207.7a1.086,1.086,0,0,1-.139.366.859.859,0,0,1-.168.184Q5.324,4.826,1.746,8.4a1.62,1.62,0,0,1-.169.128c.072.076.115.125.161.17q3.6,3.6,7.2,7.2a.7.7,0,0,1,.231.75.77.77,0,0,1-.457.449Z" transform="translate(-3.944 13.155) rotate(-90)" fill="#ebb03a" stroke="#ebb03a" stroke-width="3"/>
  </g>
</svg>
