<svg xmlns="http://www.w3.org/2000/svg" xmlns:xlink="http://www.w3.org/1999/xlink" width="1920" height="4000" viewBox="0 0 1920 4000">
  <defs>
    <clipPath id="clip-path">
      <rect id="Rectangle_41" data-name="Rectangle 41" width="1920" height="4000" fill="none"/>
    </clipPath>
  </defs>
  <g id="Groupe_61" data-name="Groupe 61" clip-path="url(#clip-path)">
    <g id="Groupe_34" data-name="Groupe 34" transform="translate(-249.793 -183.891)">
      <path id="Tracé_46" data-name="Tracé 46" d="M-837.3,717s20.193-484.11,330.173-234.159,198.2-200.6,384.154-3.855S177.055,211.719,626.783,350.43" transform="translate(837.304 -324.096)" fill="none" stroke="#2d2d2d" stroke-miterlimit="10" stroke-width="0.167"/>
      <path id="Tracé_47" data-name="Tracé 47" d="M-837.224,719.955s23.473-478.3,331.876-230.1S-303.738,287.527-114.9,482.6s301.88-268.416,741.832-132.72" transform="translate(837.429 -323.509)" fill="none" stroke="#2c2c2c" stroke-miterlimit="10" stroke-width="0.166"/>
      <path id="Tracé_48" data-name="Tracé 48" d="M-837.143,722.913S-810.4,250.423-503.565,496.867s205.015-204.048,396.739-10.656S196.9,216.652,627.08,349.332" transform="translate(837.555 -322.929)" fill="none" stroke="#2b2b2b" stroke-miterlimit="10" stroke-width="0.166"/>
      <path id="Tracé_49" data-name="Tracé 49" d="M-837.063,725.884S-807.04,259.2-501.78,503.895s208.42-205.772,403.031-14.059S206.828,219.134,627.229,348.8" transform="translate(837.68 -322.359)" fill="none" stroke="#2a2a2a" stroke-miterlimit="10" stroke-width="0.165"/>
      <path id="Tracé_50" data-name="Tracé 50" d="M-836.983,728.862S-803.682,267.99-500,510.93s211.83-207.495,409.326-17.461,307.425-271.846,718.049-145.2" transform="translate(837.805 -321.799)" fill="none" stroke="#292929" stroke-miterlimit="10" stroke-width="0.164"/>
      <path id="Tracé_51" data-name="Tracé 51" d="M-836.9,731.85s36.575-455.061,338.688-213.875S-282.98,308.758-82.6,497.112,226.678,224.123,627.525,347.755" transform="translate(837.931 -321.248)" fill="none" stroke="#282828" stroke-miterlimit="10" stroke-width="0.164"/>
      <path id="Tracé_52" data-name="Tracé 52" d="M-836.822,734.849S-796.97,285.6-496.429,525.029-277.79,314.088-74.521,500.765,236.6,226.63,627.675,347.249" transform="translate(838.056 -320.706)" fill="none" stroke="#272727" stroke-miterlimit="10" stroke-width="0.163"/>
      <path id="Tracé_53" data-name="Tracé 53" d="M-836.742,737.856s43.128-443.443,342.1-205.761S-272.6,319.43-66.443,504.427,246.53,229.15,627.824,346.751" transform="translate(838.181 -320.175)" fill="none" stroke="#262626" stroke-miterlimit="10" stroke-width="0.163"/>
      <path id="Tracé_54" data-name="Tracé 54" d="M-836.661,740.872s46.4-437.632,343.8-201.7,225.451-214.387,434.5-31.069,314.821-276.42,686.339-161.834" transform="translate(838.307 -319.652)" fill="none" stroke="#252525" stroke-miterlimit="10" stroke-width="0.162"/>
      <path id="Tracé_55" data-name="Tracé 55" d="M-836.581,743.9s49.679-431.824,345.5-197.649,228.859-216.109,440.786-34.47S266.38,234.217,628.12,345.787" transform="translate(838.432 -319.142)" fill="none" stroke="#242424" stroke-miterlimit="10" stroke-width="0.161"/>
      <path id="Tracé_56" data-name="Tracé 56" d="M-836.5,746.938s52.956-426.013,347.208-193.59S-257.03,335.514-42.215,515.476s318.52-278.71,670.484-170.155" transform="translate(838.557 -318.639)" fill="none" stroke="#232323" stroke-miterlimit="10" stroke-width="0.161"/>
      <path id="Tracé_57" data-name="Tracé 57" d="M-836.421,749.985s56.236-420.2,348.913-189.533S-251.84,340.894-34.138,519.179,286.231,239.324,628.416,344.864" transform="translate(838.682 -318.148)" fill="none" stroke="#222" stroke-miterlimit="10" stroke-width="0.16"/>
      <path id="Tracé_58" data-name="Tracé 58" d="M-836.34,753.044s59.51-414.4,350.612-185.478,239.076-221.28,459.666-44.675,322.217-281,654.625-178.473" transform="translate(838.808 -317.666)" fill="none" stroke="#212121" stroke-miterlimit="10" stroke-width="0.16"/>
      <path id="Tracé_59" data-name="Tracé 59" d="M-836.26,756.112s62.786-408.586,352.317-181.419,242.483-223,465.956-48.079,324.068-282.141,646.7-182.633" transform="translate(838.933 -317.196)" fill="none" stroke="#202020" stroke-miterlimit="10" stroke-width="0.159"/>
      <path id="Tracé_60" data-name="Tracé 60" d="M-836.18,759.192s66.063-402.777,354.022-177.364S-236.27,357.1-9.909,530.348,316.007,247.062,628.862,343.557" transform="translate(839.058 -316.736)" fill="none" stroke="#1f1f1f" stroke-miterlimit="10" stroke-width="0.158"/>
      <path id="Tracé_61" data-name="Tracé 61" d="M-836.1,762.281s69.338-396.967,355.722-173.307,249.3-226.448,478.543-54.882S325.931,249.664,629.009,343.141" transform="translate(839.184 -316.286)" fill="none" stroke="#1e1e1e" stroke-miterlimit="10" stroke-width="0.158"/>
      <path id="Tracé_62" data-name="Tracé 62" d="M-836.019,765.381s72.614-391.156,357.427-169.25,252.7-228.173,484.833-58.283,329.615-285.574,622.917-195.11" transform="translate(839.309 -315.847)" fill="none" stroke="#1d1d1d" stroke-miterlimit="10" stroke-width="0.157"/>
      <path id="Tracé_63" data-name="Tracé 63" d="M-835.939,768.494S-760.048,383.146-476.807,603.3-220.7,373.4,14.319,541.614,345.783,254.9,629.308,342.346" transform="translate(839.433 -315.419)" fill="none" stroke="#1c1c1c" stroke-miterlimit="10" stroke-width="0.156"/>
      <path id="Tracé_64" data-name="Tracé 64" d="M-835.858,771.616s79.165-379.537,360.835-161.136,259.512-231.619,497.418-65.088,333.312-287.861,607.06-203.428" transform="translate(839.56 -315.004)" fill="none" stroke="#1b1b1b" stroke-miterlimit="10" stroke-width="0.156"/>
      <path id="Tracé_65" data-name="Tracé 65" d="M-835.778,774.749s82.442-373.727,362.537-157.079,262.92-233.341,503.713-68.49,335.16-289,599.132-207.587" transform="translate(839.685 -314.598)" fill="none" stroke="#1a1a1a" stroke-miterlimit="10" stroke-width="0.155"/>
      <path id="Tracé_66" data-name="Tracé 66" d="M-835.7,777.9s85.719-367.919,364.242-153.021,266.325-235.066,510-71.891S375.558,262.835,629.753,341.235" transform="translate(839.809 -314.205)" fill="none" stroke="#191919" stroke-miterlimit="10" stroke-width="0.155"/>
      <path id="Tracé_67" data-name="Tracé 67" d="M-835.617,781.053s88.993-362.108,365.944-148.964S-199.943,395.3,46.623,556.8,385.482,265.5,629.9,340.889" transform="translate(839.936 -313.822)" fill="none" stroke="#181818" stroke-miterlimit="10" stroke-width="0.154"/>
      <path id="Tracé_68" data-name="Tracé 68" d="M-835.537,784.222s92.273-356.3,367.649-144.907S-194.751,400.8,54.7,560.62,395.406,268.183,630.048,340.553" transform="translate(840.061 -313.453)" fill="none" stroke="#171717" stroke-miterlimit="10" stroke-width="0.153"/>
      <path id="Tracé_69" data-name="Tracé 69" d="M-835.457,787.4s95.549-350.489,369.352-140.853,276.544-240.234,528.883-82.1S405.331,270.874,630.2,340.23" transform="translate(840.185 -313.094)" fill="none" stroke="#161616" stroke-miterlimit="10" stroke-width="0.153"/>
      <path id="Tracé_70" data-name="Tracé 70" d="M-835.377,790.6S-736.551,445.917-464.32,653.8s279.949-241.958,535.173-85.5,344.4-294.725,559.493-228.386" transform="translate(840.31 -312.75)" fill="none" stroke="#161616" stroke-miterlimit="10" stroke-width="0.152"/>
      <path id="Tracé_71" data-name="Tracé 71" d="M-835.3,793.8s102.1-338.873,372.759-132.738,283.354-243.681,541.466-88.9S425.181,276.3,630.493,339.62" transform="translate(840.437 -312.415)" fill="none" stroke="#151515" stroke-miterlimit="10" stroke-width="0.152"/>
      <path id="Tracé_72" data-name="Tracé 72" d="M-835.216,797.022S-729.839,463.96-460.755,668.34s286.764-245.4,547.761-92.3,348.1-297.013,543.636-236.7" transform="translate(840.561 -312.094)" fill="none" stroke="#141414" stroke-miterlimit="10" stroke-width="0.151"/>
      <path id="Tracé_73" data-name="Tracé 73" d="M-835.136,800.251S-726.482,473-458.97,675.627-168.8,428.5,95.081,579.923,445.033,281.767,630.792,339.06" transform="translate(840.686 -311.785)" fill="none" stroke="#131313" stroke-miterlimit="10" stroke-width="0.15"/>
      <path id="Tracé_74" data-name="Tracé 74" d="M-835.055,803.5S-723.127,482.054-457.186,682.93s293.573-248.851,560.343-99.105,351.8-299.3,527.782-245.025" transform="translate(840.812 -311.491)" fill="none" stroke="#121212" stroke-miterlimit="10" stroke-width="0.15"/>
      <path id="Tracé_75" data-name="Tracé 75" d="M-834.975,806.752S-719.77,491.12-455.4,690.242s296.978-250.573,566.635-102.507S464.883,287.289,631.088,338.552" transform="translate(840.937 -311.208)" fill="none" stroke="#111" stroke-miterlimit="10" stroke-width="0.149"/>
      <path id="Tracé_76" data-name="Tracé 76" d="M-834.895,810.022S-716.413,500.2-453.619,697.569s300.388-252.3,572.93-105.908,355.5-301.589,511.926-253.344" transform="translate(841.062 -310.938)" fill="none" stroke="#101010" stroke-miterlimit="10" stroke-width="0.149"/>
      <path id="Tracé_77" data-name="Tracé 77" d="M-834.814,813.306s121.756-304.013,382.978-108.4S-148.043,450.888,127.385,595.6s357.348-302.734,504-257.5" transform="translate(841.188 -310.682)" fill="none" stroke="#0f0f0f" stroke-miterlimit="10" stroke-width="0.148"/>
      <path id="Tracé_78" data-name="Tracé 78" d="M-834.734,816.6S-709.7,518.4-450.05,712.263s307.2-255.744,585.513-112.714,359.2-303.877,496.072-261.66" transform="translate(841.313 -310.439)" fill="none" stroke="#0e0e0e" stroke-miterlimit="10" stroke-width="0.147"/>
      <path id="Tracé_79" data-name="Tracé 79" d="M-834.654,819.913S-706.342,527.52-448.268,719.631s310.6-257.466,591.808-116.115S504.584,298.494,631.681,337.7" transform="translate(841.438 -310.212)" fill="none" stroke="#0d0d0d" stroke-miterlimit="10" stroke-width="0.147"/>
      <path id="Tracé_80" data-name="Tracé 80" d="M-834.573,823.238s131.587-286.584,388.088-96.225,314.01-259.19,598.1-119.519,362.9-306.164,480.215-269.979" transform="translate(841.564 -309.997)" fill="none" stroke="#0c0c0c" stroke-miterlimit="10" stroke-width="0.146"/>
      <path id="Tracé_81" data-name="Tracé 81" d="M-834.493,826.577S-699.63,545.8-444.7,734.41s317.417-260.914,604.39-122.92S524.434,304.18,631.977,337.351" transform="translate(841.689 -309.798)" fill="none" stroke="#0b0b0b" stroke-miterlimit="10" stroke-width="0.146"/>
      <path id="Tracé_82" data-name="Tracé 82" d="M-834.413,829.932s138.14-274.967,391.5-88.113S-122.093,479.182,167.768,615.5,534.36,307.045,632.127,337.2" transform="translate(841.814 -309.611)" fill="none" stroke="#0a0a0a" stroke-miterlimit="10" stroke-width="0.145"/>
      <path id="Tracé_83" data-name="Tracé 83" d="M-834.333,833.3s141.417-269.157,393.2-84.056S-116.9,484.885,175.846,619.521s368.44-309.6,456.43-282.457" transform="translate(841.939 -309.441)" fill="none" stroke="#090909" stroke-miterlimit="10" stroke-width="0.144"/>
      <path id="Tracé_84" data-name="Tracé 84" d="M-834.252,836.681s144.691-263.346,394.9-80S-111.715,490.6,183.919,623.56s370.291-310.742,448.5-286.618" transform="translate(842.065 -309.284)" fill="none" stroke="#080808" stroke-miterlimit="10" stroke-width="0.144"/>
      <path id="Tracé_85" data-name="Tracé 85" d="M-834.172,840.082S-686.2,582.544-437.564,764.14-106.523,496.335,192,627.614s372.14-311.885,440.576-290.778" transform="translate(842.19 -309.144)" fill="none" stroke="#070707" stroke-miterlimit="10" stroke-width="0.143"/>
      <path id="Tracé_86" data-name="Tracé 86" d="M-834.092,843.494s151.245-251.727,398.313-71.885,334.446-269.527,635.853-139.928,373.988-313.03,432.648-294.936" transform="translate(842.315 -309.018)" fill="none" stroke="#060606" stroke-miterlimit="10" stroke-width="0.143"/>
      <path id="Tracé_87" data-name="Tracé 87" d="M-834.011,846.923S-679.492,601.007-434,779.1-96.145,507.844,208.147,635.767s375.839-314.173,424.722-299.1" transform="translate(842.441 -308.909)" fill="none" stroke="#050505" stroke-miterlimit="10" stroke-width="0.142"/>
      <path id="Tracé_88" data-name="Tracé 88" d="M-833.931,850.37s157.8-240.108,401.718-63.77S-90.955,513.623,216.225,639.866,593.909,324.551,633.018,336.612" transform="translate(842.566 -308.814)" fill="none" stroke="#040404" stroke-miterlimit="10" stroke-width="0.141"/>
      <path id="Tracé_89" data-name="Tracé 89" d="M-833.851,853.831s161.075-234.3,403.423-59.713,344.663-274.7,654.73-150.134S603.835,327.522,633.167,336.568" transform="translate(842.691 -308.737)" fill="none" stroke="#030303" stroke-miterlimit="10" stroke-width="0.141"/>
      <path id="Tracé_90" data-name="Tracé 90" d="M-833.77,857.307s164.349-228.487,405.123-55.656,348.073-276.42,661.025-153.536,381.381-317.6,400.934-311.573" transform="translate(842.817 -308.674)" fill="none" stroke="#020202" stroke-miterlimit="10" stroke-width="0.14"/>
      <path id="Tracé_91" data-name="Tracé 91" d="M-833.69,860.8s167.626-222.679,406.827-51.6,351.478-278.147,667.315-156.94S623.685,333.516,633.461,336.532" transform="translate(842.942 -308.63)" fill="none" stroke="#010101" stroke-miterlimit="10" stroke-width="0.139"/>
      <path id="Tracé_92" data-name="Tracé 92" d="M-833.61,864.313s170.9-216.868,408.533-47.542S-70.2,536.9,248.53,656.43,633.61,336.539,633.61,336.539" transform="translate(843.067 -308.602)" fill="none" stroke="#000" stroke-miterlimit="10" stroke-width="0.139"/>
    </g>
    <g id="Groupe_35" data-name="Groupe 35" transform="translate(1441.169 2332.249) rotate(-63)">
      <path id="Tracé_93" data-name="Tracé 93" d="M25.638,541.685s-143.626-291.271,169.178-279.4S301.441-152.959,695.9,41.06,890.814-141.72,1175.97,53.847" fill="none" stroke="#2d2d2d" stroke-miterlimit="10" stroke-width="0.239"/>
      <path id="Tracé_94" data-name="Tracé 94" d="M24.184,536.387S-115.789,243.915,195.36,257.807,305.382-153.747,694.007,42.073c388.761,196.217,196.649-185.918,478.833,10.263" transform="translate(4.144 7.491)" fill="none" stroke="#2d2d2d" stroke-miterlimit="10" stroke-width="0.239"/>
      <path id="Tracé_95" data-name="Tracé 95" d="M22.751,531.1S-113.569,237.43,195.926,253.344,309.343-154.523,692.137,43.1c383.063,198.418,198.383-189.053,477.6,7.743" transform="translate(8.267 14.971)" fill="none" stroke="#2d2d2d" stroke-miterlimit="10" stroke-width="0.239"/>
      <path id="Tracé_96" data-name="Tracé 96" d="M21.339,525.824S-111.328,230.952,196.513,248.889,313.327-155.29,690.287,44.131C1067.653,244.75,890.4-148.059,1166.646,49.352" transform="translate(12.368 22.441)" fill="none" stroke="#2d2d2d" stroke-miterlimit="10" stroke-width="0.239"/>
      <path id="Tracé_97" data-name="Tracé 97" d="M19.951,520.556s-129.016-296.071,177.17-276.111,120.21-400.493,491.337-199.27c371.668,202.818,201.852-195.326,475.124,2.7" transform="translate(16.448 29.902)" fill="none" stroke="#2d2d2d" stroke-miterlimit="10" stroke-width="0.239"/>
      <path id="Tracé_98" data-name="Tracé 98" d="M18.586,515.3S-106.777,218.03,197.752,240.01s123.609-396.8,488.9-193.782c365.973,205.019,203.586-198.463,473.887.177" transform="translate(20.502 37.351)" fill="none" stroke="#2d2d2d" stroke-miterlimit="10" stroke-width="0.239"/>
      <path id="Tracé_99" data-name="Tracé 99" d="M17.241,510.3s-121.71-298.471,181.165-274.467S325.945-157.936,684.873,47.544c360.813,206.559,205.318-201.6,472.649-2.345" transform="translate(24.537 44.541)" fill="none" stroke="#2d2d2d" stroke-miterlimit="10" stroke-width="0.239"/>
      <path id="Tracé_100" data-name="Tracé 100" d="M15.925,505.106s-118.059-299.67,183.161-273.644S330.112-158.717,683.116,48.655c355.205,208.668,207.052-204.734,471.412-4.865" transform="translate(28.545 51.933)" fill="none" stroke="#2d2d2d" stroke-miterlimit="10" stroke-width="0.239"/>
      <path id="Tracé_101" data-name="Tracé 101" d="M14.635,499.915S-99.772,199.046,199.794,227.094,334.3-159.485,681.387,49.776c349.6,210.779,208.786-207.871,470.178-7.388" transform="translate(32.525 59.316)" fill="none" stroke="#2d2d2d" stroke-miterlimit="10" stroke-width="0.239"/>
      <path id="Tracé_102" data-name="Tracé 102" d="M13.371,494.732s-110.753-302.07,187.158-272,138-382.971,479.156-171.828C1023.68,263.8,890.206-160.1,1148.625,40.993" transform="translate(36.478 66.692)" fill="none" stroke="#2d2d2d" stroke-miterlimit="10" stroke-width="0.239"/>
      <path id="Tracé_103" data-name="Tracé 103" d="M12.135,489.56s-107.1-303.269,189.157-271.176S342.772-160.977,678.013,52.042C1016.4,267.061,890.266-162.1,1145.717,39.61" transform="translate(40.403 74.058)" fill="none" stroke="#2d2d2d" stroke-miterlimit="10" stroke-width="0.239"/>
      <path id="Tracé_104" data-name="Tracé 104" d="M10.93,484.4S-92.519,179.927,202.083,214.042,347.046-161.7,676.367,53.189c332.777,217.146,213.987-217.281,466.466-14.954" transform="translate(44.3 81.417)" fill="none" stroke="#2d2d2d" stroke-miterlimit="10" stroke-width="0.239"/>
      <path id="Tracé_105" data-name="Tracé 105" d="M9.754,479.239s-99.8-305.67,193.152-269.53S351.349-162.412,674.752,54.343c327.169,219.279,215.721-220.42,465.229-17.478" transform="translate(48.166 88.767)" fill="none" stroke="#2d2d2d" stroke-miterlimit="10" stroke-width="0.239"/>
      <path id="Tracé_106" data-name="Tracé 106" d="M8.595,474.919S-87.551,168.051,203.745,206.21,355.669-162.283,673.154,56.334c321.558,221.421,217.455-223.555,463.994-20" transform="translate(52.015 95.279)" fill="none" stroke="#2d2d2d" stroke-miterlimit="10" stroke-width="0.239"/>
      <path id="Tracé_107" data-name="Tracé 107" d="M7.462,470.94S-85.033,162.872,204.609,203.055,360.01-161.8,671.583,58.668c315.945,223.563,219.187-226.691,462.754-22.52" transform="translate(55.84 101.45)" fill="none" stroke="#2d2d2d" stroke-miterlimit="10" stroke-width="0.239"/>
      <path id="Tracé_108" data-name="Tracé 108" d="M6.362,466.966S-82.48,157.7,205.505,199.9s158.879-361.219,464.539-138.9c310.331,225.714,220.921-229.828,461.52-25.043" transform="translate(59.629 107.616)" fill="none" stroke="#2d2d2d" stroke-miterlimit="10" stroke-width="0.239"/>
      <path id="Tracé_109" data-name="Tracé 109" d="M5.3,463S-79.892,152.533,206.439,196.76s162.354-357.573,462.1-133.413C973.256,291.219,891.2-169.616,1128.823,35.782" transform="translate(63.383 113.778)" fill="none" stroke="#2d2d2d" stroke-miterlimit="10" stroke-width="0.239"/>
      <path id="Tracé_110" data-name="Tracé 110" d="M4.268,459.033s-81.536-311.666,203.14-265.417S373.232-160.3,667.076,65.694c299.093,230.034,224.387-236.1,459.046-30.087" transform="translate(67.102 119.936)" fill="none" stroke="#2d2d2d" stroke-miterlimit="10" stroke-width="0.239"/>
      <path id="Tracé_111" data-name="Tracé 111" d="M3.278,455.071S-74.607,142.206,208.414,190.477,377.7-159.784,665.644,68.041c293.469,232.205,226.122-239.236,457.808-32.607" transform="translate(70.785 126.091)" fill="none" stroke="#2d2d2d" stroke-miterlimit="10" stroke-width="0.239"/>
      <path id="Tracé_112" data-name="Tracé 112" d="M2.325,451.113S-71.907,137.047,209.46,187.343,382.215-159.255,664.253,70.4C952.1,304.773,892.109-171.978,1120.827,35.266" transform="translate(74.427 132.243)" fill="none" stroke="#2d2d2d" stroke-miterlimit="10" stroke-width="0.239"/>
      <path id="Tracé_113" data-name="Tracé 113" d="M1.413,447.159S-69.166,131.893,210.546,184.211,386.761-158.719,662.9,72.752C945.117,309.31,892.492-172.758,1118.239,35.1" transform="translate(78.028 138.391)" fill="none" stroke="#2d2d2d" stroke-miterlimit="10" stroke-width="0.239"/>
      <path id="Tracé_114" data-name="Tracé 114" d="M.542,443.209S-66.383,126.745,211.675,181.083,391.345-158.168,661.6,75.112c276.58,238.747,231.322-248.646,454.1-40.173" transform="translate(81.589 144.533)" fill="none" stroke="#2d2d2d" stroke-miterlimit="10" stroke-width="0.239"/>
      <path id="Tracé_115" data-name="Tracé 115" d="M-.285,439.261S-63.56,121.6,212.844,177.958,395.965-157.611,660.327,77.476c270.94,240.938,233.056-251.783,452.862-42.7" transform="translate(85.108 150.675)" fill="none" stroke="#2d2d2d" stroke-miterlimit="10" stroke-width="0.239"/>
      <path id="Tracé_116" data-name="Tracé 116" d="M-1.068,435.316S-60.69,116.451,214.059,174.836,400.627-157.047,659.105,79.842c265.3,243.136,234.79-254.92,451.628-45.217" transform="translate(88.58 156.813)" fill="none" stroke="#2d2d2d" stroke-miterlimit="10" stroke-width="0.239"/>
      <path id="Tracé_117" data-name="Tracé 117" d="M-1.8,431.374S-57.773,111.311,215.319,171.718,405.329-156.473,657.93,82.21C917.581,327.551,894.455-175.845,1108.32,34.473" transform="translate(92.006 162.948)" fill="none" stroke="#2d2d2d" stroke-miterlimit="10" stroke-width="0.239"/>
      <path id="Tracé_118" data-name="Tracé 118" d="M-2.494,427.437S-54.812,106.172,216.626,168.6,410.071-155.887,656.8,84.584c253.992,247.55,238.256-261.193,449.153-50.262" transform="translate(95.387 169.079)" fill="none" stroke="#2d2d2d" stroke-miterlimit="10" stroke-width="0.239"/>
      <path id="Tracé_119" data-name="Tracé 119" d="M-3.134,423.5S-51.8,101.037,217.984,165.488,414.859-155.3,655.723,86.957C904.056,336.725,895.714-177.37,1103.639,34.175" transform="translate(98.718 175.209)" fill="none" stroke="#2d2d2d" stroke-miterlimit="10" stroke-width="0.239"/>
      <path id="Tracé_120" data-name="Tracé 120" d="M-3.724,419.567S-48.739,95.9,219.393,162.378s200.3-317.076,435.3-73.042c242.667,251.988,241.725-267.465,446.679-55.3" transform="translate(101.997 181.335)" fill="none" stroke="#2d2d2d" stroke-miterlimit="10" stroke-width="0.239"/>
      <path id="Tracé_121" data-name="Tracé 121" d="M-4.263,415.636S-45.624,90.772,220.853,159.269,424.566-154.091,653.72,91.716c236.989,254.213,243.457-270.6,445.442-57.826" transform="translate(105.225 187.46)" fill="none" stroke="#2d2d2d" stroke-miterlimit="10" stroke-width="0.239"/>
      <path id="Tracé_122" data-name="Tracé 122" d="M-4.748,411.709S-42.459,85.646,222.363,156.166,429.485-153.475,652.793,94.1C884.1,350.546,897.984-179.64,1097,33.75" transform="translate(108.403 193.58)" fill="none" stroke="#2d2d2d" stroke-miterlimit="10" stroke-width="0.239"/>
      <path id="Tracé_123" data-name="Tracé 123" d="M-5.18,407.783S-39.238,80.519,223.93,153.06,434.453-152.854,651.923,96.484c225.621,258.683,246.925-276.875,442.97-62.87" transform="translate(111.524 199.699)" fill="none" stroke="#2d2d2d" stroke-miterlimit="10" stroke-width="0.239"/>
      <path id="Tracé_124" data-name="Tracé 124" d="M-5.558,403.859S-35.962,75.4,225.551,149.96,439.467-152.226,651.107,98.869c219.923,260.925,248.66-280.009,441.733-65.39" transform="translate(114.591 205.816)" fill="none" stroke="#2d2d2d" stroke-miterlimit="10" stroke-width="0.239"/>
      <path id="Tracé_125" data-name="Tracé 125" d="M-5.88,399.937S-32.633,70.275,227.226,146.861s217.3-298.452,423.12-45.6c214.217,263.17,250.391-283.146,440.5-67.912" transform="translate(117.605 211.932)" fill="none" stroke="#2d2d2d" stroke-miterlimit="10" stroke-width="0.239"/>
      <path id="Tracé_126" data-name="Tracé 126" d="M-6.147,396.018s-23.1-330.861,235.1-252.251,220.68-294.716,420.683-40.113c208.5,265.42,252.126-286.285,439.259-70.437" transform="translate(120.562 218.043)" fill="none" stroke="#2d2d2d" stroke-miterlimit="10" stroke-width="0.239"/>
      <path id="Tracé_127" data-name="Tracé 127" d="M-6.359,392.1s-19.447-332.06,237.1-251.43S454.79-150.3,648.989,106.045c202.778,267.674,253.86-289.42,438.024-72.957" transform="translate(123.463 224.154)" fill="none" stroke="#2d2d2d" stroke-miterlimit="10" stroke-width="0.239"/>
      <path id="Tracé_128" data-name="Tracé 128" d="M-6.518,388.185s-15.794-333.259,239.1-250.607S459.992-149.65,648.392,108.441c197.045,269.931,255.594-292.556,436.787-75.479" transform="translate(126.311 230.262)" fill="none" stroke="#2d2d2d" stroke-miterlimit="10" stroke-width="0.239"/>
      <path id="Tracé_129" data-name="Tracé 129" d="M-6.624,384.272s-12.144-334.46,241.1-249.784S465.23-148.992,647.847,110.84c191.3,272.191,257.326-295.7,435.55-78" transform="translate(129.11 236.368)" fill="none" stroke="#2d2d2d" stroke-miterlimit="10" stroke-width="0.239"/>
      <path id="Tracé_130" data-name="Tracé 130" d="M-6.683,380.362S-15.173,44.7,236.411,131.4s234.1-279.731,410.939-18.162C832.9,387.7,906.41-185.59,1081.662,32.717" transform="translate(131.858 242.471)" fill="none" stroke="#2d2d2d" stroke-miterlimit="10" stroke-width="0.239"/>
      <path id="Tracé_131" data-name="Tracé 131" d="M-6.7,376.453S-11.535,39.6,238.4,128.314s237.432-275.977,408.5-12.671C826.684,392.364,907.691-186.324,1079.975,32.6" transform="translate(134.562 248.573)" fill="none" stroke="#2d2d2d" stroke-miterlimit="10" stroke-width="0.239"/>
      <path id="Tracé_132" data-name="Tracé 132" d="M-6.674,372.546S-7.859,34.487,240.417,125.23s240.754-272.222,406.064-7.183c174.013,278.99,262.529-305.1,431.841-85.567" transform="translate(137.229 254.674)" fill="none" stroke="#2d2d2d" stroke-miterlimit="10" stroke-width="0.239"/>
      <path id="Tracé_133" data-name="Tracé 133" d="M-6.623,368.643S-4.157,29.384,242.464,122.15s244.066-268.468,403.63-1.7c168.228,281.261,264.26-308.24,430.6-88.087" transform="translate(139.869 260.771)" fill="none" stroke="#2d2d2d" stroke-miterlimit="10" stroke-width="0.239"/>
      <path id="Tracé_134" data-name="Tracé 134" d="M-6.556,364.742S-.439,24.283,244.53,119.072,491.9-145.641,645.722,122.864c162.433,283.53,265.995-311.377,429.366-90.611" transform="translate(142.492 266.865)" fill="none" stroke="#2d2d2d" stroke-miterlimit="10" stroke-width="0.239"/>
      <path id="Tracé_135" data-name="Tracé 135" d="M-6.486,360.843S3.284,19.185,246.6,116s250.661-260.956,398.755,9.278c156.628,285.8,267.729-314.511,428.129-93.132" transform="translate(145.111 272.957)" fill="none" stroke="#2d2d2d" stroke-miterlimit="10" stroke-width="0.239"/>
      <path id="Tracé_136" data-name="Tracé 136" d="M-6.416,356.947S7,14.089,248.665,112.921s253.941-257.2,396.32,14.769c150.809,288.075,269.461-317.648,426.892-95.654" transform="translate(147.733 279.047)" fill="none" stroke="#2d2d2d" stroke-miterlimit="10" stroke-width="0.239"/>
      <path id="Tracé_137" data-name="Tracé 137" d="M-6.346,353.053S10.728,8.995,250.731,109.851,507.948-143.59,644.617,130.108c144.983,290.347,271.2-320.787,425.655-98.176" transform="translate(150.353 285.133)" fill="none" stroke="#2d2d2d" stroke-miterlimit="10" stroke-width="0.239"/>
      <path id="Tracé_138" data-name="Tracé 138" d="M-6.276,349.163S14.451,3.906,252.8,106.784,513.279-142.9,644.248,132.528c139.143,292.619,272.929-323.922,424.42-100.7" transform="translate(152.972 291.216)" fill="none" stroke="#2d2d2d" stroke-miterlimit="10" stroke-width="0.239"/>
      <path id="Tracé_139" data-name="Tracé 139" d="M-6.206,345.275S18.174-1.181,254.868,103.719,518.6-142.21,643.879,134.951c133.3,294.889,274.664-327.058,423.183-103.22" transform="translate(155.592 297.298)" fill="none" stroke="#2d2d2d" stroke-miterlimit="10" stroke-width="0.239"/>
      <path id="Tracé_140" data-name="Tracé 140" d="M-6.136,341.39S21.894-6.268,256.934,100.654,523.907-141.521,643.51,137.377c127.433,297.157,276.4-330.2,421.946-105.742" transform="translate(158.214 303.377)" fill="none" stroke="#2d2d2d" stroke-miterlimit="10" stroke-width="0.239"/>
      <path id="Tracé_141" data-name="Tracé 141" d="M-6.066,337.5S25.618-11.36,259,97.585s269.659-238.248,384.139,42.209C764.118,439.407,921.271-193.538,1063.85,31.529" transform="translate(160.834 309.463)" fill="none" stroke="#2d2d2d" stroke-miterlimit="10" stroke-width="0.239"/>
      <path id="Tracé_142" data-name="Tracé 142" d="M-6,333.62S29.34-16.438,261.071,94.531s273.056-234.561,381.7,47.7C758.054,444.041,922.637-194.24,1062.247,31.442" transform="translate(163.453 315.533)" fill="none" stroke="#2d2d2d" stroke-miterlimit="10" stroke-width="0.239"/>
      <path id="Tracé_143" data-name="Tracé 143" d="M-5.927,329.746S33.061-21.511,263.137,91.48,539.589-139.394,642.4,144.666C751.985,448.676,924-194.94,1060.638,31.357" transform="translate(166.076 321.6)" fill="none" stroke="#2d2d2d" stroke-miterlimit="10" stroke-width="0.239"/>
      <path id="Tracé_144" data-name="Tracé 144" d="M-5.857,325.872S36.783-26.581,265.206,88.429,545.054-138.756,642.035,147.1c103.884,306.212,283.33-342.74,417-115.829" transform="translate(168.696 327.666)" fill="none" stroke="#2d2d2d" stroke-miterlimit="10" stroke-width="0.239"/>
    </g>
    <g id="Groupe_79" data-name="Groupe 79" transform="translate(287.547 2766.682) rotate(105)">
      <path id="Tracé_93-2" data-name="Tracé 93" d="M18.38,613.4S-93.573,284.238,150.249,297.652,233.361-171.616,540.831,47.645,692.761-158.914,915.032,62.1" transform="translate(0 -50.327)" fill="none" stroke="#2d2d2d" stroke-miterlimit="10" stroke-width="0.239"/>
      <path id="Tracé_94-2" data-name="Tracé 94" d="M17.23,607.415S-91.742,276.891,150.5,292.59s85.654-465.1,388.208-243.8c302.66,221.746,153.1-210.107,372.783,11.6" transform="translate(4.691 -47.341)" fill="none" stroke="#2d2d2d" stroke-miterlimit="10" stroke-width="0.239"/>
      <path id="Tracé_95-2" data-name="Tracé 95" d="M16.1,601.439S-89.9,269.56,150.757,287.544,238.948-173.387,536.6,49.943c297.861,224.233,154.258-213.649,371.367,8.75" transform="translate(9.359 -44.36)" fill="none" stroke="#2d2d2d" stroke-miterlimit="10" stroke-width="0.239"/>
      <path id="Tracé_96-2" data-name="Tracé 96" d="M14.989,595.473S-88.044,262.237,151.034,282.509s90.721-456.765,383.481-231.4c293.074,226.721,155.418-217.194,369.955,5.9" transform="translate(14.001 -41.385)" fill="none" stroke="#2d2d2d" stroke-miterlimit="10" stroke-width="0.239"/>
      <path id="Tracé_97-2" data-name="Tracé 97" d="M13.9,589.519S-86.178,254.927,151.328,277.484s93.245-452.6,381.125-225.2C820.752,281.494,689.027-168.451,901,55.338" transform="translate(18.619 -38.414)" fill="none" stroke="#2d2d2d" stroke-miterlimit="10" stroke-width="0.239"/>
      <path id="Tracé_98-2" data-name="Tracé 98" d="M12.829,583.682S-84.3,247.736,151.637,272.576,247.4-175.854,530.414,53.582c283.537,231.693,157.728-224.284,367.143.2" transform="translate(23.209 -35.101)" fill="none" stroke="#2d2d2d" stroke-miterlimit="10" stroke-width="0.239"/>
      <path id="Tracé_99-2" data-name="Tracé 99" d="M11.775,338.011S-82.406,138.13,151.962,154.205,250.654-109.5,528.4,28.108C807.6,166.437,687.274-106.9,894.139,26.537" transform="translate(27.775 56.657)" fill="none" stroke="#2d2d2d" stroke-miterlimit="10" stroke-width="0.239"/>
      <path id="Tracé_100-2" data-name="Tracé 100" d="M10.748,332.287S-80.5,132.68,152.308,150.016,253.576-109.878,526.4,28.25c274.53,138.992,160.026-136.371,364.344-3.241" transform="translate(32.311 64.861)" fill="none" stroke="#2d2d2d" stroke-miterlimit="10" stroke-width="0.239"/>
      <path id="Tracé_101-2" data-name="Tracé 101" d="M9.742,326.571S-78.574,127.262,152.675,145.843,256.51-110.244,524.44,28.379c269.873,139.629,161.172-137.7,362.952-4.894" transform="translate(36.816 73.054)" fill="none" stroke="#2d2d2d" stroke-miterlimit="10" stroke-width="0.239"/>
      <path id="Tracé_102-2" data-name="Tracé 102" d="M8.759,320.865s-85.393-198.988,144.3-179.179S259.46-110.6,522.5,28.495c265.227,140.244,162.316-139,361.563-6.529" transform="translate(41.29 81.24)" fill="none" stroke="#2d2d2d" stroke-miterlimit="10" stroke-width="0.239"/>
      <path id="Tracé_103-2" data-name="Tracé 103" d="M7.8,315.169S-74.678,116.529,153.47,137.55,262.423-110.929,520.593,28.6c260.59,140.836,163.456-140.263,360.178-8.143" transform="translate(45.731 89.414)" fill="none" stroke="#2d2d2d" stroke-miterlimit="10" stroke-width="0.239"/>
      <path id="Tracé_104-2" data-name="Tracé 104" d="M6.866,309.481S-72.705,111.215,153.9,133.43,265.4-111.249,518.708,28.685c255.966,141.4,164.595-141.491,358.8-9.738" transform="translate(50.142 97.581)" fill="none" stroke="#2d2d2d" stroke-miterlimit="10" stroke-width="0.239"/>
      <path id="Tracé_105-2" data-name="Tracé 105" d="M5.956,303.8S-70.714,105.935,154.349,129.329,268.394-111.554,516.855,28.757C768.209,170.7,682.587-113.926,874.277,17.443" transform="translate(54.516 105.739)" fill="none" stroke="#2d2d2d" stroke-miterlimit="10" stroke-width="0.239"/>
      <path id="Tracé_106-2" data-name="Tracé 106" d="M5.058,298.961S-68.721,101.522,154.81,126.074,271.391-111.015,515.019,29.643C761.772,172.105,681.887-114.192,871.073,16.776" transform="translate(58.869 113.057)" fill="none" stroke="#2d2d2d" stroke-miterlimit="10" stroke-width="0.239"/>
      <path id="Tracé_107-2" data-name="Tracé 107" d="M4.181,294.461S-66.714,97.477,155.287,123.171s119.11-233.3,357.92-92.324c242.161,142.95,168-144.951,354.686-14.4" transform="translate(63.194 120.035)" fill="none" stroke="#2d2d2d" stroke-miterlimit="10" stroke-width="0.239"/>
      <path id="Tracé_108-2" data-name="Tracé 108" d="M3.33,289.967s-68.015-196.5,152.459-169.684,121.634-229.51,355.64-88.253C749.011,175.443,680.561-114,864.758,16.118" transform="translate(67.478 127.007)" fill="none" stroke="#2d2d2d" stroke-miterlimit="10" stroke-width="0.239"/>
      <path id="Tracé_109-2" data-name="Tracé 109" d="M2.507,525.635S-62.636,174.776,156.319,224.758,280.47-179.337,509.684,73.987C742.7,331.506,679.947-189.285,861.658,42.836" transform="translate(71.723 -2.003)" fill="none" stroke="#2d2d2d" stroke-miterlimit="10" stroke-width="0.239"/>
      <path id="Tracé_110-2" data-name="Tracé 110" d="M1.714,521.151S-60.564,168.936,156.876,221.2s126.659-399.965,351.1-144.566C736.429,336.6,679.367-190.183,858.6,42.635" transform="translate(75.927 0.226)" fill="none" stroke="#2d2d2d" stroke-miterlimit="10" stroke-width="0.239"/>
      <path id="Tracé_111-2" data-name="Tracé 111" d="M.951,516.67S-58.471,163.1,157.459,217.652,286.619-178.18,506.3,79.286C730.2,341.7,678.821-191.076,855.586,42.437" transform="translate(80.09 2.455)" fill="none" stroke="#2d2d2d" stroke-miterlimit="10" stroke-width="0.239"/>
      <path id="Tracé_112-2" data-name="Tracé 112" d="M.218,512.194S-56.353,157.266,158.074,214.106,289.729-177.586,504.667,81.943c219.364,264.872,173.647-273.907,347.951-39.7" transform="translate(84.207 4.681)" fill="none" stroke="#2d2d2d" stroke-miterlimit="10" stroke-width="0.239"/>
      <path id="Tracé_113-2" data-name="Tracé 113" d="M-.483,507.722s-53.727-356.283,159.2-297.158S292.86-176.982,503.071,84.6C717.9,351.939,677.844-192.848,849.692,42.054" transform="translate(88.278 6.905)" fill="none" stroke="#2d2d2d" stroke-miterlimit="10" stroke-width="0.239"/>
      <path id="Tracé_114-2" data-name="Tracé 114" d="M-1.151,503.256S-52.042,145.618,159.4,207.026,296.018-176.363,501.517,87.268c210.313,269.809,175.9-281,345.3-45.4" transform="translate(92.301 9.127)" fill="none" stroke="#2d2d2d" stroke-miterlimit="10" stroke-width="0.239"/>
      <path id="Tracé_115-2" data-name="Tracé 115" d="M-1.785,498.791s-48.062-359,161.888-295.3S299.2-175.737,500,89.936c205.8,272.285,177.024-284.541,343.984-48.25" transform="translate(96.278 11.349)" fill="none" stroke="#2d2d2d" stroke-miterlimit="10" stroke-width="0.239"/>
      <path id="Tracé_116-2" data-name="Tracé 116" d="M-2.385,494.33S-47.624,133.98,160.846,199.961,302.406-175.1,498.531,92.608c201.3,274.769,178.151-288.086,342.679-51.1" transform="translate(100.202 13.569)" fill="none" stroke="#2d2d2d" stroke-miterlimit="10" stroke-width="0.239"/>
      <path id="Tracé_117-2" data-name="Tracé 117" d="M-2.95,489.873S-45.372,128.168,161.622,196.434,305.643-174.455,497.105,95.281c196.806,277.261,179.277-291.629,341.38-53.948" transform="translate(104.073 15.245)" fill="none" stroke="#2d2d2d" stroke-miterlimit="10" stroke-width="0.239"/>
      <path id="Tracé_118-2" data-name="Tracé 118" d="M-3.477,485.421S-43.091,122.358,162.435,192.91,308.907-173.8,495.725,97.962c192.317,279.757,180.4-295.176,340.088-56.8" transform="translate(107.893 15.225)" fill="none" stroke="#2d2d2d" stroke-miterlimit="10" stroke-width="0.239"/>
      <path id="Tracé_119-2" data-name="Tracé 119" d="M-3.968,480.97s-36.81-364.418,167.254-291.581S312.2-173.131,494.393,100.641C682.232,382.9,675.922-198.077,833.2,40.992" transform="translate(111.655 15.206)" fill="none" stroke="#2d2d2d" stroke-miterlimit="10" stroke-width="0.239"/>
      <path id="Tracé_120-2" data-name="Tracé 120" d="M-4.419,476.522s-34.015-365.772,168.6-290.651S315.53-172.458,493.109,103.326C676.478,388.1,675.767-198.937,830.638,40.827" transform="translate(115.359 15.187)" fill="none" stroke="#2d2d2d" stroke-miterlimit="10" stroke-width="0.239"/>
      <path id="Tracé_121-2" data-name="Tracé 121" d="M-4.832,472.077s-31.223-367.13,169.939-289.721,153.783-354.13,326.77-76.343C670.781,393.3,675.663-199.794,828.141,40.664" transform="translate(119.005 15.17)" fill="none" stroke="#2d2d2d" stroke-miterlimit="10" stroke-width="0.239"/>
      <path id="Tracé_122-2" data-name="Tracé 122" d="M-5.2,467.638s-28.44-368.485,171.28-288.791,156.2-349.926,324.616-70.143c174.446,289.812,184.915-309.353,335-68.2" transform="translate(122.594 15.153)" fill="none" stroke="#2d2d2d" stroke-miterlimit="10" stroke-width="0.239"/>
      <path id="Tracé_123-2" data-name="Tracé 123" d="M-5.535,463.2S-31.2,93.356,167.089,175.336,325.709-170.38,489.563,111.4c170,292.339,186.047-312.9,333.758-71.05" transform="translate(126.119 15.137)" fill="none" stroke="#2d2d2d" stroke-miterlimit="10" stroke-width="0.239"/>
      <path id="Tracé_124-2" data-name="Tracé 124" d="M-5.825,458.762s-22.887-371.2,173.97-286.933,161.027-341.5,320.341-57.738C654.034,408.964,675.666-202.348,821,40.194" transform="translate(129.582 15.122)" fill="none" stroke="#2d2d2d" stroke-miterlimit="10" stroke-width="0.239"/>
      <path id="Tracé_125-2" data-name="Tracé 125" d="M-6.073,454.328s-20.121-372.552,175.314-286S332.67-168.956,487.461,116.79C648.568,414.2,675.775-203.194,818.748,40.043" transform="translate(132.986 15.108)" fill="none" stroke="#2d2d2d" stroke-miterlimit="10" stroke-width="0.239"/>
      <path id="Tracé_126-2" data-name="Tracé 126" d="M-6.279,449.9S-23.637,75.989,170.382,164.827,336.2-168.233,486.489,119.495c156.672,299.952,189.451-323.532,330.066-79.6" transform="translate(136.325 15.094)" fill="none" stroke="#2d2d2d" stroke-miterlimit="10" stroke-width="0.239"/>
      <path id="Tracé_127-2" data-name="Tracé 127" d="M-6.443,445.468s-14.6-375.263,178.007-284.142S339.773-167.5,485.572,122.2c152.239,302.5,190.59-327.074,328.855-82.449" transform="translate(139.602 18.599)" fill="none" stroke="#2d2d2d" stroke-miterlimit="10" stroke-width="0.239"/>
      <path id="Tracé_128-2" data-name="Tracé 128" d="M-6.566,441.042S-18.414,64.424,172.791,157.83,343.38-166.768,484.706,124.9c147.811,305.05,191.73-330.619,327.649-85.3" transform="translate(142.819 25.504)" fill="none" stroke="#2d2d2d" stroke-miterlimit="10" stroke-width="0.239"/>
      <path id="Tracé_129-2" data-name="Tracé 129" d="M-6.648,436.619s-9.1-377.975,180.7-282.281S347.015-166.026,483.89,127.612c143.384,307.6,192.87-334.167,326.452-88.149" transform="translate(145.981 32.405)" fill="none" stroke="#2d2d2d" stroke-miterlimit="10" stroke-width="0.239"/>
      <path id="Tracé_130-2" data-name="Tracé 130" d="M-6.691,432.2S-13.05,52.869,175.364,150.847s175.322-316.125,307.757-20.525c138.96,310.165,194.013-337.709,325.261-91" transform="translate(149.086 39.304)" fill="none" stroke="#2d2d2d" stroke-miterlimit="10" stroke-width="0.239"/>
      <path id="Tracé_131-2" data-name="Tracé 131" d="M-6.7,427.78S-10.319,47.1,176.707,147.356s177.674-311.883,305.688-14.32C616.932,445.76,677.551-208.217,806.473,39.187" transform="translate(152.143 46.201)" fill="none" stroke="#2d2d2d" stroke-miterlimit="10" stroke-width="0.239"/>
      <path id="Tracé_132-2" data-name="Tracé 132" d="M-6.674,423.363S-7.56,41.321,178.081,143.87,358.1-163.77,481.7,135.753c130.114,315.288,196.3-344.8,322.9-96.7" transform="translate(155.161 53.097)" fill="none" stroke="#2d2d2d" stroke-miterlimit="10" stroke-width="0.239"/>
      <path id="Tracé_133-2" data-name="Tracé 133" d="M-6.623,418.951s1.843-383.4,186.1-278.563,182.349-303.4,301.564-1.917C606.73,456.325,678.479-209.873,802.759,38.923" transform="translate(158.152 59.987)" fill="none" stroke="#2d2d2d" stroke-miterlimit="10" stroke-width="0.239"/>
      <path id="Tracé_134-2" data-name="Tracé 134" d="M-6.556,414.542S-1.989,29.787,180.889,136.909s184.669-299.153,299.5,4.285c121.263,320.419,198.575-351.888,320.538-102.4" transform="translate(161.124 66.876)" fill="none" stroke="#2d2d2d" stroke-miterlimit="10" stroke-width="0.239"/>
      <path id="Tracé_135-2" data-name="Tracé 135" d="M-6.486,410.134S.8,24.024,182.3,133.432s186.979-294.907,297.448,10.485C596.584,466.9,679.459-211.514,799.108,38.669" transform="translate(164.093 73.762)" fill="none" stroke="#2d2d2d" stroke-miterlimit="10" stroke-width="0.239"/>
      <path id="Tracé_136-2" data-name="Tracé 136" d="M-6.416,405.73s10-387.464,190.123-275.775S372.982-160.7,479.1,146.645C591.508,472.2,679.944-212.33,797.285,38.547" transform="translate(167.066 80.645)" fill="none" stroke="#2d2d2d" stroke-miterlimit="10" stroke-width="0.239"/>
      <path id="Tracé_137-2" data-name="Tracé 137" d="M-6.346,401.329S6.37,12.507,185.111,126.484,376.673-159.93,478.456,149.377c107.975,328.122,201.972-362.523,317-110.949" transform="translate(170.035 87.525)" fill="none" stroke="#2d2d2d" stroke-miterlimit="10" stroke-width="0.239"/>
      <path id="Tracé_138-2" data-name="Tracé 138" d="M-6.276,396.931S9.148,6.755,186.514,123.017,380.349-159.15,477.809,152.11c103.543,330.69,203.1-366.065,315.831-113.8" transform="translate(173.005 94.4)" fill="none" stroke="#2d2d2d" stroke-miterlimit="10" stroke-width="0.239"/>
      <path id="Tracé_139-2" data-name="Tracé 139" d="M-6.206,392.536S11.922,1,187.914,119.552s196.1-277.926,289.247,35.3C576.272,488.1,681.385-214.762,791.816,38.2" transform="translate(175.974 101.275)" fill="none" stroke="#2d2d2d" stroke-miterlimit="10" stroke-width="0.239"/>
      <path id="Tracé_140-2" data-name="Tracé 140" d="M-6.136,388.144S14.689-4.746,189.309,116.088s198.344-273.683,287.2,41.5c94.675,335.819,205.345-373.155,313.48-119.5" transform="translate(178.947 108.146)" fill="none" stroke="#2d2d2d" stroke-miterlimit="10" stroke-width="0.239"/>
      <path id="Tracé_141-2" data-name="Tracé 141" d="M-6.066,383.743S17.454-10.5,190.7,112.618s200.177-269.245,285.159,47.7c89.8,338.594,206.465-376.7,312.306-122.35" transform="translate(181.916 115.025)" fill="none" stroke="#2d2d2d" stroke-miterlimit="10" stroke-width="0.239"/>
      <path id="Tracé_142-2" data-name="Tracé 142" d="M-6,379.361s26.21-395.6,198.091-270.2,202.532-265.078,283.118,53.9c85.507,341.079,207.582-380.244,311.135-125.2" transform="translate(184.886 121.885)" fill="none" stroke="#2d2d2d" stroke-miterlimit="10" stroke-width="0.239"/>
      <path id="Tracé_143-2" data-name="Tracé 143" d="M-5.927,374.981S22.967-21.975,193.48,105.716,398.363-155.2,474.558,165.822c81.214,343.564,208.7-383.79,309.961-128.051" transform="translate(187.859 128.743)" fill="none" stroke="#2d2d2d" stroke-miterlimit="10" stroke-width="0.239"/>
      <path id="Tracé_144-2" data-name="Tracé 144" d="M-5.857,370.6S25.718-27.707,194.866,102.267s207.228-256.743,279.043,66.308c76.926,346.051,209.807-387.332,308.79-130.9" transform="translate(190.828 135.6)" fill="none" stroke="#2d2d2d" stroke-miterlimit="10" stroke-width="0.239"/>
    </g>
    <g id="Groupe_63" data-name="Groupe 63" transform="translate(161.875 1149.548) rotate(90)">
      <path id="Tracé_93-3" data-name="Tracé 93" d="M29.436,433.443S-94.435,198.5,166.034,212.5,248.548-117.941,579.688,42.865,739.148-100.454,979.357,60.013" fill="none" stroke="#2d2d2d" stroke-miterlimit="10" stroke-width="0.239"/>
      <path id="Tracé_94-3" data-name="Tracé 94" d="M28.147,429.186S-92.7,193.338,166.42,208.932s85.4-327.446,411.708-165.284c326.432,162.482,160.855-145.8,398.6,15.112" transform="translate(3.56 6.049)" fill="none" stroke="#2d2d2d" stroke-miterlimit="10" stroke-width="0.239"/>
      <path id="Tracé_95-3" data-name="Tracé 95" d="M26.875,424.939S-90.952,188.185,166.823,205.372,255.1-119.078,576.588,44.439C898.312,208.6,738.84-103.845,974.122,57.519" transform="translate(7.103 12.088)" fill="none" stroke="#2d2d2d" stroke-miterlimit="10" stroke-width="0.239"/>
      <path id="Tracé_96-3" data-name="Tracé 96" d="M25.621,420.7S-89.184,183.038,167.245,201.819,258.4-119.634,575.064,45.239C892.079,211.076,738.712-105.528,971.531,56.285" transform="translate(10.627 18.12)" fill="none" stroke="#2d2d2d" stroke-miterlimit="10" stroke-width="0.239"/>
      <path id="Tracé_97-3" data-name="Tracé 97" d="M24.388,416.468S-87.4,177.9,167.685,198.275,261.725-120.181,573.558,46.048C885.865,213.561,738.6-107.2,968.959,55.059" transform="translate(14.134 24.143)" fill="none" stroke="#2d2d2d" stroke-miterlimit="10" stroke-width="0.239"/>
      <path id="Tracé_98-3" data-name="Tracé 98" d="M23.173,412.246S-85.59,172.773,168.144,194.739,265.067-120.719,572.073,46.864c307.6,169.19,166.44-155.733,394.335,6.977" transform="translate(17.619 30.158)" fill="none" stroke="#2d2d2d" stroke-miterlimit="10" stroke-width="0.239"/>
      <path id="Tracé_99-3" data-name="Tracé 99" d="M21.979,408.232S-83.763,167.852,168.625,191.412,268.864-121.567,570.61,47.89c303.33,170.347,167.834-158.216,393.267,4.943" transform="translate(21.084 35.964)" fill="none" stroke="#2d2d2d" stroke-miterlimit="10" stroke-width="0.239"/>
      <path id="Tracé_100-3" data-name="Tracé 100" d="M20.806,404.057S-81.916,162.771,169.126,187.923,272.32-122.131,569.164,48.753c298.7,171.952,169.231-160.7,392.2,2.91" transform="translate(24.53 41.932)" fill="none" stroke="#2d2d2d" stroke-miterlimit="10" stroke-width="0.239"/>
      <path id="Tracé_101-3" data-name="Tracé 101" d="M19.655,399.889S-80.045,157.7,169.65,184.442,275.8-122.685,567.742,49.624c294.063,173.559,170.627-163.179,391.135.876" transform="translate(27.952 47.892)" fill="none" stroke="#2d2d2d" stroke-miterlimit="10" stroke-width="0.239"/>
      <path id="Tracé_102-3" data-name="Tracé 102" d="M18.526,395.727s-96.678-243.1,151.67-214.762S279.3-123.226,566.343,50.5c289.43,175.169,172.023-165.664,390.068-1.16" transform="translate(31.352 53.846)" fill="none" stroke="#2d2d2d" stroke-miterlimit="10" stroke-width="0.239"/>
      <path id="Tracé_103-3" data-name="Tracé 103" d="M17.421,391.574S-76.236,147.568,170.766,177.5s112.054-301.255,394.2-126.112c284.794,176.787,173.417-168.145,389-3.193" transform="translate(34.728 59.791)" fill="none" stroke="#2d2d2d" stroke-miterlimit="10" stroke-width="0.239"/>
      <path id="Tracé_104-3" data-name="Tracé 104" d="M16.34,387.427S-74.3,142.515,171.36,174.039,286.366-124.274,563.616,52.28c280.159,178.406,174.813-170.628,387.933-5.227" transform="translate(38.081 65.731)" fill="none" stroke="#2d2d2d" stroke-miterlimit="10" stroke-width="0.239"/>
      <path id="Tracé_105-3" data-name="Tracé 105" d="M15.284,383.288s-87.614-245.82,156.695-212.7S289.936-124.779,562.289,53.18C837.814,233.211,738.5-119.932,949.156,45.917" transform="translate(41.408 71.663)" fill="none" stroke="#2d2d2d" stroke-miterlimit="10" stroke-width="0.239"/>
      <path id="Tracé_106-3" data-name="Tracé 106" d="M14.255,379.818S-70.34,133.092,172.625,167.8,293.533-124.613,560.99,54.748c270.888,181.662,177.606-175.593,385.8-9.3" transform="translate(44.708 76.925)" fill="none" stroke="#2d2d2d" stroke-miterlimit="10" stroke-width="0.239"/>
      <path id="Tracé_107-3" data-name="Tracé 107" d="M13.253,376.62S-68.322,128.988,173.3,165.293s123.856-289.459,386.42-108.7c266.249,183.294,179-178.076,384.732-11.33" transform="translate(47.983 81.914)" fill="none" stroke="#2d2d2d" stroke-miterlimit="10" stroke-width="0.239"/>
      <path id="Tracé_108-3" data-name="Tracé 108" d="M12.279,373.427S-66.274,124.89,174,162.787s126.8-286.5,384.476-104.348c261.61,184.933,180.4-180.559,383.667-13.364" transform="translate(51.228 86.899)" fill="none" stroke="#2d2d2d" stroke-miterlimit="10" stroke-width="0.239"/>
      <path id="Tracé_109-3" data-name="Tracé 109" d="M11.333,370.239S-64.2,120.8,174.725,160.286s129.751-283.535,382.53-100c256.968,186.577,181.792-183.04,382.6-15.4" transform="translate(54.445 91.879)" fill="none" stroke="#2d2d2d" stroke-miterlimit="10" stroke-width="0.239"/>
      <path id="Tracé_110-3" data-name="Tracé 110" d="M10.417,367.055S-62.092,116.7,175.485,157.786,308.178-122.776,556.072,62.144C808.395,250.369,739.258-123.38,937.6,44.712" transform="translate(57.631 96.856)" fill="none" stroke="#2d2d2d" stroke-miterlimit="10" stroke-width="0.239"/>
      <path id="Tracé_111-3" data-name="Tracé 111" d="M9.534,363.873S-59.956,112.616,176.275,155.292,311.907-122.3,554.915,64C802.591,253.879,739.5-124.005,935.381,44.535" transform="translate(60.787 101.83)" fill="none" stroke="#2d2d2d" stroke-miterlimit="10" stroke-width="0.239"/>
      <path id="Tracé_112-3" data-name="Tracé 112" d="M8.682,360.695S-57.785,108.53,177.1,152.8s138.57-274.61,376.694-86.938c243.028,191.535,185.979-190.488,379.4-21.5" transform="translate(63.91 106.801)" fill="none" stroke="#2d2d2d" stroke-miterlimit="10" stroke-width="0.239"/>
      <path id="Tracé_113-3" data-name="Tracé 113" d="M7.864,357.52s-63.445-253.07,170.092-207.207S319.459-121.315,552.7,67.727c238.376,193.2,187.375-192.971,378.333-23.534" transform="translate(66.999 111.768)" fill="none" stroke="#2d2d2d" stroke-miterlimit="10" stroke-width="0.239"/>
      <path id="Tracé_114-3" data-name="Tracé 114" d="M7.08,354.35S-53.343,100.374,178.848,147.828s144.434-268.636,372.8-78.233c233.72,194.866,188.769-195.454,377.266-25.568" transform="translate(70.053 116.73)" fill="none" stroke="#2d2d2d" stroke-miterlimit="10" stroke-width="0.239"/>
      <path id="Tracé_115-3" data-name="Tracé 115" d="M6.333,351.182S-51.071,96.3,179.774,145.346,327.134-120.3,550.632,71.466C779.691,268,740.8-126.47,926.831,43.864" transform="translate(73.074 121.691)" fill="none" stroke="#2d2d2d" stroke-miterlimit="10" stroke-width="0.239"/>
      <path id="Tracé_116-3" data-name="Tracé 116" d="M5.622,348.016S-48.759,92.226,180.739,142.868,331.022-119.779,549.651,73.341C774.049,271.553,741.213-127.079,924.784,43.7" transform="translate(76.055 126.648)" fill="none" stroke="#2d2d2d" stroke-miterlimit="10" stroke-width="0.239"/>
      <path id="Tracé_117-3" data-name="Tracé 117" d="M4.95,344.854s-51.36-256.7,176.79-204.461,153.2-259.645,366.968-65.176c219.731,199.893,192.958-202.9,374.066-31.669" transform="translate(78.998 131.603)" fill="none" stroke="#2d2d2d" stroke-miterlimit="10" stroke-width="0.239"/>
      <path id="Tracé_118-3" data-name="Tracé 118" d="M4.318,341.7s-48.34-257.6,178.463-203.776S338.9-118.716,547.805,77.1c215.055,201.578,194.352-205.385,373-33.7" transform="translate(81.903 136.553)" fill="none" stroke="#2d2d2d" stroke-miterlimit="10" stroke-width="0.239"/>
      <path id="Tracé_119-3" data-name="Tracé 119" d="M3.726,338.54S-41.592,80.031,183.865,135.451s159.026-253.625,363.078-56.47C757.323,282.25,742.691-128.885,918.875,43.243" transform="translate(84.766 141.502)" fill="none" stroke="#2d2d2d" stroke-miterlimit="10" stroke-width="0.239"/>
      <path id="Tracé_120-3" data-name="Tracé 120" d="M3.176,335.386s-42.3-259.415,181.814-202.4,161.929-250.61,361.132-52.117c205.7,204.963,197.145-210.349,370.865-37.772" transform="translate(87.586 146.447)" fill="none" stroke="#2d2d2d" stroke-miterlimit="10" stroke-width="0.239"/>
      <path id="Tracé_121-3" data-name="Tracé 121" d="M2.669,332.236S-36.607,71.913,186.159,130.52,350.986-117.07,545.347,82.756c201.006,206.66,198.539-212.832,369.8-39.806" transform="translate(90.364 151.39)" fill="none" stroke="#2d2d2d" stroke-miterlimit="10" stroke-width="0.239"/>
      <path id="Tracé_122-3" data-name="Tracé 122" d="M2.207,329.09S-34.05,67.861,187.369,128.061s167.72-244.568,357.242-43.414c196.313,208.364,199.935-215.314,368.73-41.84" transform="translate(93.1 156.329)" fill="none" stroke="#2d2d2d" stroke-miterlimit="10" stroke-width="0.239"/>
      <path id="Tracé_123-3" data-name="Tracé 123" d="M1.788,325.944S-31.446,63.808,188.627,125.6s170.605-241.539,355.3-39.059c191.614,210.07,201.331-217.8,367.665-43.875" transform="translate(95.789 161.266)" fill="none" stroke="#2d2d2d" stroke-miterlimit="10" stroke-width="0.239"/>
      <path id="Tracé_124-3" data-name="Tracé 124" d="M1.416,322.8S-28.8,59.759,189.929,123.145,363.414-115.364,543.28,88.437c186.905,211.779,202.727-220.278,366.6-45.907" transform="translate(98.432 166.201)" fill="none" stroke="#2d2d2d" stroke-miterlimit="10" stroke-width="0.239"/>
      <path id="Tracé_125-3" data-name="Tracé 125" d="M1.089,319.662S-26.1,55.714,191.276,120.692,367.635-114.783,542.682,90.337C724.873,303.829,746.8-132.424,908.213,42.4" transform="translate(101.032 171.134)" fill="none" stroke="#2d2d2d" stroke-miterlimit="10" stroke-width="0.239"/>
      <path id="Tracé_126-3" data-name="Tracé 126" d="M.808,316.524S-23.363,51.67,192.671,118.243s179.225-232.44,349.46-26C719.6,307.449,747.649-133,906.595,42.263" transform="translate(103.583 176.062)" fill="none" stroke="#2d2d2d" stroke-miterlimit="10" stroke-width="0.239"/>
      <path id="Tracé_127-3" data-name="Tracé 127" d="M.573,313.389s-21.149-265.76,193.536-197.6,182.085-229.4,347.516-21.65c172.74,216.928,206.914-227.727,363.4-52.01" transform="translate(106.089 180.99)" fill="none" stroke="#2d2d2d" stroke-miterlimit="10" stroke-width="0.239"/>
      <path id="Tracé_128-3" data-name="Tracé 128" d="M.383,310.257S-17.745,43.591,195.594,113.348s184.938-226.356,345.57-17.3c168,218.65,208.31-230.209,362.331-54.044" transform="translate(108.551 185.915)" fill="none" stroke="#2d2d2d" stroke-miterlimit="10" stroke-width="0.239"/>
      <path id="Tracé_129-3" data-name="Tracé 129" d="M.235,307.127S-14.872,39.553,197.12,110.9,384.9-112.407,540.746,97.961C704,318.335,750.45-134.733,902.01,41.883" transform="translate(110.971 190.837)" fill="none" stroke="#2d2d2d" stroke-miterlimit="10" stroke-width="0.239"/>
      <path id="Tracé_130-3" data-name="Tracé 130" d="M.128,304S-11.957,35.521,198.688,108.465,389.306-111.8,540.369,99.872c158.5,222.1,211.1-235.175,360.2-58.113" transform="translate(113.349 195.756)" fill="none" stroke="#2d2d2d" stroke-miterlimit="10" stroke-width="0.239"/>
      <path id="Tracé_131-3" data-name="Tracé 131" d="M.058,300.875S-9.006,31.49,200.293,106.025s193.445-217.216,339.734-4.238c153.744,223.829,212.5-237.658,359.132-60.147" transform="translate(115.69 200.673)" fill="none" stroke="#2d2d2d" stroke-miterlimit="10" stroke-width="0.239"/>
      <path id="Tracé_132-3" data-name="Tracé 132" d="M.018,297.752S-6.023,27.459,201.929,103.589,398.2-110.578,539.717,103.7C688.691,329.263,753.61-136.437,897.782,41.522" transform="translate(118 205.589)" fill="none" stroke="#2d2d2d" stroke-miterlimit="10" stroke-width="0.239"/>
      <path id="Tracé_133-3" data-name="Tracé 133" d="M0,294.631s-3.022-271.2,203.585-193.476,199.078-211.117,335.844,4.466C683.625,332.914,754.718-137,896.429,41.407" transform="translate(120.289 210.501)" fill="none" stroke="#2d2d2d" stroke-miterlimit="10" stroke-width="0.239"/>
      <path id="Tracé_134-3" data-name="Tracé 134" d="M0,291.514S0,19.407,205.26,98.724s201.881-208.067,333.9,8.819c139.405,229.023,216.683-245.106,355.93-66.25" transform="translate(122.562 215.411)" fill="none" stroke="#2d2d2d" stroke-miterlimit="10" stroke-width="0.239"/>
      <path id="Tracé_135-3" data-name="Tracé 135" d="M0,288.4S3.02,15.385,206.936,96.3s204.678-205.016,331.952,13.17C673.5,340.222,756.967-138.122,893.751,41.182" transform="translate(124.833 220.32)" fill="none" stroke="#2d2d2d" stroke-miterlimit="10" stroke-width="0.239"/>
      <path id="Tracé_136-3" data-name="Tracé 136" d="M0,285.283S6.04,11.365,208.609,93.866,416.073-108.1,538.617,111.39c129.8,232.489,219.474-250.07,353.8-70.317" transform="translate(127.106 225.227)" fill="none" stroke="#2d2d2d" stroke-miterlimit="10" stroke-width="0.239"/>
      <path id="Tracé_137-3" data-name="Tracé 137" d="M0,282.172S9.061,7.346,210.282,91.442s210.245-198.913,328.064,21.877C663.332,347.54,759.216-139.236,891.075,40.968" transform="translate(129.377 230.13)" fill="none" stroke="#2d2d2d" stroke-miterlimit="10" stroke-width="0.239"/>
      <path id="Tracé_138-3" data-name="Tracé 138" d="M0,279.063S12.083,3.331,211.958,89.02s213.016-195.862,326.118,26.228C658.237,351.2,760.342-139.788,889.739,40.863" transform="translate(131.647 235.031)" fill="none" stroke="#2d2d2d" stroke-miterlimit="10" stroke-width="0.239"/>
      <path id="Tracé_139-3" data-name="Tracé 139" d="M0,275.955S15.105-.682,213.633,86.6,429.411-106.215,537.805,117.18C653.134,354.864,761.467-140.338,888.4,40.761" transform="translate(133.918 239.932)" fill="none" stroke="#2d2d2d" stroke-miterlimit="10" stroke-width="0.239"/>
      <path id="Tracé_140-3" data-name="Tracé 140" d="M0,272.849S18.125-4.7,215.307,84.178s218.532-189.766,322.228,34.936c110.485,239.413,225.056-260,349.529-78.454" transform="translate(136.191 244.829)" fill="none" stroke="#2d2d2d" stroke-miterlimit="10" stroke-width="0.239"/>
      <path id="Tracé_141-3" data-name="Tracé 141" d="M0,269.738S21.147-8.713,216.982,81.754s220.826-186.587,320.282,39.287C642.413,362.324,763.716-141.443,885.726,40.553" transform="translate(138.462 249.733)" fill="none" stroke="#2d2d2d" stroke-miterlimit="10" stroke-width="0.239"/>
      <path id="Tracé_142-3" data-name="Tracé 142" d="M0,266.64S24.169-12.718,218.657,79.343s223.708-183.591,318.336,43.64c100.443,242.959,227.849-264.967,347.4-82.522" transform="translate(140.733 254.623)" fill="none" stroke="#2d2d2d" stroke-miterlimit="10" stroke-width="0.239"/>
      <path id="Tracé_143-3" data-name="Tracé 143" d="M0,263.544S27.189-16.72,220.331,76.933s226.589-180.594,316.39,47.992c95.734,244.635,229.245-267.45,346.33-84.556" transform="translate(143.006 259.512)" fill="none" stroke="#2d2d2d" stroke-miterlimit="10" stroke-width="0.239"/>
      <path id="Tracé_144-3" data-name="Tracé 144" d="M0,260.447S30.211-20.721,222.006,74.524s229.47-177.6,314.446,52.345C627.476,373.181,767.091-143.062,881.715,40.28" transform="translate(145.276 264.4)" fill="none" stroke="#2d2d2d" stroke-miterlimit="10" stroke-width="0.239"/>
    </g>
    <g id="Groupe_80" data-name="Groupe 80" transform="translate(1449.678 4138.144) rotate(-30)">
      <path id="Tracé_93-4" data-name="Tracé 93" d="M24.276,357.451S-77.879,163.7,136.925,175.248,204.973-97.264,478.057,35.35s131.5-118.192,329.6,14.142" transform="translate(0 -6.987)" fill="none" stroke="#2d2d2d" stroke-miterlimit="10" stroke-width="0.239"/>
      <path id="Tracé_94-4" data-name="Tracé 94" d="M23.212,353.941S-76.45,159.442,137.243,172.3,207.667-97.736,476.771,36c269.2,134,132.654-120.241,328.718,12.463" transform="translate(2.936 -5.232)" fill="none" stroke="#2d2d2d" stroke-miterlimit="10" stroke-width="0.239"/>
      <path id="Tracé_95-4" data-name="Tracé 95" d="M22.163,350.438s-97.17-195.246,115.413-181.072S210.376-98.2,475.5,36.648C740.819,172.027,609.306-85.639,803.339,47.435" transform="translate(5.858 -3.481)" fill="none" stroke="#2d2d2d" stroke-miterlimit="10" stroke-width="0.239"/>
      <path id="Tracé_96-4" data-name="Tracé 96" d="M21.129,346.942S-73.548,150.948,137.924,166.436,213.1-98.659,474.244,37.308C735.68,174.07,609.2-87.027,801.2,46.417" transform="translate(8.764 -1.733)" fill="none" stroke="#2d2d2d" stroke-miterlimit="10" stroke-width="0.239"/>
      <path id="Tracé_97-4" data-name="Tracé 97" d="M20.112,343.453S-72.075,146.711,138.287,163.514,215.839-99.111,473,37.975C730.555,176.119,609.11-88.407,799.081,45.406" transform="translate(11.656 0.023)" fill="none" stroke="#2d2d2d" stroke-miterlimit="10" stroke-width="0.239"/>
      <path id="Tracé_98-4" data-name="Tracé 98" d="M19.111,339.971S-70.585,142.483,138.665,160.6,218.6-99.554,471.777,38.648c253.672,139.528,137.26-128.43,325.2,5.754" transform="translate(14.53 3.505)" fill="none" stroke="#2d2d2d" stroke-miterlimit="10" stroke-width="0.239"/>
      <path id="Tracé_99-4" data-name="Tracé 99" d="M18.126,336.661s-87.2-198.237,120.936-178.808S221.727-100.254,470.57,39.494C720.72,179.975,608.98-90.983,794.89,43.57" transform="translate(17.388 6.815)" fill="none" stroke="#2d2d2d" stroke-miterlimit="10" stroke-width="0.239"/>
      <path id="Tracé_100-4" data-name="Tracé 100" d="M17.159,333.218S-67.554,134.234,139.475,154.977s85.1-255.7,329.9-114.771c246.328,141.805,139.561-132.523,323.439,2.4" transform="translate(20.229 10.258)" fill="none" stroke="#2d2d2d" stroke-miterlimit="10" stroke-width="0.239"/>
      <path id="Tracé_101-4" data-name="Tracé 101" d="M16.209,240.426s-82.221-145.614,123.7-129.534,87.537-184.654,328.3-81.057c242.508,104.349,140.713-98.109,322.561.527" transform="translate(23.051 39.496)" fill="none" stroke="#2d2d2d" stroke-miterlimit="10" stroke-width="0.239"/>
      <path id="Tracé_102-4" data-name="Tracé 102" d="M15.278,236.994S-64.451,91.406,140.357,108.377,230.331-73.8,467.051,30.245c238.687,104.906,141.864-99.213,321.681-.695" transform="translate(25.855 44.406)" fill="none" stroke="#2d2d2d" stroke-miterlimit="10" stroke-width="0.239"/>
      <path id="Tracé_103-4" data-name="Tracé 103" d="M14.366,233.569S-62.87,88.023,140.828,105.876,233.236-73.819,465.918,30.652c234.864,105.451,143.014-100.3,320.8-1.9" transform="translate(28.639 49.309)" fill="none" stroke="#2d2d2d" stroke-miterlimit="10" stroke-width="0.239"/>
      <path id="Tracé_104-4" data-name="Tracé 104" d="M13.475,230.149S-61.271,84.66,141.317,103.387,236.16-73.824,464.8,31.057C695.844,137.038,608.968-70.3,784.724,27.952" transform="translate(31.405 54.207)" fill="none" stroke="#2d2d2d" stroke-miterlimit="10" stroke-width="0.239"/>
      <path id="Tracé_105-4" data-name="Tracé 105" d="M12.6,226.735S-59.649,81.32,141.828,100.911,239.1-73.814,463.709,31.459c227.219,106.5,145.316-102.405,319.041-4.3" transform="translate(34.148 59.099)" fill="none" stroke="#2d2d2d" stroke-miterlimit="10" stroke-width="0.239"/>
      <path id="Tracé_106-4" data-name="Tracé 106" d="M11.756,223.874S-58.008,78.448,142.361,98.907,242.071-73.45,462.637,32.27C686.032,139.346,609.1-71.229,780.8,26.791" transform="translate(36.87 63.438)" fill="none" stroke="#2d2d2d" stroke-miterlimit="10" stroke-width="0.239"/>
      <path id="Tracé_107-4" data-name="Tracé 107" d="M10.93,310.591S-56.344,106.374,142.914,136.314,245.056-102.4,461.587,46.67c219.57,151.159,147.618-146.856,317.28-9.343" transform="translate(39.57 0)" fill="none" stroke="#2d2d2d" stroke-miterlimit="10" stroke-width="0.239"/>
      <path id="Tracé_108-4" data-name="Tracé 108" d="M10.126,307.958S-54.655,102.994,143.49,134.247s104.573-236.27,317.07-86.054C676.3,200.7,609.33-100.71,776.963,37.172" transform="translate(42.247 0)" fill="none" stroke="#2d2d2d" stroke-miterlimit="10" stroke-width="0.239"/>
      <path id="Tracé_109-4" data-name="Tracé 109" d="M9.346,305.329S-52.943,99.618,144.092,132.185s107-233.825,315.465-82.466C671.474,203.585,609.478-101.23,775.08,37.02" transform="translate(44.899 0)" fill="none" stroke="#2d2d2d" stroke-miterlimit="10" stroke-width="0.239"/>
      <path id="Tracé_110-4" data-name="Tracé 110" d="M8.591,302.7s-59.8-206.459,136.128-172.579S254.148-101.251,458.581,51.249c208.086,155.225,151.07-153,314.642-14.376" transform="translate(47.527 0)" fill="none" stroke="#2d2d2d" stroke-miterlimit="10" stroke-width="0.239"/>
      <path id="Tracé_111-4" data-name="Tracé 111" d="M7.862,300.079S-49.444,92.872,145.37,128.066,257.223-100.856,457.628,52.78C661.88,209.369,609.849-102.265,771.389,36.727" transform="translate(50.13 0)" fill="none" stroke="#2d2d2d" stroke-miterlimit="10" stroke-width="0.239"/>
      <path id="Tracé_112-4" data-name="Tracé 112" d="M7.16,297.458S-47.654,89.5,146.05,126.011,260.325-100.454,456.7,54.315c200.42,157.955,153.373-157.092,312.884-17.73" transform="translate(52.705 0)" fill="none" stroke="#2d2d2d" stroke-miterlimit="10" stroke-width="0.239"/>
      <path id="Tracé_113-4" data-name="Tracé 113" d="M6.485,294.839s-52.322-208.7,140.272-170.88S263.451-100.046,455.8,55.853c196.584,159.326,154.524-159.139,312-19.408" transform="translate(55.253 2.818)" fill="none" stroke="#2d2d2d" stroke-miterlimit="10" stroke-width="0.239"/>
      <path id="Tracé_114-4" data-name="Tracé 114" d="M5.839,292.225S-43.991,82.776,147.492,121.91,266.6-99.629,454.936,57.393C647.68,218.1,610.61-103.793,766.06,36.308" transform="translate(57.772 6.911)" fill="none" stroke="#2d2d2d" stroke-miterlimit="10" stroke-width="0.239"/>
      <path id="Tracé_115-4" data-name="Tracé 115" d="M5.223,289.612s-47.34-210.2,143.033-169.748S269.781-99.206,454.1,58.937C643,221.016,610.921-104.3,764.339,36.174" transform="translate(60.262 11.002)" fill="none" stroke="#2d2d2d" stroke-miterlimit="10" stroke-width="0.239"/>
      <path id="Tracé_116-4" data-name="Tracé 116" d="M4.637,287S-40.211,76.057,149.052,117.82s123.935-216.6,304.234-57.338C638.343,223.944,611.263-104.8,762.651,36.042" transform="translate(62.721 15.09)" fill="none" stroke="#2d2d2d" stroke-miterlimit="10" stroke-width="0.239"/>
      <path id="Tracé_117-4" data-name="Tracé 117" d="M4.082,284.394S-38.273,72.7,149.877,115.779,276.221-98.345,452.509,62.03C633.716,226.877,611.637-105.3,760.993,35.913" transform="translate(65.148 19.176)" fill="none" stroke="#2d2d2d" stroke-miterlimit="10" stroke-width="0.239"/>
      <path id="Tracé_118-4" data-name="Tracé 118" d="M3.561,281.79S-36.3,69.35,150.736,113.74,279.482-97.9,451.764,63.582c177.352,166.237,160.278-169.377,307.6-27.8" transform="translate(67.544 23.258)" fill="none" stroke="#2d2d2d" stroke-miterlimit="10" stroke-width="0.239"/>
      <path id="Tracé_119-4" data-name="Tracé 119" d="M3.073,279.187S-34.3,66,151.629,111.7,282.775-97.456,451.053,65.134c173.5,167.632,161.43-171.423,306.725-29.472" transform="translate(69.905 27.339)" fill="none" stroke="#2d2d2d" stroke-miterlimit="10" stroke-width="0.239"/>
      <path id="Tracé_120-4" data-name="Tracé 120" d="M2.62,276.586S-32.263,62.652,152.558,109.669,286.1-97,450.376,66.689C620.011,235.718,612.957-106.781,756.221,35.54" transform="translate(72.231 31.418)" fill="none" stroke="#2d2d2d" stroke-miterlimit="10" stroke-width="0.239"/>
      <path id="Tracé_121-4" data-name="Tracé 121" d="M2.2,273.988S-30.189,59.305,153.521,107.638,289.451-96.546,449.737,68.247C615.5,238.675,613.468-107.271,754.7,35.42" transform="translate(74.521 35.494)" fill="none" stroke="#2d2d2d" stroke-miterlimit="10" stroke-width="0.239"/>
      <path id="Tracé_122-4" data-name="Tracé 122" d="M1.82,271.393s-29.9-215.43,152.7-165.784,138.315-201.69,294.61-35.8c161.9,171.834,164.882-177.565,304.085-34.5" transform="translate(76.777 39.567)" fill="none" stroke="#2d2d2d" stroke-miterlimit="10" stroke-width="0.239"/>
      <path id="Tracé_123-4" data-name="Tracé 123" d="M1.475,268.8S-25.933,52.621,155.557,103.581,296.251-95.612,448.562,71.369C606.582,244.61,614.6-108.244,751.768,35.187" transform="translate(78.995 43.639)" fill="none" stroke="#2d2d2d" stroke-miterlimit="10" stroke-width="0.239"/>
      <path id="Tracé_124-4" data-name="Tracé 124" d="M1.167,266.208S-23.748,49.282,156.631,101.555,299.7-95.139,448.032,72.932c154.137,174.65,167.185-181.659,302.326-37.858" transform="translate(81.175 47.709)" fill="none" stroke="#2d2d2d" stroke-miterlimit="10" stroke-width="0.239"/>
      <path id="Tracé_125-4" data-name="Tracé 125" d="M.9,263.618S-21.527,45.946,157.742,99.532,303.181-94.66,447.539,74.5C597.788,250.562,615.874-109.208,748.985,34.963" transform="translate(83.319 51.777)" fill="none" stroke="#2d2d2d" stroke-miterlimit="10" stroke-width="0.239"/>
      <path id="Tracé_126-4" data-name="Tracé 126" d="M.667,261.031S-19.267,42.611,158.892,97.513,306.7-94.176,447.084,76.069C593.44,253.547,616.571-109.686,747.65,34.854" transform="translate(85.423 55.841)" fill="none" stroke="#2d2d2d" stroke-miterlimit="10" stroke-width="0.239"/>
      <path id="Tracé_127-4" data-name="Tracé 127" d="M.473,258.446S-16.969,39.279,160.078,95.492,310.239-93.688,446.667,77.638c142.455,178.9,170.638-187.8,299.687-42.891" transform="translate(87.49 59.904)" fill="none" stroke="#2d2d2d" stroke-miterlimit="10" stroke-width="0.239"/>
      <path id="Tracé_128-4" data-name="Tracé 128" d="M.315,255.862S-14.634,35.949,161.3,93.475,313.817-93.2,446.287,79.211C584.836,259.528,618.076-110.638,745.094,34.642" transform="translate(89.519 63.966)" fill="none" stroke="#2d2d2d" stroke-miterlimit="10" stroke-width="0.239"/>
      <path id="Tracé_129-4" data-name="Tracé 129" d="M.194,253.281S-12.265,32.619,162.561,91.461,317.419-92.7,445.942,80.786C580.578,262.524,618.881-111.112,743.87,34.54" transform="translate(91.515 68.025)" fill="none" stroke="#2d2d2d" stroke-miterlimit="10" stroke-width="0.239"/>
      <path id="Tracé_130-4" data-name="Tracé 130" d="M.106,250.7S-9.861,29.293,163.854,89.449,321.053-92.2,445.631,82.363c130.715,183.163,174.09-193.944,297.047-47.924" transform="translate(93.476 72.082)" fill="none" stroke="#2d2d2d" stroke-miterlimit="10" stroke-width="0.239"/>
      <path id="Tracé_131-4" data-name="Tracé 131" d="M.048,248.125S-7.427,25.969,165.178,87.436,324.708-91.7,445.35,83.941c126.79,184.588,175.242-195.992,296.169-49.6" transform="translate(95.407 76.137)" fill="none" stroke="#2d2d2d" stroke-miterlimit="10" stroke-width="0.239"/>
      <path id="Tracé_132-4" data-name="Tracé 132" d="M.015,245.55S-4.967,22.645,166.527,85.427s161.856-176.619,278.567.095C567.949,271.537,621.487-112.517,740.383,34.243" transform="translate(97.312 80.191)" fill="none" stroke="#2d2d2d" stroke-miterlimit="10" stroke-width="0.239"/>
      <path id="Tracé_133-4" data-name="Tracé 133" d="M0,242.977S-2.49,19.324,167.894,83.421,332.069-90.683,444.858,87.1C563.771,274.547,622.4-112.983,739.266,34.148" transform="translate(99.2 84.242)" fill="none" stroke="#2d2d2d" stroke-miterlimit="10" stroke-width="0.239"/>
      <path id="Tracé_134-4" data-name="Tracé 134" d="M0,240.405S0,16,169.274,81.416,335.761-90.173,444.633,88.688C559.6,277.559,623.327-113.446,738.161,34.054" transform="translate(101.075 88.291)" fill="none" stroke="#2d2d2d" stroke-miterlimit="10" stroke-width="0.239"/>
      <path id="Tracé_135-4" data-name="Tracé 135" d="M0,237.835S2.49,12.688,170.656,79.413,339.449-89.66,444.41,90.273c111.009,190.3,179.846-204.18,292.648-56.311" transform="translate(102.947 92.339)" fill="none" stroke="#2d2d2d" stroke-miterlimit="10" stroke-width="0.239"/>
      <path id="Tracé_136-4" data-name="Tracé 136" d="M0,235.267S4.981,9.372,172.035,77.409,343.127-89.145,444.186,91.861c107.044,191.729,181-206.228,291.768-57.989" transform="translate(104.822 96.386)" fill="none" stroke="#2d2d2d" stroke-miterlimit="10" stroke-width="0.239"/>
      <path id="Tracé_137-4" data-name="Tracé 137" d="M0,232.7S7.473,6.058,173.415,75.41,346.8-88.63,443.963,93.452C547.037,286.609,626.11-114.825,734.852,33.786" transform="translate(106.694 100.43)" fill="none" stroke="#2d2d2d" stroke-miterlimit="10" stroke-width="0.239"/>
      <path id="Tracé_138-4" data-name="Tracé 138" d="M0,230.137S9.965,2.747,174.8,73.413,350.467-88.111,443.74,95.043C542.834,289.629,627.038-115.28,733.75,33.7" transform="translate(108.567 104.471)" fill="none" stroke="#2d2d2d" stroke-miterlimit="10" stroke-width="0.239"/>
      <path id="Tracé_139-4" data-name="Tracé 139" d="M0,227.575S12.457-.563,176.179,71.416s177.948-159.01,267.338,25.22c95.11,196.013,184.45-212.37,289.13-63.021" transform="translate(110.44 108.512)" fill="none" stroke="#2d2d2d" stroke-miterlimit="10" stroke-width="0.239"/>
      <path id="Tracé_140-4" data-name="Tracé 140" d="M0,225.013S14.947-3.872,177.559,69.42s180.219-156.5,265.735,28.811c91.114,197.439,185.6-214.418,288.25-64.7" transform="translate(112.314 112.552)" fill="none" stroke="#2d2d2d" stroke-miterlimit="10" stroke-width="0.239"/>
      <path id="Tracé_141-4" data-name="Tracé 141" d="M0,222.447S17.44-7.185,178.941,67.421s182.111-153.875,264.13,32.4C529.785,298.8,629.821-116.646,730.44,33.443" transform="translate(114.187 116.596)" fill="none" stroke="#2d2d2d" stroke-miterlimit="10" stroke-width="0.239"/>
      <path id="Tracé_142-4" data-name="Tracé 142" d="M0,219.893S19.932-10.489,180.322,65.432s184.487-151.4,262.525,35.989c82.833,200.363,187.9-218.513,286.491-68.054" transform="translate(116.059 120.629)" fill="none" stroke="#2d2d2d" stroke-miterlimit="10" stroke-width="0.239"/>
      <path id="Tracé_143-4" data-name="Tracé 143" d="M0,217.339S22.422-13.789,181.7,63.445s186.863-148.932,260.92,39.578c78.95,201.745,189.054-220.56,285.611-69.732" transform="translate(117.934 124.66)" fill="none" stroke="#2d2d2d" stroke-miterlimit="10" stroke-width="0.239"/>
      <path id="Tracé_144-4" data-name="Tracé 144" d="M0,214.786S24.914-17.088,183.084,61.458,372.323-85,442.4,104.626C517.467,307.755,632.6-117.98,727.132,33.218" transform="translate(119.806 128.691)" fill="none" stroke="#2d2d2d" stroke-miterlimit="10" stroke-width="0.239"/>
    </g>
    <g id="Groupe_36" data-name="Groupe 36" transform="translate(1569.336 -56.785)">
      <ellipse id="Ellipse_12" data-name="Ellipse 12" cx="5.133" cy="4.502" rx="5.133" ry="4.502" transform="translate(0)" fill="#ffc248"/>
      <ellipse id="Ellipse_13" data-name="Ellipse 13" cx="5.133" cy="4.502" rx="5.133" ry="4.502" transform="translate(0 34.855)" fill="#ffc248"/>
      <ellipse id="Ellipse_14" data-name="Ellipse 14" cx="5.133" cy="4.502" rx="5.133" ry="4.502" transform="translate(0 69.711)" fill="#ffc248"/>
      <ellipse id="Ellipse_15" data-name="Ellipse 15" cx="5.133" cy="4.502" rx="5.133" ry="4.502" transform="translate(0 104.566)" fill="#ffc248"/>
    </g>
    <g id="Groupe_37" data-name="Groupe 37" transform="translate(413.069 -34.341)">
      <ellipse id="Ellipse_16" data-name="Ellipse 16" cx="5.133" cy="4.502" rx="5.133" ry="4.502" fill="#ffc248"/>
      <ellipse id="Ellipse_17" data-name="Ellipse 17" cx="5.133" cy="4.502" rx="5.133" ry="4.502" transform="translate(0 34.855)" fill="#ffc248"/>
      <ellipse id="Ellipse_18" data-name="Ellipse 18" cx="5.133" cy="4.502" rx="5.133" ry="4.502" transform="translate(0 69.71)" fill="#ffc248"/>
      <ellipse id="Ellipse_19" data-name="Ellipse 19" cx="5.133" cy="4.502" rx="5.133" ry="4.502" transform="translate(0 104.566)" fill="#ffc248"/>
    </g>
    <g id="Groupe_64" data-name="Groupe 64" transform="translate(267.734 1331.234)">
      <ellipse id="Ellipse_16-2" data-name="Ellipse 16" cx="5.133" cy="4.502" rx="5.133" ry="4.502" fill="#ffc248"/>
      <ellipse id="Ellipse_17-2" data-name="Ellipse 17" cx="5.133" cy="4.502" rx="5.133" ry="4.502" transform="translate(0 34.855)" fill="#ffc248"/>
      <ellipse id="Ellipse_18-2" data-name="Ellipse 18" cx="5.133" cy="4.502" rx="5.133" ry="4.502" transform="translate(0 69.71)" fill="#ffc248"/>
      <ellipse id="Ellipse_19-2" data-name="Ellipse 19" cx="5.133" cy="4.502" rx="5.133" ry="4.502" transform="translate(0 104.566)" fill="#ffc248"/>
    </g>
    <g id="Groupe_38" data-name="Groupe 38" transform="translate(1680.269 1043.924)">
      <ellipse id="Ellipse_20" data-name="Ellipse 20" cx="5.133" cy="4.502" rx="5.133" ry="4.502" transform="translate(0)" fill="#ffc248"/>
      <ellipse id="Ellipse_21" data-name="Ellipse 21" cx="5.133" cy="4.502" rx="5.133" ry="4.502" transform="translate(0 34.855)" fill="#ffc248"/>
      <ellipse id="Ellipse_22" data-name="Ellipse 22" cx="5.133" cy="4.502" rx="5.133" ry="4.502" transform="translate(0 69.711)" fill="#ffc248"/>
      <ellipse id="Ellipse_23" data-name="Ellipse 23" cx="5.133" cy="4.502" rx="5.133" ry="4.502" transform="translate(0 104.566)" fill="#ffc248"/>
    </g>
    <g id="Groupe_71" data-name="Groupe 71" transform="translate(1718.269 2322.924)">
      <ellipse id="Ellipse_20-2" data-name="Ellipse 20" cx="5.133" cy="4.502" rx="5.133" ry="4.502" transform="translate(0)" fill="#ffc248"/>
      <ellipse id="Ellipse_21-2" data-name="Ellipse 21" cx="5.133" cy="4.502" rx="5.133" ry="4.502" transform="translate(0 34.855)" fill="#ffc248"/>
      <ellipse id="Ellipse_22-2" data-name="Ellipse 22" cx="5.133" cy="4.502" rx="5.133" ry="4.502" transform="translate(0 69.711)" fill="#ffc248"/>
      <ellipse id="Ellipse_23-2" data-name="Ellipse 23" cx="5.133" cy="4.502" rx="5.133" ry="4.502" transform="translate(0 104.566)" fill="#ffc248"/>
    </g>
    <g id="Groupe_39" data-name="Groupe 39" transform="translate(93.691 843.577)">
      <ellipse id="Ellipse_24" data-name="Ellipse 24" cx="5.133" cy="4.502" rx="5.133" ry="4.502" fill="#ffc248"/>
      <ellipse id="Ellipse_25" data-name="Ellipse 25" cx="5.133" cy="4.502" rx="5.133" ry="4.502" transform="translate(0 34.855)" fill="#ffc248"/>
      <ellipse id="Ellipse_26" data-name="Ellipse 26" cx="5.133" cy="4.502" rx="5.133" ry="4.502" transform="translate(0 69.711)" fill="#ffc248"/>
      <ellipse id="Ellipse_27" data-name="Ellipse 27" cx="5.133" cy="4.502" rx="5.133" ry="4.502" transform="translate(0 104.566)" fill="#ffc248"/>
    </g>
    <g id="Groupe_69" data-name="Groupe 69" transform="translate(156.742 1972.577)">
      <ellipse id="Ellipse_24-2" data-name="Ellipse 24" cx="5.133" cy="4.502" rx="5.133" ry="4.502" fill="#ffc248"/>
      <ellipse id="Ellipse_25-2" data-name="Ellipse 25" cx="5.133" cy="4.502" rx="5.133" ry="4.502" transform="translate(0 34.855)" fill="#ffc248"/>
      <ellipse id="Ellipse_26-2" data-name="Ellipse 26" cx="5.133" cy="4.502" rx="5.133" ry="4.502" transform="translate(0 69.711)" fill="#ffc248"/>
      <ellipse id="Ellipse_27-2" data-name="Ellipse 27" cx="5.133" cy="4.502" rx="5.133" ry="4.502" transform="translate(0 104.566)" fill="#ffc248"/>
    </g>
    <g id="Groupe_41" data-name="Groupe 41" transform="translate(-35.802 92.154)">
      <g id="Groupe_40" data-name="Groupe 40">
        <ellipse id="Ellipse_28" data-name="Ellipse 28" cx="5.133" cy="4.502" rx="5.133" ry="4.502" fill="#353535"/>
        <ellipse id="Ellipse_29" data-name="Ellipse 29" cx="5.133" cy="4.502" rx="5.133" ry="4.502" transform="translate(39.742)" fill="#353535"/>
        <ellipse id="Ellipse_30" data-name="Ellipse 30" cx="5.133" cy="4.502" rx="5.133" ry="4.502" transform="translate(79.485)" fill="#353535"/>
        <ellipse id="Ellipse_31" data-name="Ellipse 31" cx="5.133" cy="4.502" rx="5.133" ry="4.502" transform="translate(119.227)" fill="#353535"/>
      </g>
    </g>
    <g id="Groupe_47" data-name="Groupe 47" transform="translate(1842.779 30.391)">
      <g id="Groupe_46" data-name="Groupe 46" transform="translate(0)">
        <ellipse id="Ellipse_39" data-name="Ellipse 39" cx="5.133" cy="4.502" rx="5.133" ry="4.502" transform="translate(0 0.001)" fill="#fb9e75"/>
        <ellipse id="Ellipse_40" data-name="Ellipse 40" cx="5.133" cy="4.502" rx="5.133" ry="4.502" transform="translate(39.743 0.001)" fill="#fb9e75"/>
        <ellipse id="Ellipse_41" data-name="Ellipse 41" cx="5.133" cy="4.502" rx="5.133" ry="4.502" transform="translate(79.485 0.001)" fill="#fb9e75"/>
        <path id="Tracé_146" data-name="Tracé 146" d="M31.813,419.536c2.836,0,5.133,2.016,5.133,4.5s-2.3,4.5-5.133,4.5-5.133-2.014-5.133-4.5S28.979,419.536,31.813,419.536Z" transform="translate(92.546 -419.536)" fill="#fb9e75"/>
      </g>
    </g>
    <g id="Groupe_70" data-name="Groupe 70" transform="translate(1879.944 2410.391)">
      <g id="Groupe_46-2" data-name="Groupe 46" transform="translate(0)">
        <ellipse id="Ellipse_39-2" data-name="Ellipse 39" cx="5.133" cy="4.502" rx="5.133" ry="4.502" transform="translate(0 0.001)" fill="#fb9e75"/>
        <ellipse id="Ellipse_40-2" data-name="Ellipse 40" cx="5.133" cy="4.502" rx="5.133" ry="4.502" transform="translate(39.743 0.001)" fill="#fb9e75"/>
        <ellipse id="Ellipse_41-2" data-name="Ellipse 41" cx="5.133" cy="4.502" rx="5.133" ry="4.502" transform="translate(79.485 0.001)" fill="#fb9e75"/>
        <path id="Tracé_146-2" data-name="Tracé 146" d="M31.813,419.536c2.836,0,5.133,2.016,5.133,4.5s-2.3,4.5-5.133,4.5-5.133-2.014-5.133-4.5S28.979,419.536,31.813,419.536Z" transform="translate(92.546 -419.536)" fill="#fb9e75"/>
      </g>
    </g>
    <g id="Groupe_49" data-name="Groupe 49" transform="translate(-100.549 680.408)">
      <g id="Groupe_48" data-name="Groupe 48">
        <ellipse id="Ellipse_42" data-name="Ellipse 42" cx="5.133" cy="4.502" rx="5.133" ry="4.502" fill="#353535"/>
        <ellipse id="Ellipse_43" data-name="Ellipse 43" cx="5.133" cy="4.502" rx="5.133" ry="4.502" transform="translate(39.742)" fill="#353535"/>
        <ellipse id="Ellipse_44" data-name="Ellipse 44" cx="5.133" cy="4.502" rx="5.133" ry="4.502" transform="translate(79.485)" fill="#353535"/>
        <path id="Tracé_147" data-name="Tracé 147" d="M-727.3,709.05c2.834,0,5.133,2.016,5.133,4.5s-2.3,4.5-5.133,4.5-5.133-2.016-5.133-4.5S-730.133,709.05-727.3,709.05Z" transform="translate(851.66 -709.05)" fill="#353535"/>
      </g>
    </g>
    <g id="Groupe_65" data-name="Groupe 65" transform="translate(1750.451 1654.041)">
      <g id="Groupe_48-2" data-name="Groupe 48">
        <ellipse id="Ellipse_42-2" data-name="Ellipse 42" cx="5.133" cy="4.502" rx="5.133" ry="4.502" fill="#353535"/>
        <ellipse id="Ellipse_43-2" data-name="Ellipse 43" cx="5.133" cy="4.502" rx="5.133" ry="4.502" transform="translate(39.742)" fill="#353535"/>
        <ellipse id="Ellipse_44-2" data-name="Ellipse 44" cx="5.133" cy="4.502" rx="5.133" ry="4.502" transform="translate(79.485)" fill="#353535"/>
        <path id="Tracé_147-2" data-name="Tracé 147" d="M-727.3,709.05c2.834,0,5.133,2.016,5.133,4.5s-2.3,4.5-5.133,4.5-5.133-2.016-5.133-4.5S-730.133,709.05-727.3,709.05Z" transform="translate(851.66 -709.05)" fill="#353535"/>
      </g>
    </g>
    <g id="Groupe_51" data-name="Groupe 51" transform="translate(-50.541 1083.281)">
      <g id="Groupe_50" data-name="Groupe 50">
        <ellipse id="Ellipse_45" data-name="Ellipse 45" cx="5.133" cy="4.502" rx="5.133" ry="4.502" fill="#353535"/>
        <ellipse id="Ellipse_46" data-name="Ellipse 46" cx="5.133" cy="4.502" rx="5.133" ry="4.502" transform="translate(39.742)" fill="#353535"/>
        <ellipse id="Ellipse_47" data-name="Ellipse 47" cx="5.133" cy="4.502" rx="5.133" ry="4.502" transform="translate(79.485)" fill="#353535"/>
        <ellipse id="Ellipse_48" data-name="Ellipse 48" cx="5.133" cy="4.502" rx="5.133" ry="4.502" transform="translate(119.227)" fill="#353535"/>
      </g>
    </g>
    <g id="Groupe_54" data-name="Groupe 54" transform="translate(1847.912 327.416)">
      <ellipse id="Ellipse_53" data-name="Ellipse 53" cx="5.133" cy="4.502" rx="5.133" ry="4.502" transform="translate(0)" fill="#ffc248"/>
      <ellipse id="Ellipse_54" data-name="Ellipse 54" cx="5.133" cy="4.502" rx="5.133" ry="4.502" transform="translate(0 34.855)" fill="#ffc248"/>
      <ellipse id="Ellipse_55" data-name="Ellipse 55" cx="5.133" cy="4.502" rx="5.133" ry="4.502" transform="translate(0 69.711)" fill="#ffc248"/>
      <ellipse id="Ellipse_56" data-name="Ellipse 56" cx="5.133" cy="4.502" rx="5.133" ry="4.502" transform="translate(0 104.566)" fill="#ffc248"/>
    </g>
    <g id="Groupe_55" data-name="Groupe 55" transform="translate(1232.495 28.844)">
      <line id="Ligne_1" data-name="Ligne 1" x2="35.414" transform="translate(0 15.529)" fill="none" stroke="#353535" stroke-miterlimit="10" stroke-width="0.5"/>
      <line id="Ligne_2" data-name="Ligne 2" y1="31.059" transform="translate(17.707)" fill="none" stroke="#353535" stroke-miterlimit="10" stroke-width="0.5"/>
    </g>
    <g id="Groupe_56" data-name="Groupe 56" transform="translate(349.295 1028.394)">
      <line id="Ligne_3" data-name="Ligne 3" x2="35.414" transform="translate(0 15.529)" fill="none" stroke="#353535" stroke-miterlimit="10" stroke-width="0.5"/>
      <line id="Ligne_4" data-name="Ligne 4" y1="31.059" transform="translate(17.707)" fill="none" stroke="#353535" stroke-miterlimit="10" stroke-width="0.5"/>
    </g>
    <g id="Groupe_57" data-name="Groupe 57" transform="translate(1626.948 979.217)">
      <line id="Ligne_5" data-name="Ligne 5" x2="35.413" transform="translate(0 15.529)" fill="none" stroke="#353535" stroke-miterlimit="10" stroke-width="0.5"/>
      <line id="Ligne_6" data-name="Ligne 6" y1="31.059" transform="translate(17.707)" fill="none" stroke="#353535" stroke-miterlimit="10" stroke-width="0.5"/>
    </g>
    <g id="Groupe_58" data-name="Groupe 58" transform="translate(349.295 63.699)">
      <line id="Ligne_7" data-name="Ligne 7" x2="35.414" transform="translate(0 15.529)" fill="none" stroke="#353535" stroke-miterlimit="10" stroke-width="0.5"/>
      <line id="Ligne_8" data-name="Ligne 8" y1="31.059" transform="translate(17.707)" fill="none" stroke="#353535" stroke-miterlimit="10" stroke-width="0.5"/>
    </g>
    <g id="Groupe_59" data-name="Groupe 59" transform="translate(1767.535 634.579)">
      <line id="Ligne_9" data-name="Ligne 9" x2="35.414" transform="translate(0 15.529)" fill="none" stroke="#353535" stroke-miterlimit="10" stroke-width="0.5"/>
      <line id="Ligne_10" data-name="Ligne 10" y1="31.059" transform="translate(17.707)" fill="none" stroke="#353535" stroke-miterlimit="10" stroke-width="0.5"/>
    </g>
    <g id="Groupe_66" data-name="Groupe 66" transform="translate(349.295 1638.511)">
      <line id="Ligne_9-2" data-name="Ligne 9" x2="35.414" transform="translate(0 15.529)" fill="none" stroke="#353535" stroke-miterlimit="10" stroke-width="0.5"/>
      <line id="Ligne_10-2" data-name="Ligne 10" y1="31.059" transform="translate(17.707)" fill="none" stroke="#353535" stroke-miterlimit="10" stroke-width="0.5"/>
    </g>
    <g id="Groupe_60" data-name="Groupe 60" transform="translate(70.851 390.601)">
      <line id="Ligne_11" data-name="Ligne 11" x2="35.414" transform="translate(0 15.529)" fill="none" stroke="#353535" stroke-miterlimit="10" stroke-width="0.5"/>
      <line id="Ligne_12" data-name="Ligne 12" y1="31.059" transform="translate(17.707)" fill="none" stroke="#353535" stroke-miterlimit="10" stroke-width="0.5"/>
    </g>
  </g>
</svg>
