<svg xmlns="http://www.w3.org/2000/svg" xmlns:xlink="http://www.w3.org/1999/xlink" width="1920" height="1681" viewBox="0 0 1920 1681">
  <defs>
    <clipPath id="clip-path">
      <rect id="Rectangle_41" data-name="Rectangle 41" width="1920" height="1681" fill="none"/>
    </clipPath>
  </defs>
  <g id="Groupe_62" data-name="Groupe 62" transform="translate(739.729 -406)">
    <g id="Groupe_61" data-name="Groupe 61" transform="translate(-739.729 406)" clip-path="url(#clip-path)">
      <g id="Groupe_34" data-name="Groupe 34" transform="translate(-249.793 -177.35)">
        <path id="Tracé_46" data-name="Tracé 46" d="M-837.3,703.025s20.193-466.89,330.173-225.829,198.2-193.466,384.154-3.718,300.032-257.762,749.76-123.985" transform="translate(837.304 -324.096)" fill="none" stroke="#2d2d2d" stroke-miterlimit="10" stroke-width="0.167"/>
        <path id="Tracé_47" data-name="Tracé 47" d="M-837.224,705.89S-813.751,244.6-505.348,483.972s201.61-195.127,390.449-7,301.88-258.868,741.832-128" transform="translate(837.429 -323.546)" fill="none" stroke="#2c2c2c" stroke-miterlimit="10" stroke-width="0.166"/>
        <path id="Tracé_48" data-name="Tracé 48" d="M-837.143,708.76S-810.4,253.076-503.565,490.754s205.015-196.79,396.739-10.277S196.9,220.508,627.08,348.468" transform="translate(837.555 -323.004)" fill="none" stroke="#2b2b2b" stroke-miterlimit="10" stroke-width="0.166"/>
        <path id="Tracé_49" data-name="Tracé 49" d="M-837.063,711.642S-807.04,261.56-501.78,497.549-293.36,299.1-98.749,483.99,206.828,222.917,627.229,347.968" transform="translate(837.68 -322.47)" fill="none" stroke="#2a2a2a" stroke-miterlimit="10" stroke-width="0.165"/>
        <path id="Tracé_50" data-name="Tracé 50" d="M-836.983,714.53S-803.682,270.052-500,504.35s211.83-200.114,409.326-16.84S216.754,225.333,627.378,347.478" transform="translate(837.805 -321.947)" fill="none" stroke="#292929" stroke-miterlimit="10" stroke-width="0.164"/>
        <path id="Tracé_51" data-name="Tracé 51" d="M-836.9,717.427s36.575-438.874,338.688-206.268S-282.98,309.385-82.6,491.039,226.678,227.761,627.525,346.995" transform="translate(837.931 -321.431)" fill="none" stroke="#282828" stroke-miterlimit="10" stroke-width="0.164"/>
        <path id="Tracé_52" data-name="Tracé 52" d="M-836.822,720.335s39.852-433.273,340.393-202.357,218.639-203.438,421.909-23.4S236.6,230.194,627.675,346.522" transform="translate(838.056 -320.924)" fill="none" stroke="#272727" stroke-miterlimit="10" stroke-width="0.163"/>
        <path id="Tracé_53" data-name="Tracé 53" d="M-836.742,723.25s43.128-427.669,342.1-198.442,222.044-205.1,428.2-26.683S246.53,232.639,627.824,346.058" transform="translate(838.181 -320.426)" fill="none" stroke="#262626" stroke-miterlimit="10" stroke-width="0.163"/>
        <path id="Tracé_54" data-name="Tracé 54" d="M-836.661,726.174s46.4-422.065,343.8-194.529,225.451-206.761,434.5-29.964S256.454,235.093,627.971,345.6" transform="translate(838.307 -319.937)" fill="none" stroke="#252525" stroke-miterlimit="10" stroke-width="0.162"/>
        <path id="Tracé_55" data-name="Tracé 55" d="M-836.581,729.11s49.679-416.463,345.5-190.619,228.859-208.422,440.786-33.244S266.38,237.555,628.12,345.157" transform="translate(838.432 -319.459)" fill="none" stroke="#242424" stroke-miterlimit="10" stroke-width="0.161"/>
        <path id="Tracé_56" data-name="Tracé 56" d="M-836.5,732.053s52.956-410.859,347.208-186.7S-257.03,335.264-42.215,508.824s318.52-268.8,670.484-164.1" transform="translate(838.557 -318.989)" fill="none" stroke="#232323" stroke-miterlimit="10" stroke-width="0.161"/>
        <path id="Tracé_57" data-name="Tracé 57" d="M-836.421,735.006s56.236-405.255,348.913-182.791S-251.84,340.467-34.138,512.409,286.231,242.509,628.416,344.3" transform="translate(838.682 -318.53)" fill="none" stroke="#222" stroke-miterlimit="10" stroke-width="0.16"/>
        <path id="Tracé_58" data-name="Tracé 58" d="M-836.34,737.97s59.51-399.656,350.612-178.88S-246.652,345.68-26.062,516,296.155,245,628.564,343.879" transform="translate(838.808 -318.079)" fill="none" stroke="#212121" stroke-miterlimit="10" stroke-width="0.16"/>
        <path id="Tracé_59" data-name="Tracé 59" d="M-836.26,740.942s62.786-394.052,352.317-174.966S-241.46,350.9-17.987,519.608s324.068-272.1,646.7-176.137" transform="translate(838.933 -317.638)" fill="none" stroke="#202020" stroke-miterlimit="10" stroke-width="0.159"/>
        <path id="Tracé_60" data-name="Tracé 60" d="M-836.18,743.926s66.063-388.45,354.022-171.055S-236.27,356.138-9.909,523.222,316.007,250.013,628.862,343.075" transform="translate(839.058 -317.208)" fill="none" stroke="#1f1f1f" stroke-miterlimit="10" stroke-width="0.158"/>
        <path id="Tracé_61" data-name="Tracé 61" d="M-836.1,746.918s69.338-382.846,355.722-167.142,249.3-218.393,478.543-52.929,327.764-274.311,630.843-184.16" transform="translate(839.184 -316.786)" fill="none" stroke="#1e1e1e" stroke-miterlimit="10" stroke-width="0.158"/>
        <path id="Tracé_62" data-name="Tracé 62" d="M-836.019,749.92S-763.4,372.677-478.592,586.69s252.7-220.057,484.833-56.21,329.615-275.415,622.917-188.17" transform="translate(839.309 -316.376)" fill="none" stroke="#1d1d1d" stroke-miterlimit="10" stroke-width="0.157"/>
        <path id="Tracé_63" data-name="Tracé 63" d="M-835.939,752.934s75.891-371.641,359.132-159.317S-220.7,371.9,14.319,534.125s331.464-276.518,614.989-192.18" transform="translate(839.433 -315.976)" fill="none" stroke="#1c1c1c" stroke-miterlimit="10" stroke-width="0.156"/>
        <path id="Tracé_64" data-name="Tracé 64" d="M-835.858,755.958s79.165-366.037,360.835-155.4,259.512-223.38,497.418-62.773,333.312-277.622,607.06-196.192" transform="translate(839.56 -315.587)" fill="none" stroke="#1b1b1b" stroke-miterlimit="10" stroke-width="0.156"/>
        <path id="Tracé_65" data-name="Tracé 65" d="M-835.778,758.991S-753.336,398.557-473.241,607.5s262.92-225.041,503.713-66.054,335.16-278.724,599.132-200.2" transform="translate(839.685 -315.207)" fill="none" stroke="#1a1a1a" stroke-miterlimit="10" stroke-width="0.155"/>
        <path id="Tracé_66" data-name="Tracé 66" d="M-835.7,762.037s85.719-354.831,364.242-147.578,266.325-226.7,510-69.334S375.558,265.3,629.753,340.908" transform="translate(839.809 -314.839)" fill="none" stroke="#191919" stroke-miterlimit="10" stroke-width="0.155"/>
        <path id="Tracé_67" data-name="Tracé 67" d="M-835.617,765.092s88.993-349.227,365.944-143.666,269.729-228.367,516.3-72.615S385.482,267.879,629.9,340.585" transform="translate(839.936 -314.481)" fill="none" stroke="#181818" stroke-miterlimit="10" stroke-width="0.154"/>
        <path id="Tracé_68" data-name="Tracé 68" d="M-835.537,768.159s92.273-343.624,367.649-139.753S-194.751,398.378,54.7,552.511s340.705-282.035,575.347-212.24" transform="translate(840.061 -314.136)" fill="none" stroke="#171717" stroke-miterlimit="10" stroke-width="0.153"/>
        <path id="Tracé_69" data-name="Tracé 69" d="M-835.457,771.238S-739.908,433.216-466.105,635.4-189.561,403.707,62.778,556.22,405.331,273.081,630.2,339.971" transform="translate(840.185 -313.8)" fill="none" stroke="#161616" stroke-miterlimit="10" stroke-width="0.153"/>
        <path id="Tracé_70" data-name="Tracé 70" d="M-835.377,774.328S-736.551,441.908-464.32,642.4s279.949-233.352,535.173-82.458S415.257,275.7,630.346,339.68" transform="translate(840.31 -313.477)" fill="none" stroke="#161616" stroke-miterlimit="10" stroke-width="0.152"/>
        <path id="Tracé_71" data-name="Tracé 71" d="M-835.3,777.43s102.1-326.819,372.759-128.017S-179.183,414.4,78.929,563.674,425.181,278.331,630.493,339.4" transform="translate(840.437 -313.164)" fill="none" stroke="#151515" stroke-miterlimit="10" stroke-width="0.152"/>
        <path id="Tracé_72" data-name="Tracé 72" d="M-835.216,780.542s105.377-321.215,374.461-124.1,286.764-236.676,547.761-89.019,348.1-286.448,543.636-228.285" transform="translate(840.561 -312.864)" fill="none" stroke="#141414" stroke-miterlimit="10" stroke-width="0.151"/>
        <path id="Tracé_73" data-name="Tracé 73" d="M-835.136,783.666S-726.482,468.055-458.97,663.474s290.168-238.336,554.051-92.3,349.952-287.55,535.711-232.3" transform="translate(840.686 -312.575)" fill="none" stroke="#131313" stroke-miterlimit="10" stroke-width="0.15"/>
        <path id="Tracé_74" data-name="Tracé 74" d="M-835.055,786.8S-723.127,476.8-457.186,670.526s293.573-240,560.343-95.58,351.8-288.657,527.782-236.31" transform="translate(840.812 -312.299)" fill="none" stroke="#121212" stroke-miterlimit="10" stroke-width="0.15"/>
        <path id="Tracé_75" data-name="Tracé 75" d="M-834.975,789.952S-719.77,485.547-455.4,677.586s296.978-241.66,566.635-98.86,353.649-289.759,519.854-240.32" transform="translate(840.937 -312.034)" fill="none" stroke="#111" stroke-miterlimit="10" stroke-width="0.149"/>
        <path id="Tracé_76" data-name="Tracé 76" d="M-834.895,793.113s118.482-298.8,381.276-108.453,300.388-243.321,572.93-102.141,355.5-290.861,511.926-244.332" transform="translate(841.062 -311.782)" fill="none" stroke="#101010" stroke-miterlimit="10" stroke-width="0.149"/>
        <path id="Tracé_77" data-name="Tracé 77" d="M-834.814,796.288s121.756-293.2,382.978-104.54,303.793-244.986,579.221-105.424,357.348-291.965,504-248.342" transform="translate(841.188 -311.542)" fill="none" stroke="#0f0f0f" stroke-miterlimit="10" stroke-width="0.148"/>
        <path id="Tracé_78" data-name="Tracé 78" d="M-834.734,799.473S-709.7,511.877-450.05,698.846s307.2-246.647,585.513-108.7,359.2-293.067,496.072-252.353" transform="translate(841.313 -311.315)" fill="none" stroke="#0e0e0e" stroke-miterlimit="10" stroke-width="0.147"/>
        <path id="Tracé_79" data-name="Tracé 79" d="M-834.654,802.673s128.312-281.992,386.386-96.715,310.6-248.308,591.808-111.985S504.584,299.8,631.681,337.608" transform="translate(841.438 -311.102)" fill="none" stroke="#0d0d0d" stroke-miterlimit="10" stroke-width="0.147"/>
        <path id="Tracé_80" data-name="Tracé 80" d="M-834.573,805.886s131.587-276.39,388.088-92.8,314.01-249.971,598.1-115.267,362.9-295.274,480.215-260.375" transform="translate(841.564 -310.901)" fill="none" stroke="#0c0c0c" stroke-miterlimit="10" stroke-width="0.146"/>
        <path id="Tracé_81" data-name="Tracé 81" d="M-834.493,809.112S-699.63,538.326-444.7,720.223s317.417-251.634,604.39-118.548S524.434,305.3,631.977,337.288" transform="translate(841.689 -310.714)" fill="none" stroke="#0b0b0b" stroke-miterlimit="10" stroke-width="0.146"/>
        <path id="Tracé_82" data-name="Tracé 82" d="M-834.413,812.352s138.14-265.186,391.5-84.979,320.822-253.294,610.683-121.828,366.592-297.48,464.358-268.4" transform="translate(841.814 -310.54)" fill="none" stroke="#0a0a0a" stroke-miterlimit="10" stroke-width="0.145"/>
        <path id="Tracé_83" data-name="Tracé 83" d="M-834.333,815.605s141.417-259.582,393.2-81.066S-116.9,479.584,175.846,609.431s368.44-298.582,456.43-272.41" transform="translate(841.939 -310.38)" fill="none" stroke="#090909" stroke-miterlimit="10" stroke-width="0.144"/>
        <path id="Tracé_84" data-name="Tracé 84" d="M-834.252,818.871s144.691-253.979,394.9-77.151S-111.715,485.1,183.919,613.331s370.291-299.689,448.5-276.422" transform="translate(842.065 -310.234)" fill="none" stroke="#080808" stroke-miterlimit="10" stroke-width="0.144"/>
        <path id="Tracé_85" data-name="Tracé 85" d="M-834.172,822.155s147.968-248.377,396.608-73.24S-106.523,490.636,192,617.245,564.136,316.454,632.572,336.81" transform="translate(842.19 -310.103)" fill="none" stroke="#070707" stroke-miterlimit="10" stroke-width="0.143"/>
        <path id="Tracé_86" data-name="Tracé 86" d="M-834.092,825.45s151.245-242.773,398.313-69.328,334.446-259.94,635.853-134.95,373.988-301.9,432.648-284.445" transform="translate(842.315 -309.985)" fill="none" stroke="#060606" stroke-miterlimit="10" stroke-width="0.143"/>
        <path id="Tracé_87" data-name="Tracé 87" d="M-834.011,828.76S-679.492,591.591-434,763.347-96.145,501.742,208.147,625.114s375.839-303,424.722-288.457" transform="translate(842.441 -309.883)" fill="none" stroke="#050505" stroke-miterlimit="10" stroke-width="0.142"/>
        <path id="Tracé_88" data-name="Tracé 88" d="M-833.931,832.086s157.8-231.568,401.718-61.5S-90.955,507.318,216.225,629.071,593.909,324.971,633.018,336.6" transform="translate(842.566 -309.794)" fill="none" stroke="#040404" stroke-miterlimit="10" stroke-width="0.141"/>
        <path id="Tracé_89" data-name="Tracé 89" d="M-833.851,835.426s161.075-225.964,403.423-57.589S-85.765,512.91,224.3,633.043s379.533-305.2,408.865-296.48" transform="translate(842.691 -309.722)" fill="none" stroke="#030303" stroke-miterlimit="10" stroke-width="0.141"/>
        <path id="Tracé_90" data-name="Tracé 90" d="M-833.77,838.781s164.349-220.36,405.123-53.677S-80.574,518.517,232.378,637.03,613.759,330.724,633.312,336.54" transform="translate(842.817 -309.664)" fill="none" stroke="#020202" stroke-miterlimit="10" stroke-width="0.14"/>
        <path id="Tracé_91" data-name="Tracé 91" d="M-833.69,842.154S-666.064,627.4-426.863,792.391-75.385,524.138,240.453,641.033s383.232-307.41,393.009-304.5" transform="translate(842.942 -309.622)" fill="none" stroke="#010101" stroke-miterlimit="10" stroke-width="0.139"/>
        <path id="Tracé_92" data-name="Tracé 92" d="M-833.61,845.54s170.9-209.154,408.533-45.851S-70.2,529.776,248.53,645.052,633.61,336.539,633.61,336.539" transform="translate(843.067 -309.595)" fill="none" stroke="#000" stroke-miterlimit="10" stroke-width="0.139"/>
      </g>
      <g id="Groupe_35" data-name="Groupe 35" transform="translate(1232.495 1379.149) rotate(-42)">
        <path id="Tracé_93" data-name="Tracé 93" d="M-395.56,1261.865s-146.491-288.089,161.541-270.92,97.582-405.2,489.19-208.015,188.577-175.741,472.65,21.028" transform="translate(430.371 -730.368)" fill="none" stroke="#2d2d2d" stroke-miterlimit="10" stroke-width="0.239"/>
        <path id="Tracé_94" data-name="Tracé 94" d="M-395.44,1260.071s-142.917-289.2,163.523-270.08,100.989-401.522,486.889-202.675C641.012,986.555,445.2,608.528,726.36,805.847" transform="translate(432.937 -726.376)" fill="none" stroke="#2d2d2d" stroke-miterlimit="10" stroke-width="0.239"/>
        <path id="Tracé_95" data-name="Tracé 95" d="M-395.308,1258.283S-534.651,967.97-229.8,989.045s104.4-397.848,484.59-197.34c380.472,201.3,191.88-181.83,470.126,16.039" transform="translate(435.49 -722.39)" fill="none" stroke="#2d2d2d" stroke-miterlimit="10" stroke-width="0.239"/>
        <path id="Tracé_96" data-name="Tracé 96" d="M-395.162,1256.5s-135.77-291.426,167.485-268.4,107.8-394.173,482.289-192c374.9,203.353,193.531-184.874,468.864,13.544" transform="translate(438.03 -718.41)" fill="none" stroke="#2d2d2d" stroke-miterlimit="10" stroke-width="0.239"/>
        <path id="Tracé_97" data-name="Tracé 97" d="M-395,1254.724S-527.2,962.186-225.537,987.17s111.211-390.5,479.987-186.665c369.336,205.408,195.182-187.919,467.6,11.05" transform="translate(440.557 -714.435)" fill="none" stroke="#2d2d2d" stroke-miterlimit="10" stroke-width="0.239"/>
        <path id="Tracé_98" data-name="Tracé 98" d="M-394.827,1252.952S-523.452,959.3-223.384,986.239-108.763,599.417,254.3,804.912c363.771,207.465,196.833-190.963,466.342,8.555" transform="translate(443.068 -710.466)" fill="none" stroke="#2d2d2d" stroke-miterlimit="10" stroke-width="0.239"/>
        <path id="Tracé_99" data-name="Tracé 99" d="M-394.639,1251.318S-519.69,956.558-221.214,985.448s118.543-383.782,475.389-175.99c358.72,208.883,198.482-194.008,465.08,6.061" transform="translate(445.566 -706.634)" fill="none" stroke="#2d2d2d" stroke-miterlimit="10" stroke-width="0.239"/>
        <path id="Tracé_100" data-name="Tracé 100" d="M-394.434,1249.578s-121.48-295.872,175.4-265.029,122.038-380.2,473.088-170.654c353.239,210.852,200.133-197.05,463.818,3.569" transform="translate(448.049 -702.695)" fill="none" stroke="#2d2d2d" stroke-miterlimit="10" stroke-width="0.239"/>
        <path id="Tracé_101" data-name="Tracé 101" d="M-394.215,1247.843S-512.121,950.86-216.83,983.656-91.3,607.05,253.957,818.339c347.761,212.822,201.784-200.094,462.559,1.074" transform="translate(450.515 -698.763)" fill="none" stroke="#2d2d2d" stroke-miterlimit="10" stroke-width="0.239"/>
        <path id="Tracé_102" data-name="Tracé 102" d="M-393.979,1246.111s-114.332-298.1,179.366-263.346S-85.589,609.758,253.872,822.788c342.282,214.8,203.436-203.141,461.3-1.423" transform="translate(452.965 -694.833)" fill="none" stroke="#2d2d2d" stroke-miterlimit="10" stroke-width="0.239"/>
        <path id="Tracé_103" data-name="Tracé 103" d="M-393.727,1244.385s-110.758-299.206,181.348-262.5S-79.863,612.475,253.807,827.24c336.8,216.78,205.084-206.183,460.035-3.915" transform="translate(455.398 -690.91)" fill="none" stroke="#2d2d2d" stroke-miterlimit="10" stroke-width="0.239"/>
        <path id="Tracé_104" data-name="Tracé 104" d="M-393.455,1242.663S-500.643,942.346-210.129,981-74.121,615.2,253.756,831.7c331.318,218.766,206.735-209.228,458.772-6.409" transform="translate(457.814 -686.99)" fill="none" stroke="#2d2d2d" stroke-miterlimit="10" stroke-width="0.239"/>
        <path id="Tracé_105" data-name="Tracé 105" d="M-393.167,1240.947s-103.613-301.43,185.308-260.819,139.5-362.185,461.583-143.967c325.837,220.758,208.387-212.274,457.51-8.906" transform="translate(460.212 -683.075)" fill="none" stroke="#2d2d2d" stroke-miterlimit="10" stroke-width="0.239"/>
        <path id="Tracé_106" data-name="Tracé 106" d="M-392.86,1239.672S-492.9,937.131-205.57,979.693-62.584,621.127,253.711,841.064c320.353,222.759,210.038-215.317,456.251-11.4" transform="translate(462.59 -679.603)" fill="none" stroke="#2d2d2d" stroke-miterlimit="10" stroke-width="0.239"/>
        <path id="Tracé_107" data-name="Tracé 107" d="M-392.532,1238.576S-489,934.924-203.264,979.441-56.791,624.5,253.719,846.149c314.867,224.76,211.686-218.361,454.986-13.893" transform="translate(464.95 -676.311)" fill="none" stroke="#2d2d2d" stroke-miterlimit="10" stroke-width="0.239"/>
        <path id="Tracé_108" data-name="Tracé 108" d="M-392.186,1237.483s-92.9-304.762,191.247-258.292,149.96-351.313,454.684-127.954c309.381,226.769,213.338-221.406,453.727-16.387" transform="translate(467.289 -673.021)" fill="none" stroke="#2d2d2d" stroke-miterlimit="10" stroke-width="0.239"/>
        <path id="Tracé_109" data-name="Tracé 109" d="M-391.818,1236.395s-89.324-305.873,193.229-257.45S-45.145,631.268,253.794,856.326c303.892,228.785,214.989-224.448,452.465-18.882" transform="translate(469.607 -669.734)" fill="none" stroke="#2d2d2d" stroke-miterlimit="10" stroke-width="0.239"/>
        <path id="Tracé_110" data-name="Tracé 110" d="M-391.429,1235.308s-85.75-306.986,195.21-256.61S-39.3,634.666,253.865,861.42c298.4,230.805,216.637-227.494,451.2-21.376" transform="translate(471.903 -666.45)" fill="none" stroke="#2d2d2d" stroke-miterlimit="10" stroke-width="0.239"/>
        <path id="Tracé_111" data-name="Tracé 111" d="M-391.015,1234.224s-82.179-308.1,197.189-255.767,160.4-340.386,447.782-111.944c292.9,232.834,218.289-230.537,449.94-23.868" transform="translate(474.178 -663.168)" fill="none" stroke="#2d2d2d" stroke-miterlimit="10" stroke-width="0.239"/>
        <path id="Tracé_112" data-name="Tracé 112" d="M-390.58,1233.141s-78.6-309.21,199.171-254.925S-27.537,641.482,254.071,871.61c287.406,234.865,219.94-233.581,448.681-26.363" transform="translate(476.428 -659.887)" fill="none" stroke="#2d2d2d" stroke-miterlimit="10" stroke-width="0.239"/>
        <path id="Tracé_113" data-name="Tracé 113" d="M-390.121,1232.061S-465.152,921.74-188.969,977.978-21.627,644.9,254.21,876.71c281.9,236.9,221.591-236.626,447.419-28.858" transform="translate(478.654 -656.609)" fill="none" stroke="#2d2d2d" stroke-miterlimit="10" stroke-width="0.239"/>
        <path id="Tracé_114" data-name="Tracé 114" d="M-389.637,1230.984S-461.094,919.552-186.5,977.741-15.7,648.333,254.377,881.81c276.4,238.949,223.24-239.67,446.157-31.352" transform="translate(480.855 -653.335)" fill="none" stroke="#2d2d2d" stroke-miterlimit="10" stroke-width="0.239"/>
        <path id="Tracé_115" data-name="Tracé 115" d="M-389.125,1229.908s-67.886-312.545,205.112-252.4S-9.743,651.77,254.566,886.915c270.886,241,224.891-242.715,444.895-33.846" transform="translate(483.032 -650.061)" fill="none" stroke="#2d2d2d" stroke-miterlimit="10" stroke-width="0.239"/>
        <path id="Tracé_116" data-name="Tracé 116" d="M-388.588,1228.834S-452.9,915.179-181.495,977.276-3.769,655.213,254.783,892.02c265.375,243.052,226.542-245.759,443.635-36.341" transform="translate(485.18 -646.789)" fill="none" stroke="#2d2d2d" stroke-miterlimit="10" stroke-width="0.239"/>
        <path id="Tracé_117" data-name="Tracé 117" d="M-388.024,1227.762S-448.762,913-178.951,977.047,2.228,658.665,255.028,897.127c259.855,245.114,228.193-248.8,442.373-38.833" transform="translate(487.301 -643.52)" fill="none" stroke="#2d2d2d" stroke-miterlimit="10" stroke-width="0.239"/>
        <path id="Tracé_118" data-name="Tracé 118" d="M-387.429,1226.693S-444.6,910.814-176.378,976.818,8.247,662.125,255.3,902.237c254.326,247.179,229.842-251.848,441.111-41.33" transform="translate(489.395 -640.252)" fill="none" stroke="#2d2d2d" stroke-miterlimit="10" stroke-width="0.239"/>
        <path id="Tracé_119" data-name="Tracé 119" d="M-386.807,1225.625S-440.4,908.635-173.774,976.592s188.065-311,429.379-69.245C504.4,1156.6,487.1,652.457,695.454,863.525" transform="translate(491.458 -636.987)" fill="none" stroke="#2d2d2d" stroke-miterlimit="10" stroke-width="0.239"/>
        <path id="Tracé_120" data-name="Tracé 120" d="M-386.154,1224.559s-50.022-318.1,215.014-248.191,191.5-307.3,427.077-63.908c243.259,251.33,233.144-257.935,438.587-46.316" transform="translate(493.49 -633.723)" fill="none" stroke="#2d2d2d" stroke-miterlimit="10" stroke-width="0.239"/>
        <path id="Tracé_121" data-name="Tracé 121" d="M-385.47,1223.5s-46.449-319.214,217-247.349,194.926-303.6,424.778-58.57C494.015,1170.988,491.1,656.6,693.629,868.766" transform="translate(495.492 -630.461)" fill="none" stroke="#2d2d2d" stroke-miterlimit="10" stroke-width="0.239"/>
        <path id="Tracé_122" data-name="Tracé 122" d="M-384.754,1222.434s-42.877-320.325,218.975-246.506S32.567,676.033,256.7,922.693c232.161,255.5,236.444-264.024,436.063-51.305" transform="translate(497.463 -627.202)" fill="none" stroke="#2d2d2d" stroke-miterlimit="10" stroke-width="0.239"/>
        <path id="Tracé_123" data-name="Tracé 123" d="M-384.006,1221.373s-39.3-321.438,220.956-245.666,201.759-296.181,420.175-47.9c226.6,257.593,238.1-267.068,434.8-53.8" transform="translate(499.401 -623.944)" fill="none" stroke="#2d2d2d" stroke-miterlimit="10" stroke-width="0.239"/>
        <path id="Tracé_124" data-name="Tracé 124" d="M-383.226,1220.315s-35.73-322.548,222.938-244.824,205.164-292.465,417.874-42.56c221.035,259.689,239.747-270.11,433.541-56.292" transform="translate(501.306 -620.688)" fill="none" stroke="#2d2d2d" stroke-miterlimit="10" stroke-width="0.239"/>
        <path id="Tracé_125" data-name="Tracé 125" d="M-382.411,1219.257S-414.57,895.6-157.495,975.276,51.069,686.53,258.08,938.054c215.46,261.789,241.4-273.155,432.279-58.787" transform="translate(503.18 -617.432)" fill="none" stroke="#2d2d2d" stroke-miterlimit="10" stroke-width="0.239"/>
        <path id="Tracé_126" data-name="Tracé 126" d="M-381.565,1218.2s-28.585-324.77,226.9-243.137S57.286,690.041,258.607,943.179c209.877,263.894,243.046-276.2,431.017-61.283" transform="translate(505.019 -614.18)" fill="none" stroke="#2d2d2d" stroke-miterlimit="10" stroke-width="0.239"/>
        <path id="Tracé_127" data-name="Tracé 127" d="M-380.685,1217.147S-405.7,891.266-151.808,974.85,63.526,693.555,259.166,948.3c204.283,266,244.7-279.244,429.757-63.776" transform="translate(506.825 -610.927)" fill="none" stroke="#2d2d2d" stroke-miterlimit="10" stroke-width="0.239"/>
        <path id="Tracé_128" data-name="Tracé 128" d="M-379.773,1216.094S-401.211,889.1-148.915,974.64,69.793,697.076,259.758,953.43c198.682,268.114,246.349-282.288,428.5-66.27" transform="translate(508.598 -607.678)" fill="none" stroke="#2d2d2d" stroke-miterlimit="10" stroke-width="0.239"/>
        <path id="Tracé_129" data-name="Tracé 129" d="M-378.83,1215.044s-17.866-328.1,232.837-240.612S76.077,700.6,260.382,958.56c193.07,270.227,248-285.335,427.233-68.765" transform="translate(510.343 -604.43)" fill="none" stroke="#2d2d2d" stroke-miterlimit="10" stroke-width="0.239"/>
        <path id="Tracé_130" data-name="Tracé 130" d="M-377.858,1214S-392.15,884.78-143.039,974.226s225.426-270.1,404.073-10.536C448.482,1236.036,510.682,675.312,687,892.43" transform="translate(512.056 -601.183)" fill="none" stroke="#2d2d2d" stroke-miterlimit="10" stroke-width="0.239"/>
        <path id="Tracé_131" data-name="Tracé 131" d="M-376.86,1212.948s-10.719-330.326,236.8-238.93,228.769-266.356,401.772-5.2c181.819,274.465,251.3-291.422,424.712-73.754" transform="translate(513.743 -597.938)" fill="none" stroke="#2d2d2d" stroke-miterlimit="10" stroke-width="0.239"/>
        <path id="Tracé_132" data-name="Tracé 132" d="M-375.839,1211.9s-7.145-331.439,238.781-238.087,232.1-262.616,399.47.141c176.177,276.587,252.951-294.466,423.45-76.248" transform="translate(515.408 -594.694)" fill="none" stroke="#2d2d2d" stroke-miterlimit="10" stroke-width="0.239"/>
        <path id="Tracé_133" data-name="Tracé 133" d="M-374.8,1210.858s-3.574-332.55,240.76-237.245,235.43-258.877,397.171,5.476c170.524,278.711,254.6-297.511,422.187-78.74" transform="translate(517.058 -591.452)" fill="none" stroke="#2d2d2d" stroke-miterlimit="10" stroke-width="0.239"/>
        <path id="Tracé_134" data-name="Tracé 134" d="M-373.753,1209.816s0-333.663,242.742-236.4,238.746-255.137,394.87,10.814C428.72,1265.06,520.109,683.671,684.784,902.99" transform="translate(518.696 -588.212)" fill="none" stroke="#2d2d2d" stroke-miterlimit="10" stroke-width="0.239"/>
        <path id="Tracé_135" data-name="Tracé 135" d="M-372.7,1208.774S-369.133,874-127.981,973.214s242.053-251.4,392.568,16.149c159.189,282.959,257.9-303.6,419.663-83.729" transform="translate(520.332 -584.972)" fill="none" stroke="#2d2d2d" stroke-miterlimit="10" stroke-width="0.239"/>
        <path id="Tracé_136" data-name="Tracé 136" d="M-371.654,1207.734s7.142-335.885,246.7-234.72S120.4,725.362,265.317,994.5c153.5,285.084,259.551-306.642,418.4-86.224" transform="translate(521.97 -581.734)" fill="none" stroke="#2d2d2d" stroke-miterlimit="10" stroke-width="0.239"/>
        <path id="Tracé_137" data-name="Tracé 137" d="M-370.605,1206.7s10.716-337,248.681-233.878,248.637-243.912,387.97,26.826c147.809,287.208,261.2-309.688,417.139-88.718" transform="translate(523.607 -578.498)" fill="none" stroke="#2d2d2d" stroke-miterlimit="10" stroke-width="0.239"/>
        <path id="Tracé_138" data-name="Tracé 138" d="M-369.556,1205.659s14.29-338.108,250.662-233.035,251.914-240.17,385.669,32.162c142.1,289.332,262.853-312.731,415.88-91.213" transform="translate(525.243 -575.265)" fill="none" stroke="#2d2d2d" stroke-miterlimit="10" stroke-width="0.239"/>
        <path id="Tracé_139" data-name="Tracé 139" d="M-368.507,1204.623S-350.643,865.4-115.863,972.43,139.318,736,267.5,1009.929c136.389,291.454,264.5-315.775,414.618-93.707" transform="translate(526.88 -572.03)" fill="none" stroke="#2d2d2d" stroke-miterlimit="10" stroke-width="0.239"/>
        <path id="Tracé_140" data-name="Tracé 140" d="M-367.457,1203.589s21.435-340.332,254.623-231.353,258.437-232.7,381.069,42.839c130.66,293.574,266.153-318.82,413.355-96.2" transform="translate(528.517 -568.798)" fill="none" stroke="#2d2d2d" stroke-miterlimit="10" stroke-width="0.239"/>
        <path id="Tracé_141" data-name="Tracé 141" d="M-366.408,1202.55S-341.4,861.108-109.8,972.04s261.151-228.8,378.767,48.174c124.349,295.867,267.8-321.864,412.093-98.7" transform="translate(530.154 -565.563)" fill="none" stroke="#2d2d2d" stroke-miterlimit="10" stroke-width="0.239"/>
        <path id="Tracé_142" data-name="Tracé 142" d="M-365.359,1201.521s28.582-342.556,258.586-229.668,264.558-225.123,376.466,53.512c118.784,297.922,269.455-324.908,410.834-101.19" transform="translate(531.79 -562.335)" fill="none" stroke="#2d2d2d" stroke-miterlimit="10" stroke-width="0.239"/>
        <path id="Tracé_143" data-name="Tracé 143" d="M-364.309,1200.493s32.154-343.667,260.564-228.826,267.965-221.449,374.164,58.85c113.216,299.977,271.107-327.953,409.572-103.685" transform="translate(533.428 -559.109)" fill="none" stroke="#2d2d2d" stroke-miterlimit="10" stroke-width="0.239"/>
        <path id="Tracé_144" data-name="Tracé 144" d="M-363.26,1199.463s35.727-344.776,262.546-227.984,271.373-217.772,371.866,64.187c107.645,302.034,272.755-331,408.31-106.177" transform="translate(535.065 -555.883)" fill="none" stroke="#2d2d2d" stroke-miterlimit="10" stroke-width="0.239"/>
      </g>
      <g id="Groupe_63" data-name="Groupe 63" transform="translate(161.875 779.364) rotate(90)">
        <path id="Tracé_93-2" data-name="Tracé 93" d="M-401.982,1163.81S-521.447,928.87-270.243,942.871-190.664,612.427,128.7,773.233s153.787-143.319,385.452,17.148" transform="translate(430.371 -730.368)" fill="none" stroke="#2d2d2d" stroke-miterlimit="10" stroke-width="0.239"/>
        <path id="Tracé_94-2" data-name="Tracé 94" d="M-401.581,1162.979S-518.132,927.131-268.226,942.726s82.358-327.446,397.064-165.284c314.82,162.482,155.134-145.8,384.423,15.112" transform="translate(432.16 -727.745)" fill="none" stroke="#2d2d2d" stroke-miterlimit="10" stroke-width="0.239"/>
        <path id="Tracé_95-2" data-name="Tracé 95" d="M-401.171,1162.152S-514.807,925.4-266.2,942.585s85.137-324.45,395.189-160.933c310.28,164.159,156.48-148.284,383.393,13.08" transform="translate(433.94 -725.125)" fill="none" stroke="#2d2d2d" stroke-miterlimit="10" stroke-width="0.239"/>
        <path id="Tracé_96-2" data-name="Tracé 96" d="M-400.752,1161.328s-110.722-237.661,136.586-218.88S-176.25,621,129.147,785.868C434.885,951.705,286.973,635.1,511.511,796.914" transform="translate(435.711 -722.509)" fill="none" stroke="#2d2d2d" stroke-miterlimit="10" stroke-width="0.239"/>
        <path id="Tracé_97-2" data-name="Tracé 97" d="M-400.322,1160.509s-107.809-238.567,138.2-218.193,90.694-318.456,391.435-152.227c301.2,167.513,159.173-153.25,381.337,9.011" transform="translate(437.473 -719.897)" fill="none" stroke="#2d2d2d" stroke-miterlimit="10" stroke-width="0.239"/>
        <path id="Tracé_98-2" data-name="Tracé 98" d="M-399.883,1159.692S-504.778,920.219-260.069,942.185s93.475-315.458,389.56-147.875C426.151,963.5,290.011,638.577,509.8,801.287" transform="translate(439.224 -717.288)" fill="none" stroke="#2d2d2d" stroke-miterlimit="10" stroke-width="0.239"/>
        <path id="Tracé_99-2" data-name="Tracé 99" d="M-399.434,1158.966S-501.415,918.586-258,942.146s96.673-312.979,387.686-143.522c292.54,170.347,161.864-158.216,379.279,4.943" transform="translate(440.966 -714.77)" fill="none" stroke="#2d2d2d" stroke-miterlimit="10" stroke-width="0.239"/>
        <path id="Tracé_100-2" data-name="Tracé 100" d="M-398.973,1158.171S-498.041,916.884-255.93,942.037s99.523-310.054,385.809-139.171c288.071,171.952,163.211-160.7,378.249,2.91" transform="translate(442.697 -712.181)" fill="none" stroke="#2d2d2d" stroke-miterlimit="10" stroke-width="0.239"/>
        <path id="Tracé_101-2" data-name="Tracé 101" d="M-398.5,1157.378s-96.154-242.193,144.659-215.447S-151.473,634.8,130.089,807.113c283.6,173.559,164.557-163.179,377.222.876" transform="translate(444.416 -709.597)" fill="none" stroke="#2d2d2d" stroke-miterlimit="10" stroke-width="0.239"/>
        <path id="Tracé_102-2" data-name="Tracé 102" d="M-398.021,1156.588s-93.239-243.1,146.275-214.762,105.221-304.192,382.055-130.463C409.445,986.533,296.213,645.7,506.5,810.2" transform="translate(446.125 -707.014)" fill="none" stroke="#2d2d2d" stroke-miterlimit="10" stroke-width="0.239"/>
        <path id="Tracé_103-2" data-name="Tracé 103" d="M-397.528,1155.8S-487.852,911.8-249.636,941.727s108.068-301.255,380.18-126.112C405.207,992.4,297.793,647.47,505.708,812.422" transform="translate(447.821 -704.436)" fill="none" stroke="#2d2d2d" stroke-miterlimit="10" stroke-width="0.239"/>
        <path id="Tracé_104-2" data-name="Tracé 104" d="M-397.021,1155.018S-484.433,910.106-247.515,941.63s110.916-298.313,378.3-121.759c270.193,178.406,168.6-170.628,374.134-5.227" transform="translate(449.506 -701.86)" fill="none" stroke="#2d2d2d" stroke-miterlimit="10" stroke-width="0.239"/>
        <path id="Tracé_105-2" data-name="Tracé 105" d="M-396.5,1154.238s-84.5-245.82,151.121-212.7S-131.62,646.171,131.046,824.13c265.724,180.031,169.942-173.112,373.105-7.263" transform="translate(451.178 -699.287)" fill="none" stroke="#2d2d2d" stroke-miterlimit="10" stroke-width="0.239"/>
        <path id="Tracé_106-2" data-name="Tracé 106" d="M-395.97,1153.748s-81.586-246.725,152.737-212.016,116.607-292.415,374.55-113.054c261.252,181.662,171.288-175.593,372.078-9.3" transform="translate(452.836 -697.005)" fill="none" stroke="#2d2d2d" stroke-miterlimit="10" stroke-width="0.239"/>
        <path id="Tracé_107-2" data-name="Tracé 107" d="M-395.424,1153.375S-474.1,905.744-241.073,942.048s119.45-289.459,372.675-108.7c256.778,183.294,172.633-178.076,371.047-11.33" transform="translate(454.481 -694.842)" fill="none" stroke="#2d2d2d" stroke-miterlimit="10" stroke-width="0.239"/>
        <path id="Tracé_108-2" data-name="Tracé 108" d="M-394.864,1153.005S-470.623,904.468-238.9,942.365s122.294-286.5,370.8-104.348C384.2,1022.95,305.88,657.458,501.92,824.653" transform="translate(456.112 -692.68)" fill="none" stroke="#2d2d2d" stroke-miterlimit="10" stroke-width="0.239"/>
        <path id="Tracé_109-2" data-name="Tracé 109" d="M-394.291,1152.638s-72.844-249.443,157.58-209.953,125.135-283.535,368.923-100c247.828,186.577,175.326-183.04,368.99-15.4" transform="translate(457.728 -690.519)" fill="none" stroke="#2d2d2d" stroke-miterlimit="10" stroke-width="0.239"/>
        <path id="Tracé_110-2" data-name="Tracé 110" d="M-393.7,1152.272S-463.632,901.921-234.505,943s127.972-280.563,367.049-95.642c243.348,188.224,176.67-185.524,367.961-17.433" transform="translate(459.329 -688.361)" fill="none" stroke="#2d2d2d" stroke-miterlimit="10" stroke-width="0.239"/>
        <path id="Tracé_111-2" data-name="Tracé 111" d="M-393.1,1151.907s-67.018-251.257,160.81-208.581,130.808-277.589,365.172-91.291C371.752,1041.913,310.9,664.029,499.818,832.569" transform="translate(460.915 -686.204)" fill="none" stroke="#2d2d2d" stroke-miterlimit="10" stroke-width="0.239"/>
        <path id="Tracé_112-2" data-name="Tracé 112" d="M-392.475,1151.543s-64.1-252.164,162.426-207.894,133.641-274.61,363.295-86.938c234.383,191.535,179.364-190.488,365.9-21.5" transform="translate(462.484 -684.048)" fill="none" stroke="#2d2d2d" stroke-miterlimit="10" stroke-width="0.239"/>
        <path id="Tracé_113-2" data-name="Tracé 113" d="M-391.837,1151.181s-61.189-253.07,164.042-207.207,136.469-271.628,361.418-82.586c229.9,193.2,180.71-192.971,364.875-23.534" transform="translate(464.037 -681.893)" fill="none" stroke="#2d2d2d" stroke-miterlimit="10" stroke-width="0.239"/>
        <path id="Tracé_114-2" data-name="Tracé 114" d="M-391.182,1150.822S-449.456,896.845-225.524,944.3s139.3-268.636,359.543-78.233C359.426,1060.932,316.074,670.613,497.866,840.5" transform="translate(465.571 -679.742)" fill="none" stroke="#2d2d2d" stroke-miterlimit="10" stroke-width="0.239"/>
        <path id="Tracé_115-2" data-name="Tracé 115" d="M-390.507,1150.463s-55.362-254.884,167.272-205.835,142.119-265.643,357.667-73.88c220.911,196.536,183.4-197.937,362.817-27.6" transform="translate(467.089 -677.59)" fill="none" stroke="#2d2d2d" stroke-miterlimit="10" stroke-width="0.239"/>
        <path id="Tracé_116-2" data-name="Tracé 116" d="M-389.815,1150.1s-52.447-255.79,168.887-205.148S-75.99,682.31,134.862,875.429c216.416,198.212,184.748-200.419,361.79-29.636" transform="translate(468.587 -675.44)" fill="none" stroke="#2d2d2d" stroke-miterlimit="10" stroke-width="0.239"/>
        <path id="Tracé_117-2" data-name="Tracé 117" d="M-389.1,1149.748s-49.533-256.7,170.5-204.461,147.754-259.645,353.915-65.176C347.228,1080,321.407,677.21,496.073,848.442" transform="translate(470.066 -673.292)" fill="none" stroke="#2d2d2d" stroke-miterlimit="10" stroke-width="0.239"/>
        <path id="Tracé_118-2" data-name="Tracé 118" d="M-388.371,1149.393s-46.621-257.6,172.115-203.776S-65.693,688.982,135.784,884.8c207.406,201.578,187.439-205.385,359.731-33.7" transform="translate(471.525 -671.144)" fill="none" stroke="#2d2d2d" stroke-miterlimit="10" stroke-width="0.239"/>
        <path id="Tracé_119-2" data-name="Tracé 119" d="M-387.62,1149.04S-431.326,890.53-213.889,945.95s153.369-253.625,350.163-56.47c202.9,203.269,188.785-207.866,358.7-35.738" transform="translate(472.964 -668.997)" fill="none" stroke="#2d2d2d" stroke-miterlimit="10" stroke-width="0.239"/>
        <path id="Tracé_120-2" data-name="Tracé 120" d="M-386.847,1148.687s-40.794-259.415,175.347-202.4,156.169-250.61,348.286-52.117C335.167,1099.13,326.918,683.818,494.459,856.4" transform="translate(474.381 -666.853)" fill="none" stroke="#2d2d2d" stroke-miterlimit="10" stroke-width="0.239"/>
        <path id="Tracé_121-2" data-name="Tracé 121" d="M-386.053,1148.336S-423.932,888.013-209.09,946.62s158.964-247.591,346.412-47.765c193.856,206.66,191.476-212.832,356.644-39.806" transform="translate(475.777 -664.709)" fill="none" stroke="#2d2d2d" stroke-miterlimit="10" stroke-width="0.239"/>
        <path id="Tracé_122-2" data-name="Tracé 122" d="M-385.235,1147.986S-420.2,886.758-206.659,946.957-44.905,702.39,137.876,903.544C327.206,1111.908,330.7,688.229,493.49,861.7" transform="translate(477.151 -662.567)" fill="none" stroke="#2d2d2d" stroke-miterlimit="10" stroke-width="0.239"/>
        <path id="Tracé_123-2" data-name="Tracé 123" d="M-384.4,1147.637S-416.449,885.5-204.2,947.294s164.537-241.539,342.658-39.059c184.8,210.07,194.17-217.8,354.587-43.875" transform="translate(478.503 -660.426)" fill="none" stroke="#2d2d2d" stroke-miterlimit="10" stroke-width="0.239"/>
        <path id="Tracé_124-2" data-name="Tracé 124" d="M-383.535,1147.289s-29.138-263.042,181.808-199.657,167.313-238.509,340.781-34.708C319.312,1124.7,334.571,692.646,492.613,867.018" transform="translate(479.831 -658.287)" fill="none" stroke="#2d2d2d" stroke-miterlimit="10" stroke-width="0.239"/>
        <path id="Tracé_125-2" data-name="Tracé 125" d="M-382.649,1146.942s-26.226-263.948,183.422-198.97S-29.141,712.5,139.68,917.617c175.71,213.492,196.861-222.761,352.529-47.941" transform="translate(481.137 -656.146)" fill="none" stroke="#2d2d2d" stroke-miterlimit="10" stroke-width="0.239"/>
        <path id="Tracé_126-2" data-name="Tracé 126" d="M-381.741,1146.6S-405.052,881.741-196.7,948.314s172.85-232.44,337.03-26c171.157,215.208,198.207-225.246,351.5-49.977" transform="translate(482.419 -654.009)" fill="none" stroke="#2d2d2d" stroke-miterlimit="10" stroke-width="0.239"/>
        <path id="Tracé_127-2" data-name="Tracé 127" d="M-380.81,1146.251s-20.4-265.76,186.652-197.6S-18.551,719.256,141,927.005C307.591,1143.934,340.55,699.279,491.469,875" transform="translate(483.678 -651.872)" fill="none" stroke="#2d2d2d" stroke-miterlimit="10" stroke-width="0.239"/>
        <path id="Tracé_128-2" data-name="Tracé 128" d="M-379.857,1145.907S-397.339,879.241-191.589,949-13.23,722.642,141.689,931.7c162.027,218.65,200.9-230.209,349.443-54.044" transform="translate(484.915 -649.736)" fill="none" stroke="#2d2d2d" stroke-miterlimit="10" stroke-width="0.239"/>
        <path id="Tracé_129-2" data-name="Tracé 129" d="M-378.881,1145.565S-393.451,877.991-189,949.343-7.9,726.031,142.4,936.4C299.855,1156.773,344.648,703.7,490.817,880.321" transform="translate(486.131 -647.601)" fill="none" stroke="#2d2d2d" stroke-miterlimit="10" stroke-width="0.239"/>
        <path id="Tracé_130-2" data-name="Tracé 130" d="M-377.886,1145.224s-11.656-268.479,191.5-195.535S-2.551,729.422,143.138,941.1C296,1163.2,346.729,705.921,490.522,882.983" transform="translate(487.326 -645.468)" fill="none" stroke="#2d2d2d" stroke-miterlimit="10" stroke-width="0.239"/>
        <path id="Tracé_131-2" data-name="Tracé 131" d="M-376.872,1144.883s-8.741-269.385,193.113-194.85S2.805,732.817,143.891,945.8c148.275,223.829,204.938-237.658,346.357-60.147" transform="translate(488.503 -643.335)" fill="none" stroke="#2d2d2d" stroke-miterlimit="10" stroke-width="0.239"/>
        <path id="Tracé_132-2" data-name="Tracé 132" d="M-375.843,1144.543S-381.67,874.251-181.114,950.38,8.171,736.214,144.659,950.5c143.674,225.56,206.285-240.141,345.328-62.181" transform="translate(489.663 -641.203)" fill="none" stroke="#2d2d2d" stroke-miterlimit="10" stroke-width="0.239"/>
        <path id="Tracé_133-2" data-name="Tracé 133" d="M-374.8,1144.205s-2.914-271.2,196.343-193.476,192-211.117,323.9,4.466c139.064,227.292,207.629-242.623,344.3-64.214" transform="translate(490.813 -639.073)" fill="none" stroke="#2d2d2d" stroke-miterlimit="10" stroke-width="0.239"/>
        <path id="Tracé_134-2" data-name="Tracé 134" d="M-373.753,1143.868s0-272.106,197.959-192.789,194.7-208.067,322.021,8.819C280.673,1188.921,355.2,714.792,489.5,893.648" transform="translate(491.956 -636.943)" fill="none" stroke="#2d2d2d" stroke-miterlimit="10" stroke-width="0.239"/>
        <path id="Tracé_135-2" data-name="Tracé 135" d="M-372.7,1143.532s2.912-273.012,199.575-192.1,197.4-205.016,320.144,13.17c129.82,230.757,210.322-247.587,342.24-68.282" transform="translate(493.096 -634.814)" fill="none" stroke="#2d2d2d" stroke-miterlimit="10" stroke-width="0.239"/>
        <path id="Tracé_136-2" data-name="Tracé 136" d="M-371.654,1143.2s5.825-273.918,201.188-191.417S29.618,749.816,147.8,969.3c125.183,232.489,211.667-250.07,341.211-70.317" transform="translate(494.239 -632.686)" fill="none" stroke="#2d2d2d" stroke-miterlimit="10" stroke-width="0.239"/>
        <path id="Tracé_137-2" data-name="Tracé 137" d="M-370.605,1142.862s8.739-274.826,202.8-190.73S34.964,753.218,148.592,974.008c120.54,234.221,213.013-252.555,340.182-72.351" transform="translate(495.38 -630.559)" fill="none" stroke="#2d2d2d" stroke-miterlimit="10" stroke-width="0.239"/>
        <path id="Tracé_138-2" data-name="Tracé 138" d="M-369.556,1142.528S-357.9,866.8-165.138,952.485,40.3,756.623,149.38,978.713c115.887,235.954,214.36-255.036,339.155-74.385" transform="translate(496.521 -628.434)" fill="none" stroke="#2d2d2d" stroke-miterlimit="10" stroke-width="0.239"/>
        <path id="Tracé_139-2" data-name="Tracé 139" d="M-368.507,1142.2s14.568-276.637,206.034-189.356S45.63,760.025,150.168,983.42C261.395,1221.1,365.874,725.9,488.293,907" transform="translate(497.662 -626.308)" fill="none" stroke="#2d2d2d" stroke-miterlimit="10" stroke-width="0.239"/>
        <path id="Tracé_140-2" data-name="Tracé 140" d="M-367.457,1141.863s17.48-277.545,207.648-188.671S50.949,763.426,150.957,988.128c106.555,239.413,217.051-260,337.1-78.454" transform="translate(498.804 -624.185)" fill="none" stroke="#2d2d2d" stroke-miterlimit="10" stroke-width="0.239"/>
        <path id="Tracé_141-2" data-name="Tracé 141" d="M-366.408,1141.529s20.395-278.451,209.264-187.984S55.827,766.958,151.745,992.832c101.408,241.283,218.4-262.484,336.067-80.488" transform="translate(499.945 -622.058)" fill="none" stroke="#2d2d2d" stroke-miterlimit="10" stroke-width="0.239"/>
        <path id="Tracé_142-2" data-name="Tracé 142" d="M-365.359,1141.2s23.309-279.359,210.88-187.3,215.75-183.591,307.012,43.64c96.87,242.959,219.744-264.967,335.04-82.522" transform="translate(501.086 -619.937)" fill="none" stroke="#2d2d2d" stroke-miterlimit="10" stroke-width="0.239"/>
        <path id="Tracé_143-2" data-name="Tracé 143" d="M-364.309,1140.873s26.222-280.264,212.493-186.61S66.713,773.668,153.32,1002.255c92.329,244.635,221.091-267.45,334.011-84.556" transform="translate(502.228 -617.817)" fill="none" stroke="#2d2d2d" stroke-miterlimit="10" stroke-width="0.239"/>
        <path id="Tracé_144-2" data-name="Tracé 144" d="M-363.26,1140.544s29.136-281.169,214.109-185.924,221.308-177.6,303.261,52.345c87.786,246.312,222.435-269.931,332.981-86.589" transform="translate(503.369 -615.697)" fill="none" stroke="#2d2d2d" stroke-miterlimit="10" stroke-width="0.239"/>
      </g>
      <g id="Groupe_36" data-name="Groupe 36" transform="translate(1569.336 -54.765)">
        <ellipse id="Ellipse_12" data-name="Ellipse 12" cx="5.133" cy="4.341" rx="5.133" ry="4.341" transform="translate(0)" fill="#ffc248"/>
        <ellipse id="Ellipse_13" data-name="Ellipse 13" cx="5.133" cy="4.341" rx="5.133" ry="4.341" transform="translate(0 33.616)" fill="#ffc248"/>
        <ellipse id="Ellipse_14" data-name="Ellipse 14" cx="5.133" cy="4.341" rx="5.133" ry="4.341" transform="translate(0 67.231)" fill="#ffc248"/>
        <ellipse id="Ellipse_15" data-name="Ellipse 15" cx="5.133" cy="4.341" rx="5.133" ry="4.341" transform="translate(0 100.847)" fill="#ffc248"/>
      </g>
      <g id="Groupe_37" data-name="Groupe 37" transform="translate(413.069 -33.119)">
        <ellipse id="Ellipse_16" data-name="Ellipse 16" cx="5.133" cy="4.341" rx="5.133" ry="4.341" fill="#ffc248"/>
        <ellipse id="Ellipse_17" data-name="Ellipse 17" cx="5.133" cy="4.341" rx="5.133" ry="4.341" transform="translate(0 33.616)" fill="#ffc248"/>
        <ellipse id="Ellipse_18" data-name="Ellipse 18" cx="5.133" cy="4.341" rx="5.133" ry="4.341" transform="translate(0 67.231)" fill="#ffc248"/>
        <ellipse id="Ellipse_19" data-name="Ellipse 19" cx="5.133" cy="4.341" rx="5.133" ry="4.341" transform="translate(0 100.846)" fill="#ffc248"/>
      </g>
      <g id="Groupe_64" data-name="Groupe 64" transform="translate(267.734 1283.881)">
        <ellipse id="Ellipse_16-2" data-name="Ellipse 16" cx="5.133" cy="4.341" rx="5.133" ry="4.341" fill="#ffc248"/>
        <ellipse id="Ellipse_17-2" data-name="Ellipse 17" cx="5.133" cy="4.341" rx="5.133" ry="4.341" transform="translate(0 33.616)" fill="#ffc248"/>
        <ellipse id="Ellipse_18-2" data-name="Ellipse 18" cx="5.133" cy="4.341" rx="5.133" ry="4.341" transform="translate(0 67.231)" fill="#ffc248"/>
        <ellipse id="Ellipse_19-2" data-name="Ellipse 19" cx="5.133" cy="4.341" rx="5.133" ry="4.341" transform="translate(0 100.846)" fill="#ffc248"/>
      </g>
      <g id="Groupe_38" data-name="Groupe 38" transform="translate(1680.269 1006.79)">
        <ellipse id="Ellipse_20" data-name="Ellipse 20" cx="5.133" cy="4.341" rx="5.133" ry="4.341" transform="translate(0)" fill="#ffc248"/>
        <ellipse id="Ellipse_21" data-name="Ellipse 21" cx="5.133" cy="4.341" rx="5.133" ry="4.341" transform="translate(0 33.615)" fill="#ffc248"/>
        <ellipse id="Ellipse_22" data-name="Ellipse 22" cx="5.133" cy="4.341" rx="5.133" ry="4.341" transform="translate(0 67.231)" fill="#ffc248"/>
        <ellipse id="Ellipse_23" data-name="Ellipse 23" cx="5.133" cy="4.341" rx="5.133" ry="4.341" transform="translate(0 100.847)" fill="#ffc248"/>
      </g>
      <g id="Groupe_39" data-name="Groupe 39" transform="translate(93.691 813.57)">
        <ellipse id="Ellipse_24" data-name="Ellipse 24" cx="5.133" cy="4.341" rx="5.133" ry="4.341" fill="#ffc248"/>
        <ellipse id="Ellipse_25" data-name="Ellipse 25" cx="5.133" cy="4.341" rx="5.133" ry="4.341" transform="translate(0 33.615)" fill="#ffc248"/>
        <ellipse id="Ellipse_26" data-name="Ellipse 26" cx="5.133" cy="4.341" rx="5.133" ry="4.341" transform="translate(0 67.231)" fill="#ffc248"/>
        <ellipse id="Ellipse_27" data-name="Ellipse 27" cx="5.133" cy="4.341" rx="5.133" ry="4.341" transform="translate(0 100.846)" fill="#ffc248"/>
      </g>
      <g id="Groupe_41" data-name="Groupe 41" transform="translate(-35.802 88.876)">
        <g id="Groupe_40" data-name="Groupe 40">
          <ellipse id="Ellipse_28" data-name="Ellipse 28" cx="5.133" cy="4.341" rx="5.133" ry="4.341" fill="#353535"/>
          <ellipse id="Ellipse_29" data-name="Ellipse 29" cx="5.133" cy="4.341" rx="5.133" ry="4.341" transform="translate(39.742)" fill="#353535"/>
          <ellipse id="Ellipse_30" data-name="Ellipse 30" cx="5.133" cy="4.341" rx="5.133" ry="4.341" transform="translate(79.485)" fill="#353535"/>
          <ellipse id="Ellipse_31" data-name="Ellipse 31" cx="5.133" cy="4.341" rx="5.133" ry="4.341" transform="translate(119.227)" fill="#353535"/>
        </g>
      </g>
      <g id="Groupe_47" data-name="Groupe 47" transform="translate(1842.779 29.31)">
        <g id="Groupe_46" data-name="Groupe 46" transform="translate(0)">
          <ellipse id="Ellipse_39" data-name="Ellipse 39" cx="5.133" cy="4.341" rx="5.133" ry="4.341" transform="translate(0 0.001)" fill="#fb9e75"/>
          <ellipse id="Ellipse_40" data-name="Ellipse 40" cx="5.133" cy="4.341" rx="5.133" ry="4.341" transform="translate(39.743 0.001)" fill="#fb9e75"/>
          <ellipse id="Ellipse_41" data-name="Ellipse 41" cx="5.133" cy="4.341" rx="5.133" ry="4.341" transform="translate(79.485 0.001)" fill="#fb9e75"/>
          <path id="Tracé_146" data-name="Tracé 146" d="M31.813,419.536c2.836,0,5.133,1.944,5.133,4.341s-2.3,4.342-5.133,4.342-5.133-1.942-5.133-4.342S28.979,419.536,31.813,419.536Z" transform="translate(92.546 -419.536)" fill="#fb9e75"/>
        </g>
      </g>
      <g id="Groupe_49" data-name="Groupe 49" transform="translate(-100.549 656.205)">
        <g id="Groupe_48" data-name="Groupe 48">
          <ellipse id="Ellipse_42" data-name="Ellipse 42" cx="5.133" cy="4.341" rx="5.133" ry="4.341" fill="#353535"/>
          <ellipse id="Ellipse_43" data-name="Ellipse 43" cx="5.133" cy="4.341" rx="5.133" ry="4.341" transform="translate(39.742)" fill="#353535"/>
          <ellipse id="Ellipse_44" data-name="Ellipse 44" cx="5.133" cy="4.341" rx="5.133" ry="4.341" transform="translate(79.485)" fill="#353535"/>
          <path id="Tracé_147" data-name="Tracé 147" d="M-727.3,709.05c2.834,0,5.133,1.944,5.133,4.341s-2.3,4.341-5.133,4.341-5.133-1.944-5.133-4.341S-730.133,709.05-727.3,709.05Z" transform="translate(851.66 -709.05)" fill="#353535"/>
        </g>
      </g>
      <g id="Groupe_65" data-name="Groupe 65" transform="translate(1750.451 1595.205)">
        <g id="Groupe_48-2" data-name="Groupe 48">
          <ellipse id="Ellipse_42-2" data-name="Ellipse 42" cx="5.133" cy="4.341" rx="5.133" ry="4.341" fill="#353535"/>
          <ellipse id="Ellipse_43-2" data-name="Ellipse 43" cx="5.133" cy="4.341" rx="5.133" ry="4.341" transform="translate(39.742)" fill="#353535"/>
          <ellipse id="Ellipse_44-2" data-name="Ellipse 44" cx="5.133" cy="4.341" rx="5.133" ry="4.341" transform="translate(79.485)" fill="#353535"/>
          <path id="Tracé_147-2" data-name="Tracé 147" d="M-727.3,709.05c2.834,0,5.133,1.944,5.133,4.341s-2.3,4.341-5.133,4.341-5.133-1.944-5.133-4.341S-730.133,709.05-727.3,709.05Z" transform="translate(851.66 -709.05)" fill="#353535"/>
        </g>
      </g>
      <g id="Groupe_51" data-name="Groupe 51" transform="translate(-50.541 1044.747)">
        <g id="Groupe_50" data-name="Groupe 50">
          <ellipse id="Ellipse_45" data-name="Ellipse 45" cx="5.133" cy="4.341" rx="5.133" ry="4.341" fill="#353535"/>
          <ellipse id="Ellipse_46" data-name="Ellipse 46" cx="5.133" cy="4.341" rx="5.133" ry="4.341" transform="translate(39.742)" fill="#353535"/>
          <ellipse id="Ellipse_47" data-name="Ellipse 47" cx="5.133" cy="4.341" rx="5.133" ry="4.341" transform="translate(79.485)" fill="#353535"/>
          <ellipse id="Ellipse_48" data-name="Ellipse 48" cx="5.133" cy="4.341" rx="5.133" ry="4.341" transform="translate(119.227)" fill="#353535"/>
        </g>
      </g>
      <g id="Groupe_54" data-name="Groupe 54" transform="translate(1847.912 315.77)">
        <ellipse id="Ellipse_53" data-name="Ellipse 53" cx="5.133" cy="4.341" rx="5.133" ry="4.341" transform="translate(0)" fill="#ffc248"/>
        <ellipse id="Ellipse_54" data-name="Ellipse 54" cx="5.133" cy="4.341" rx="5.133" ry="4.341" transform="translate(0 33.616)" fill="#ffc248"/>
        <ellipse id="Ellipse_55" data-name="Ellipse 55" cx="5.133" cy="4.341" rx="5.133" ry="4.341" transform="translate(0 67.231)" fill="#ffc248"/>
        <ellipse id="Ellipse_56" data-name="Ellipse 56" cx="5.133" cy="4.341" rx="5.133" ry="4.341" transform="translate(0 100.846)" fill="#ffc248"/>
      </g>
      <g id="Groupe_55" data-name="Groupe 55" transform="translate(1232.495 27.818)">
        <line id="Ligne_1" data-name="Ligne 1" x2="35.414" transform="translate(0 14.977)" fill="none" stroke="#353535" stroke-miterlimit="10" stroke-width="0.5"/>
        <line id="Ligne_2" data-name="Ligne 2" y1="29.954" transform="translate(17.707)" fill="none" stroke="#353535" stroke-miterlimit="10" stroke-width="0.5"/>
      </g>
      <g id="Groupe_56" data-name="Groupe 56" transform="translate(349.295 991.814)">
        <line id="Ligne_3" data-name="Ligne 3" x2="35.414" transform="translate(0 14.977)" fill="none" stroke="#353535" stroke-miterlimit="10" stroke-width="0.5"/>
        <line id="Ligne_4" data-name="Ligne 4" y1="29.954" transform="translate(17.707)" fill="none" stroke="#353535" stroke-miterlimit="10" stroke-width="0.5"/>
      </g>
      <g id="Groupe_57" data-name="Groupe 57" transform="translate(1626.948 944.386)">
        <line id="Ligne_5" data-name="Ligne 5" x2="35.413" transform="translate(0 14.977)" fill="none" stroke="#353535" stroke-miterlimit="10" stroke-width="0.5"/>
        <line id="Ligne_6" data-name="Ligne 6" y1="29.954" transform="translate(17.707)" fill="none" stroke="#353535" stroke-miterlimit="10" stroke-width="0.5"/>
      </g>
      <g id="Groupe_58" data-name="Groupe 58" transform="translate(349.295 61.433)">
        <line id="Ligne_7" data-name="Ligne 7" x2="35.414" transform="translate(0 14.977)" fill="none" stroke="#353535" stroke-miterlimit="10" stroke-width="0.5"/>
        <line id="Ligne_8" data-name="Ligne 8" y1="29.954" transform="translate(17.707)" fill="none" stroke="#353535" stroke-miterlimit="10" stroke-width="0.5"/>
      </g>
      <g id="Groupe_59" data-name="Groupe 59" transform="translate(1767.535 612.007)">
        <line id="Ligne_9" data-name="Ligne 9" x2="35.414" transform="translate(0 14.977)" fill="none" stroke="#353535" stroke-miterlimit="10" stroke-width="0.5"/>
        <line id="Ligne_10" data-name="Ligne 10" y1="29.954" transform="translate(17.707)" fill="none" stroke="#353535" stroke-miterlimit="10" stroke-width="0.5"/>
      </g>
      <g id="Groupe_66" data-name="Groupe 66" transform="translate(349.295 1580.228)">
        <line id="Ligne_9-2" data-name="Ligne 9" x2="35.414" transform="translate(0 14.977)" fill="none" stroke="#353535" stroke-miterlimit="10" stroke-width="0.5"/>
        <line id="Ligne_10-2" data-name="Ligne 10" y1="29.954" transform="translate(17.707)" fill="none" stroke="#353535" stroke-miterlimit="10" stroke-width="0.5"/>
      </g>
      <g id="Groupe_60" data-name="Groupe 60" transform="translate(70.851 376.707)">
        <line id="Ligne_11" data-name="Ligne 11" x2="35.414" transform="translate(0 14.977)" fill="none" stroke="#353535" stroke-miterlimit="10" stroke-width="0.5"/>
        <line id="Ligne_12" data-name="Ligne 12" y1="29.954" transform="translate(17.707)" fill="none" stroke="#353535" stroke-miterlimit="10" stroke-width="0.5"/>
      </g>
    </g>
  </g>
</svg>
