<svg xmlns="http://www.w3.org/2000/svg" width="149.593" height="116.26" viewBox="0 0 149.593 116.26">
  <g id="Groupe_12" data-name="Groupe 12" transform="translate(5870.558 -1195.517) rotate(11)">
    <path id="Tracé_24" data-name="Tracé 24" d="M-5515.936,2631.932a7.579,7.579,0,0,1-3.94-.02v-.926c.88.027,1.036-.774,1.437-1.28s.526-1.284,1.283-1.509a13.231,13.231,0,0,1-1.356,2.384c-.166.338-.591.667-.417,1.021.21.425.756.214,1.15.257C-5517.17,2631.925-5516.551,2631.912-5515.936,2631.932Z" transform="translate(0 -262.814)" fill="#d3a131"/>
    <path id="Tracé_25" data-name="Tracé 25" d="M-4891.315,2628.084l-.928-.009c.163-.509-.164-.864-.388-1.254a32.73,32.73,0,0,1-2.128-3.6c1.1.508,1.257,1.738,1.94,2.566.438.532.6,1.357,1.5,1.375Z" transform="translate(-480.45 -258.986)" fill="#d3a131"/>
    <path id="Tracé_26" data-name="Tracé 26" d="M-5211.925,2286.249c0,.092-.009.185-.014.277-3.309-.115-6.618-.091-9.928-.014l-.009-.263Z" transform="translate(-229.036)" fill="#e8f3f6"/>
    <path id="Tracé_27" data-name="Tracé 27" d="M-5375.7,2287.169c3.309-.077,6.618-.1,9.927.014a64.146,64.146,0,0,1,7.613,1.318,7.787,7.787,0,0,1,.738.277,21.292,21.292,0,0,1-.965,3.487c-.3,1.02-.791,1.984-1.106,3-.531,1.708-.893,3.475-1.511,5.149a11.335,11.335,0,0,0-.842,3.659c-1.681.036-1.619.037-1.664,1.738a16.1,16.1,0,0,1-.122,3.449c-.216-.327-.324-.472-.414-.628-.7-1.237-1.477-2.443-2.087-3.726-.477-1-1.286-.9-2.056-.784-.834.129-.383.9-.4,1.335-.065,2.04-.019,4.082-.034,6.123,0,.483-.258,1.067.611,1,.625-.052,1.4.305,1.4-.915a18.056,18.056,0,0,1,.137-4.19l2.2,3.925c-.062.044-.156.075-.181.135-1.48,3.571-2.267,7.368-3.563,11-.184.515-.557.655-.79,1.006a12.547,12.547,0,0,0-2.2-3.217c-3.158-2.912-6.9-3.271-10.782-2.08-3.688,1.131-5.527,4.016-6.154,7.681-.621,3.629-.2,7.3-.278,10.954a13.19,13.19,0,0,0,.476,3.417,9.049,9.049,0,0,0,8.928,7.271c.884.027,1.77,0,2.655,0a4.694,4.694,0,0,1-.9,2.635c-.06.07-.011.226-.038.336a18.884,18.884,0,0,1-.93,3.451c-.5.01-1,.027-1.5.027q-19.884.011-39.768.018c-.377-.219-.424-.595-.514-.976a15.893,15.893,0,0,0-.816-2.906q-.464-2.272-.928-4.544c-.137-2.6-.546-5.191-.462-7.812a53.68,53.68,0,0,1,4.154-19.643,51.307,51.307,0,0,1,7.559-12.466,51.543,51.543,0,0,1,13.2-11.364,52.2,52.2,0,0,1,18.241-6.7C-5377.809,2287.437-5376.75,2287.318-5375.7,2287.169Zm-22.521,45.565c0-4.471-.017-8.941.014-13.412.006-.87-.179-1.308-1.164-1.146q-5.744.94-11.5,1.808c-.606.091-.767.347-.754.9.025,1.117.044,2.236,0,3.352-.027.736.2,1.037.983,1,1.308-.055,2.621.011,3.93-.021,1.686-.041,1.435-.113,1.438,1.5q.019,9.654-.01,19.308c0,.923.231,1.311,1.227,1.26,1.538-.078,3.085-.076,4.623,0,.984.047,1.24-.312,1.23-1.257C-5398.24,2341.6-5398.217,2337.165-5398.218,2332.733Zm14.277-24.282h.018q0,1.728,0,3.455c0,.262-.054.516.3.653,1.009.388,1.772-.066,1.8-1.109.008-.27,0-.54,0-.809.008-1.242.688-1.712,1.795-1.211.748.338.694,1.038.671,1.7-.036,1.022.3,1.6,1.468,1.468a13.114,13.114,0,0,1,2.416,0,.911.911,0,0,0,1.117-.848c.062-.346.092-.742.551-.756a9.114,9.114,0,0,1,2.068.055c.446.09.345.711.522,1.078.395.816,1.187.5,1.732.4.651-.118.149-.671.051-.995-.662-2.172-1.388-4.325-2.025-6.5a1.125,1.125,0,0,0-1.311-.945c-.716.015-1.207.067-1.445.913-.6,2.148-1.3,4.27-2,6.391-.119.361-.131,1-.648.932-.448-.062-.4-.671-.485-1.07a1.794,1.794,0,0,1-.02-.461,1.935,1.935,0,0,0-.79-1.922c-.283-.181-.365-.379-.059-.625a1.968,1.968,0,0,0,.565-2.592,2.863,2.863,0,0,0-2.556-1.53c-.92-.071-1.852.018-2.774-.034-.782-.044-1.009.29-.981,1.022C-5383.909,2306.214-5383.94,2307.333-5383.94,2308.451Zm-15.344-.192v.925a3.179,3.179,0,0,0,1.842,3.2,4.371,4.371,0,0,0,4.481-.5,1.25,1.25,0,0,0,.456-.774c.59-2.355.158-2.925-2.225-2.895a.8.8,0,0,0-.116,0c-.373.06-.9-.2-.959.5-.045.566.153.9.767.864.44-.022.626.188.61.624-.014.392-.014.731-.491.917a1.655,1.655,0,0,1-2.336-1.443c-.073-.724-.026-1.46-.03-2.191,0-.865.181-1.627,1.138-1.906.861-.251,1.336.178,1.741.914.348.633,1.086.392,1.547.232.539-.186.17-.732.03-1.1a2.9,2.9,0,0,0-3.006-1.692,3.339,3.339,0,0,0-3.187,2.059A5.711,5.711,0,0,0-5399.284,2308.259Zm14.913,4.251c-.856-2.7-1.675-5.339-2.542-7.965-.255-.773-.989-.37-1.515-.453-.552-.087-.812.181-.975.721-.656,2.174-1.375,4.33-2.046,6.5-.364,1.178-.022,1.51,1.17,1.266.567-.116.577-.569.677-.952a.785.785,0,0,1,1.027-.651c.625.133,1.632-.454,1.823.422C-5386.443,2312.819-5385.556,2312.628-5384.371,2312.51Z" transform="translate(-75.206 -0.657)" fill="#2881c5"/>
    <path id="Tracé_28" data-name="Tracé 28" d="M-5494.226,2539.623q.464,2.272.928,4.542c.182.728-.084,1.11-.824,1.35a35.872,35.872,0,0,0-4.516,1.682c-.752.361-1.729.274-2.273,1.063a1.465,1.465,0,0,0-.163,1.1c.6,2.807,1.216,5.611,1.73,8.434a46.68,46.68,0,0,1,1.2,5.847.43.43,0,0,0-.456.156l-14.806-.008c-.615-.02-1.234-.007-1.844-.073-.4-.043-.941.167-1.15-.257-.175-.354.25-.682.416-1.02a13.259,13.259,0,0,0,1.356-2.384.179.179,0,0,0,.094-.161.489.489,0,0,0,.262-.48l0,.015c.352-.1.425-.393.464-.7l-.015.006.217-.276a.1.1,0,0,0,.041-.121,3.962,3.962,0,0,0,1.3-1.972.146.146,0,0,0,.071-.14.535.535,0,0,0,.383-.555.186.186,0,0,0,.07-.158,3.144,3.144,0,0,0,1.067-1.7.18.18,0,0,0,.083-.153,1.209,1.209,0,0,0,.663-.99.125.125,0,0,0,.057-.13c.79-.608.812-1.208-.018-1.8a.168.168,0,0,0-.06-.154,6.982,6.982,0,0,0-1.745-2.68.084.084,0,0,0-.035-.114.8.8,0,0,0-.479-.749.168.168,0,0,0-.078-.154.45.45,0,0,0-.38-.517l.006.014a1.862,1.862,0,0,0-.927-1.447c-.934-1.522-1.863-3.047-2.8-4.566-.362-.586-.208-.832.476-.83q10.732.025,21.465.04A1.133,1.133,0,0,1-5494.226,2539.623Z" transform="translate(-2.532 -194.672)" fill="#d3a131"/>
    <path id="Tracé_29" data-name="Tracé 29" d="M-5495.479,2575.678a6.987,6.987,0,0,1,1.745,2.68A3.417,3.417,0,0,1-5495.479,2575.678Z" transform="translate(-18.751 -222.448)" fill="#d3a131"/>
    <path id="Tracé_30" data-name="Tracé 30" d="M-5502.334,2612.24a3.969,3.969,0,0,1-1.3,1.972C-5503.81,2613.154-5502.958,2612.771-5502.334,2612.24Z" transform="translate(-12.467 -250.549)" fill="#d3a131"/>
    <path id="Tracé_31" data-name="Tracé 31" d="M-5487.681,2587.923c.829.592.808,1.192.018,1.8Z" transform="translate(-24.745 -231.86)" fill="#d3a131"/>
    <path id="Tracé_32" data-name="Tracé 32" d="M-5494.614,2601.2a3.147,3.147,0,0,1-1.068,1.7C-5495.556,2602.193-5495.441,2601.475-5494.614,2601.2Z" transform="translate(-18.595 -242.066)" fill="#d3a131"/>
    <path id="Tracé_33" data-name="Tracé 33" d="M-5503.658,2562.856a1.86,1.86,0,0,1,.927,1.447A1.609,1.609,0,0,1-5503.658,2562.856Z" transform="translate(-12.465 -212.594)" fill="#d3a131"/>
    <path id="Tracé_34" data-name="Tracé 34" d="M-5490.129,2596.263a1.211,1.211,0,0,1-.663.99C-5490.874,2596.721-5490.771,2596.311-5490.129,2596.263Z" transform="translate(-22.335 -238.27)" fill="#d3a131"/>
    <path id="Tracé_35" data-name="Tracé 35" d="M-5497.754,2571.947a.8.8,0,0,1,.479.749A.589.589,0,0,1-5497.754,2571.947Z" transform="translate(-16.989 -219.581)" fill="#d3a131"/>
    <path id="Tracé_36" data-name="Tracé 36" d="M-5506.227,2622.453c-.039.311-.112.6-.464.7C-5506.776,2622.763-5506.641,2622.517-5506.227,2622.453Z" transform="translate(-10.115 -258.399)" fill="#d3a131"/>
    <path id="Tracé_37" data-name="Tracé 37" d="M-5497.331,2609.236a.536.536,0,0,1-.383.556C-5497.786,2609.469-5497.682,2609.267-5497.331,2609.236Z" transform="translate(-17.017 -248.24)" fill="#d3a131"/>
    <path id="Tracé_38" data-name="Tracé 38" d="M-5499.733,2569.048a.45.45,0,0,1,.38.518A.378.378,0,0,1-5499.733,2569.048Z" transform="translate(-15.469 -217.353)" fill="#d3a131"/>
    <path id="Tracé_39" data-name="Tracé 39" d="M-5507.5,2625.43a.488.488,0,0,1-.262.48C-5507.8,2625.684-5507.784,2625.485-5507.5,2625.43Z" transform="translate(-9.297 -260.687)" fill="#d3a131"/>
    <path id="Tracé_40" data-name="Tracé 40" d="M-5504.449,2621.284l-.217.276Z" transform="translate(-11.69 -257.5)" fill="#d3a131"/>
    <path id="Tracé_41" data-name="Tracé 41" d="M-5215.711,2309.631a11.345,11.345,0,0,1,.842-3.659c.618-1.674.98-3.441,1.511-5.149.315-1.017.8-1.981,1.106-3a21.237,21.237,0,0,0,.965-3.487,49.623,49.623,0,0,1,17.756,8.611,46.341,46.341,0,0,1,7.955,7.462,53.54,53.54,0,0,1,8.748,14.475,48.985,48.985,0,0,1,3.228,12.382,47.416,47.416,0,0,1,.061,12.136,9.718,9.718,0,0,0,.006,1.385c-.021.161-.042.323-.063.484a19.832,19.832,0,0,0-.913,4.362,16.289,16.289,0,0,0-.913,3.244c-.236.111-.423.254-.358.558v.031c-.65.036-1.3.1-1.949.1q-14.032.01-28.065,0-13.05-.005-26.1-.022a18.885,18.885,0,0,0,.931-3.451c.026-.11-.023-.266.037-.336a4.694,4.694,0,0,0,.9-2.635c.147-.044.292-.1.442-.133a8.967,8.967,0,0,0,7.438-8.087,40.127,40.127,0,0,0-.526-15.807c.233-.352.606-.491.79-1.006,1.3-3.634,2.083-7.432,3.563-11,.025-.06.119-.091.18-.135a4.115,4.115,0,0,1,.375.579c.415.948,1.251.626,1.913.56.7-.07.354-.751.362-1.133.042-2.04.022-4.081.015-6.121A1.638,1.638,0,0,0-5215.711,2309.631Zm-1.823,28.648c0,1.541-.057,3.083.01,4.621.242,5.569,3.3,10.1,9.712,10.291,5.124.15,9.016-2.566,10.132-7.713.752-3.465.417-6.983.448-10.482a17.578,17.578,0,0,0-.477-4.231,9.264,9.264,0,0,0-9.471-7.525c-5.335-.032-8.635,2.427-9.921,7.343C-5217.766,2333.122-5217.524,2335.707-5217.535,2338.279Zm31.455-12.126c.017-2.668-1.2-4.025-3.612-4.043-2.636-.02-3.93,1.234-3.955,3.834-.025,2.645,1.2,3.992,3.644,4.009C-5187.291,2329.972-5186.1,2328.815-5186.08,2326.154Zm.432,9.386c0,2.6,1.2,3.885,3.62,3.887,2.72,0,4.009-1.253,4-3.9,0-2.56-1.313-3.913-3.788-3.917C-5184.4,2331.6-5185.648,2332.885-5185.648,2335.54Zm-18.585-21.689h.051c0,1.153.035,2.307-.014,3.457-.027.666.2.865.854.844,1.383-.043,2.77-.026,4.153,0,.527.008.856-.04.856-.724s-.232-.878-.873-.842c-.729.042-1.461-.01-2.192.011-.527.015-.736-.183-.771-.73-.057-.869.1-1.432,1.155-1.307.452.053.921-.055,1.38-.033.6.029.771-.22.79-.812.022-.671-.274-.76-.824-.727-.5.029-1-.04-1.5-.033-.622.008-1.074,0-1.09-.889-.016-.914.449-.882,1.064-.865.653.018,1.309-.031,1.961.005.605.034.911-.1.9-.809-.014-.654-.308-.755-.855-.746-1.384.023-2.77.034-4.153-.006-.656-.02-.905.235-.9.863C-5204.224,2311.62-5204.234,2312.735-5204.234,2313.85Zm14.833,24.047c.507-.049.562-.453.733-.728q3.552-5.678,7.077-11.373c.224-.364,1-.816.112-1.278-.652-.338-1.262-1.03-1.968.153-2.269,3.8-4.659,7.527-6.985,11.293-.22.355-.807.747-.43,1.155A4.835,4.835,0,0,0-5189.4,2337.9Zm-23.248-23.214h0c0,.885.05,1.774-.015,2.655-.062.85.444.8,1.015.808.591.01,1.043.015,1.015-.814-.054-1.538.054-3.083-.038-4.617-.068-1.151.214-1.75,1.476-1.529.579.1.83-.132.823-.753s-.255-.8-.836-.794c-1.5.027-3,.01-4.5.019-.552,0-1.174-.184-1.2.771-.029,1.009.652.783,1.167.748.827-.058,1.2.182,1.12,1.083C-5212.709,2313.061-5212.649,2313.875-5212.649,2314.683Zm7.114-.678c0-1.152-.039-2.306.014-3.456.033-.724-.237-.931-.929-.91-.646.02-1.105.036-1.089.9q.063,3.4,0,6.8c-.018.824.417.827,1.007.81.556-.017,1.072.068,1.019-.8C-5205.585,2316.236-5205.534,2315.119-5205.535,2314Z" transform="translate(-221.336 -6.215)" fill="#1370b9"/>
    <path id="Tracé_42" data-name="Tracé 42" d="M-4984.417,2544.493a19.886,19.886,0,0,1,.913-4.364c.345-.023.69-.066,1.035-.066q9.521,0,19.042.006c.539,0,1.077,0,1.616,0,.558,0,.662.242.422.729s-.735.8-.743,1.4a.417.417,0,0,0-.075.194,1.114,1.114,0,0,0-.66.958.14.14,0,0,0-.067.139,3.209,3.209,0,0,0-1.1,1.711.137.137,0,0,0-.056.138,1.861,1.861,0,0,0-.926,1.446l.005-.013a.449.449,0,0,0-.38.517.169.169,0,0,0-.078.154.754.754,0,0,0-.467.733l0-.009a8.2,8.2,0,0,0-1.793,2.819.17.17,0,0,0-.06.154c-.83.592-.81,1.192-.017,1.8a.127.127,0,0,0,.058.131,9.009,9.009,0,0,0,1.813,2.844.182.182,0,0,0,.067.157.538.538,0,0,0,.383.559.138.138,0,0,0,.067.137.539.539,0,0,0,.39.565.128.128,0,0,0,.059.133,2.17,2.17,0,0,0,.853,1.273l.333.569a32.707,32.707,0,0,0,2.128,3.6c.224.39.551.745.388,1.254l-.233.018a12.641,12.641,0,0,0-2.773.011h-14.117l-1.147-.124a4.8,4.8,0,0,1,.032-.806c.923-4.42,1.82-8.846,2.814-13.25.23-1.023.134-1.484-1-1.337,0-.337-.243-.414-.509-.514-1.707-.639-3.386-1.365-5.119-1.92C-4984.281,2545.932-4984.85,2545.584-4984.417,2544.493Z" transform="translate(-411.429 -195.076)" fill="#d3a131"/>
    <path id="Tracé_43" data-name="Tracé 43" d="M-4958.611,2540.571c.008-.591.51-.922.743-1.4s.136-.728-.423-.729c-.538,0-1.077,0-1.615,0q-9.521-.005-19.042-.006c-.345,0-.689.043-1.034.066l.063-.484c6.939,0,13.877-.009,20.816.015.6,0,1.573-.382,1.707.437A1.813,1.813,0,0,1-4958.611,2540.571Z" transform="translate(-414.95 -193.448)" fill="#d3a131"/>
    <path id="Tracé_44" data-name="Tracé 44" d="M-4911.81,2577.9a8.2,8.2,0,0,1,1.793-2.819A3.666,3.666,0,0,1-4911.81,2577.9Z" transform="translate(-467.346 -221.987)" fill="#d3a131"/>
    <path id="Tracé_45" data-name="Tracé 45" d="M-4910.083,2599.1a9.034,9.034,0,0,1-1.812-2.845A4.161,4.161,0,0,1-4910.083,2599.1Z" transform="translate(-467.281 -238.268)" fill="#d3a131"/>
    <path id="Tracé_46" data-name="Tracé 46" d="M-4895.855,2556.58a3.213,3.213,0,0,1,1.1-1.711A1.273,1.273,0,0,1-4895.855,2556.58Z" transform="translate(-479.609 -206.455)" fill="#d3a131"/>
    <path id="Tracé_47" data-name="Tracé 47" d="M-4914.135,2589.722c-.792-.606-.813-1.207.017-1.8Q-4914.127,2588.823-4914.135,2589.722Z" transform="translate(-465.098 -231.86)" fill="#d3a131"/>
    <path id="Tracé_48" data-name="Tracé 48" d="M-4899.032,2616.53a2.166,2.166,0,0,1-.853-1.273A.933.933,0,0,1-4899.032,2616.53Z" transform="translate(-476.511 -252.868)" fill="#d3a131"/>
    <path id="Tracé_49" data-name="Tracé 49" d="M-4900.1,2564.3a1.858,1.858,0,0,1,.927-1.446A1.609,1.609,0,0,1-4900.1,2564.3Z" transform="translate(-476.349 -212.595)" fill="#d3a131"/>
    <path id="Tracé_50" data-name="Tracé 50" d="M-4890.808,2551.087a1.112,1.112,0,0,1,.66-.957C-4890.095,2550.638-4890.2,2551.033-4890.808,2551.087Z" transform="translate(-483.488 -202.813)" fill="#d3a131"/>
    <path id="Tracé_51" data-name="Tracé 51" d="M-4904.071,2572.68a.754.754,0,0,1,.467-.733A.566.566,0,0,1-4904.071,2572.68Z" transform="translate(-473.294 -219.581)" fill="#d3a131"/>
    <path id="Tracé_52" data-name="Tracé 52" d="M-4901.439,2612.806a.539.539,0,0,1-.39-.565C-4901.467,2612.27-4901.362,2612.475-4901.439,2612.806Z" transform="translate(-475.016 -250.55)" fill="#d3a131"/>
    <path id="Tracé_53" data-name="Tracé 53" d="M-4901.724,2569.566a.449.449,0,0,1,.381-.517A.378.378,0,0,1-4901.724,2569.566Z" transform="translate(-475.096 -217.354)" fill="#d3a131"/>
    <path id="Tracé_54" data-name="Tracé 54" d="M-4903.393,2609.791a.537.537,0,0,1-.383-.559C-4903.424,2609.265-4903.318,2609.466-4903.393,2609.791Z" transform="translate(-473.52 -248.237)" fill="#d3a131"/>
    <path id="Tracé_55" data-name="Tracé 55" d="M-5335.218,2577.189c1.133-.147,1.23.314,1,1.338-.994,4.4-1.892,8.83-2.814,13.25a4.744,4.744,0,0,0-.032.806,4.251,4.251,0,0,0-.612,2.441q-.023.226-.046.453a36.315,36.315,0,0,0-1.374,6.254l-.032.452a2.621,2.621,0,0,1-.966.729q-10.433-.025-20.867-.056a3.3,3.3,0,0,0-1.108.269c-.322-.4-.777-.268-1.183-.269q-21.685-.01-43.371,0c-.346,0-.691.031-1.037.048l-13.41-.062c-.362,0-.7.038-.811.475l-.149-.241c.006-.147-.077-.19-.208-.175l-21.512.009c-.641-.146-.839-.565-.995-1.2-.284-1.155-.131-2.429-.882-3.463q-.026-.224-.051-.448a2.712,2.712,0,0,0-.425-1.862l-.06-.45a6.947,6.947,0,0,0-.613-2.925,46.586,46.586,0,0,0-1.2-5.847c-.515-2.823-1.131-5.627-1.73-8.434a1.47,1.47,0,0,1,.163-1.1l8.8,0a.712.712,0,0,1,.207.051c.306.354.718.211,1.086.211q47.512.006,95.026-.007c.366,0,.779.149,1.088-.2a.369.369,0,0,1,.172-.046Zm-59.73,4.651.332-.16a3.3,3.3,0,0,0,2.042-.063l-.016.008c.769-.368.8-1.091.048-1.133-1.405-.08-2.878-.544-4.266.168-.48-.039-.348.514-.637.66a.565.565,0,0,0-.432-.5,2.806,2.806,0,0,0-3.79-.188c-1,.02-.893.75-.907,1.4-.775-.048-.044-1.019-.7-1.141a.326.326,0,0,1-.065-.182.189.189,0,0,0-.189-.238l-.016-.008c-.442-.682-.867-.678-1.289.01l0,.013-1.005.2a.207.207,0,0,1-.075-.138c.039-.216-.044-.442-.231-.47a14.054,14.054,0,0,0-4.8.2c-.346.069-.45.408-.314.746.215.537.413,1.143,1.1,1.2.593.053.658.384.652.856-.012,1.078.022,2.156-.007,3.232-.028,1.026.693.823,1.275.807.563-.015,1.314.237,1.265-.813-.043-.922-.029-1.848,0-2.771.016-.574-.318-1.392.867-1.245.316.039.325-.444.23-.76l.011-.037c.238.1.467.131.437.538-.084,1.1-.038,2.213-.128,3.314a1.736,1.736,0,0,0,1.625,2.142c-.684.485-1.153,1.109-1.876.37-1.036-.55-2.125-.141-3.171-.094-.777.035-.724.947-.9,1.538-.3,1.03-.948,2-.559,3.159a.361.361,0,0,1-.041.2c-.4.007-.508-.3-.611-.589-.258-.722-.439-1.478-.76-2.169-.283-.609-.075-1.48-.915-1.8l-.019-.017c-.06-.687-.6-.513-.944-.433a10.03,10.03,0,0,1-2.028.177c-.377,0-.7.355-1.1.186a.628.628,0,0,0-.851-.386c-1.47.388-2.949-.049-4.43.1-1.9.2-1.947.127-1.916,2.051.036,2.178.176,4.356.173,6.533,0,1.4.159,1.668,1.561,1.674s2.823-.015,4.233.016a1.128,1.128,0,0,0,1.23-.631.93.93,0,0,1,1,.287c.228.236.616.554.858-.057l.371-.019c2.387.876,1.24-1.239,1.6-2.078.869.726.2,2.354,1.736,2.49,1.284.113,1.93-.6,2.135-1.845.2.17.295.208.3.262.326,1.739.628,2.008,2.61,1.645,1.007-.184.891-1.189.891-1.994,0-1.888,0-3.777.007-5.665,0-.239-.108-.617.3-.619a.456.456,0,0,1,.409.592c-.227.831.3,1.563.231,2.379-.109,1.254-.126,2.516-.159,3.775a1.293,1.293,0,0,0,1.453,1.464,24.15,24.15,0,0,0,2.888,0c1.6-.166,3.3-.242,3.857-2.244.064-.23-.057-.573.377-.655a2.211,2.211,0,0,1,.239.352,4.673,4.673,0,0,0,7.026,1.636c1.76-1.314,1.909-5.538,1.1-7.15-.205-.41-.29-1.022-.985-.963l-.045-.046c.043-.777-.63-.858-1.1-1.153-.261-.165-.94-.192-.688-.543.316-.442.441-1.182,1.164-1.254.39-.038.783-.022.851.525.078.625.556.686,1.036.631a8.958,8.958,0,0,1,2.71.06c.5.1.619-.146.583-.571a.3.3,0,0,1,.065-.159c.7-.229.285-.481.016-.731,0-.14,0-.28-.005-.42a1.231,1.231,0,0,0,0-1.426q0-.443,0-.886c.149-.088.154-.18.008-.277q0-.322,0-.643c1.6-.075,1.562-.073,1.616,1.532.033.958-.276,1.95.219,2.873l.2.254c.869.749,1.411.66,1.662-.272a.473.473,0,0,1,.034-.209,8.779,8.779,0,0,0,.167-2.955c.037-.639-.018-1.21.891-1.31a.924.924,0,0,0,.854-1.046c-.081-.7-.6-.692-1.172-.783-1.755-.281-3.493.306-5.237.023-1.065-.173-1.423.277-1.356,1.34.083,1.329.02,2.667.02,4a4.61,4.61,0,0,1-.72-1.505c-.358-.906-.257-1.992-1.062-2.723q-.127-.338-.255-.677a1.518,1.518,0,0,0-2.625.662c-.4,1.276-.85,2.538-1.231,3.82-.273.916-.687,1.93.892,2.173a1.908,1.908,0,0,1-1.317.32,4.114,4.114,0,0,0-3.81,4.112,2.557,2.557,0,0,1-.2,1.315c-.075.142-.278.049-.385-.077-.382-.448-.06-.87.055-1.3.02-.074.042-.148.063-.221a2.618,2.618,0,0,0-1.69-3.386c-.312-.115-.694-.112-.916-.429.243-.14.545-.2.689-.48.242-.285.583-.216.9-.249l.248-.231.06-.4.584.224a1.208,1.208,0,0,0,1.44.387c.571-.128.454-.76.4-1.181-.119-.872.286-1.238,1.073-1.343l.763.009-.008.066,0-.066a.162.162,0,0,0,.144-.052c.518.118.583-.2.579-.593a.688.688,0,0,0-.591-.737,2.458,2.458,0,0,0-1.581.123l-.3-.134Zm25.247,2.978c.031.324-.161.728.318.894l.355.3a.517.517,0,0,0,0,.192c0,1,.882.9,1.409.93.954.046,2.114.56,2.758-.708l0,0a.787.787,0,0,0,.832-.788,14.207,14.207,0,0,0-.124-4.954c-1.149-.591-1.767-.274-1.779.914q-.012,1.27-.018,2.54c0,.655.111,1.423-.888,1.4-.97-.023-.832-.8-.894-1.445a20.037,20.037,0,0,0-.127-3.211c-.017-.136-.033-.272-.049-.409-.542-.6-1.25-.36-1.783-.15-.453.179-.21.81-.152,1.253,0,.081,0,.161,0,.242-.442.23-.42-.223-.516-.4a1.32,1.32,0,0,0-1.162-.816l-.444-.253a2.179,2.179,0,0,0-2.867.268,1.4,1.4,0,0,0-1.321,1.475,18.61,18.61,0,0,0-.014,2.64,1.677,1.677,0,0,0,.853,1.52c.8,1.285,2.353,1.475,3.8.466.784-.059,1.114-.6,1.313-1.26.087-.289.053-.638.495-.642Zm-11.153,3.2c-.318.362-.128.813-.216,1.211-.361,1.653.062,3.349-.288,5-.134.631-.421,1.257-1.186,1.136a1.227,1.227,0,0,1-1.045-1.42c.05-1.6-.054-3.207.108-4.791.073-.717-.1-1.258-.632-1.392-.735-.186-1.619-.568-2.282.271-.317.317-.211.72-.211,1.094,0,1.847.007,3.694.014,5.54a2.739,2.739,0,0,0,1.955,2.917,6.438,6.438,0,0,0,3.623.339,3.45,3.45,0,0,0,2.973-3.646c0-1.731.013-3.463,0-5.194,0-.4.159-.883-.415-1.067A1.707,1.707,0,0,0-5380.854,2588.021Zm-40.923-2.275a1.942,1.942,0,0,0,2.1,1.383c.226.295.462.249.705.022a2.148,2.148,0,0,0,1.621-.258,1.48,1.48,0,0,1,1.3-.171c.707.819,1.424.5,1.908-.158.636-.862,1.009-.908,1.556.059.419.74,1.249.608,1.883.413s.385-.835.261-1.3c-.3-1.113-.573-2.237-.971-3.314-.228-.615-.2-1.376-.833-1.811a1.483,1.483,0,0,0-2.565.608c-.3.986-.628,1.965-.931,2.951-.06.194-.115.386-.336.406s-.3-.161-.388-.347a1.287,1.287,0,0,0-.381-.554c-.792-.511-.424-.809.168-1.08.368-.168.6-.254.365-.822a2.788,2.788,0,0,0-3.159-1.792c-1.826.105-2.506.959-2.3,2.754.076.669.623.918.938,1.37l-.02.247-.684.017c-.1-.1-.264-.314-.295-.3a1.369,1.369,0,0,0-.59,1.041C-5422.494,2585.541-5422.167,2585.709-5421.777,2585.746Zm65.827,1.991c.825-.149,1.162-.909,1.782-1.276.228-.135.534-.519.088-.728a2.749,2.749,0,0,0-2.14-.011c-.646.239-1.282.93-1.167,1.44.271,1.209-.531.755-.971.776-.643.03-1.21-.073-1.19.918.053,2.617.015,5.237,0,7.855,0,.468.064.874.65.878,1.807.014,3.615.023,5.422.018.833,0,.846-.6.851-1.213,0-.656-.313-.882-.934-.86-.77.027-1.541,0-2.311.012-.733.014-1.036-.32-1.02-1.056.016-.7.35-.959,1.011-.934.538.021,1.08-.016,1.617.017.737.045,1.051-.265,1.054-1.008,0-.784-.408-1-1.1-.974-.539.022-1.079,0-1.617.023-.612.023-.939-.221-.946-.867-.006-.6.325-.823.865-.832.809-.013,1.62-.063,2.424-.009s.95-.318.97-1.028c.021-.74-.275-.947-.943-.949A6.262,6.262,0,0,1-5355.95,2587.737Zm-20.89,4.981h-.012q0,1.906,0,3.812c0,.432,0,.841.559.99,1.41.377,1.98-.039,1.987-1.494,0-.308,0-.616,0-.924-.016-.579.02-1.1.808-1.105.706-.009,1.344.078,1.5.915.083.451.054.922.119,1.378a1.83,1.83,0,0,0,2.644,1.136c.107-.079.236-.282.2-.372-.448-1.212.115-2.678-.909-3.732-.354-.364-.256-.6-.008-.98a2.671,2.671,0,0,0-2.087-4.291c-1.221-.1-2.466.06-3.682-.073-1.026-.112-1.171.3-1.13,1.16C-5376.8,2590.33-5376.84,2591.525-5376.84,2592.718Zm-55.811,0h.007q0,1.677,0,3.354c0,1.494.012,1.459,1.463,1.466.857,0,1.212-.289,1.108-1.151a8.372,8.372,0,0,1-.006-1.156c.01-.572-.1-1.2.792-1.244.79-.037,1.391.2,1.564,1.026a13.368,13.368,0,0,1,.133,1.493c.04.426.057.917.613.969a4.041,4.041,0,0,0,2.039-.1.436.436,0,0,0,.114-.406c-.536-1.19.031-2.665-.969-3.731-.33-.351-.067-.643.119-.927a2.735,2.735,0,0,0-2.2-4.276c-1.271,0-2.544-.024-3.815-.061-.743-.021-1.01.294-.979,1.041C-5432.614,2590.246-5432.651,2591.481-5432.651,2592.715Zm68.146-4.949c-.362.045-.749.068-1.125.143a2.707,2.707,0,0,0-2.466,2.24,2.639,2.639,0,0,0,1.886,2.951c.671.291,1.369.519,2.039.813.491.216,1.1.46.813,1.158-.267.652-.865.676-1.478.488a1.651,1.651,0,0,1-.946-.79c-.279-.457-1.936-.77-2.283-.4-.564.6-.174,1.235.171,1.78a2.679,2.679,0,0,0,.83.788,5.276,5.276,0,0,0,3.892.626c1.652-.295,2.359-.91,2.513-2.245a2.663,2.663,0,0,0-1.947-3.124c-.674-.275-1.358-.527-2.035-.8-.563-.224-1.022-.594-.585-1.208.393-.551,1.024-.449,1.563-.146.183.1.268.368.424.533.359.381,2.146.553,2.372.177.432-.722.008-1.295-.463-1.845A4.031,4.031,0,0,0-5364.5,2587.766Z" transform="translate(-53.898 -223.589)" fill="#f2c64f"/>
    <path id="Tracé_56" data-name="Tracé 56" d="M-5275.622,2688.153c.346-.017.691-.048,1.037-.048q21.686,0,43.371,0c.407,0,.861-.136,1.184.268a53.2,53.2,0,0,1-15.825,7.664,52.262,52.262,0,0,1-18.222,1.765,40.969,40.969,0,0,1-13.876-3.166c.951-.667.895-1.793,1.174-2.737C-5276.408,2690.649-5275.679,2689.5-5275.622,2688.153Z" transform="translate(-185.937 -308.845)" fill="#1370b9"/>
    <path id="Tracé_57" data-name="Tracé 57" d="M-5315.108,2688.166c-.058,1.349-.786,2.5-1.157,3.75-.28.945-.224,2.07-1.174,2.737a30.4,30.4,0,0,1-6.486-2.872c-1.829-1.018-3.6-2.131-5.4-3.2.106-.437.449-.476.811-.475Z" transform="translate(-146.45 -308.857)" fill="#2881c5"/>
    <path id="Tracé_58" data-name="Tracé 58" d="M-4971.609,2662.553a36.365,36.365,0,0,1,1.374-6.254c.045.061.137.128.128.181a31.415,31.415,0,0,1-1.3,5.985C-4971.421,2662.513-4971.538,2662.524-4971.609,2662.553Z" transform="translate(-421.386 -284.412)" fill="#d3a131"/>
    <path id="Tracé_59" data-name="Tracé 59" d="M-5432.058,2668.261c.751,1.034.6,2.308.882,3.462.155.632.354,1.051.994,1.2-.525.886-1.045.132-1.127-.179A12.154,12.154,0,0,1-5432.058,2668.261Z" transform="translate(-67.468 -293.606)" fill="#d3a131"/>
    <path id="Tracé_60" data-name="Tracé 60" d="M-4965.473,2646.235a4.251,4.251,0,0,1,.611-2.441l1.146.124c-.652.31-1.227.651-1.266,1.515C-4964.992,2645.71-4965.043,2646.134-4965.473,2646.235Z" transform="translate(-426.102 -274.801)" fill="#d3a131"/>
    <path id="Tracé_61" data-name="Tracé 61" d="M-5438.417,2643.675a6.953,6.953,0,0,1,.613,2.925c-.709-.787-.444-1.949-1.069-2.768A.429.429,0,0,1-5438.417,2643.675Z" transform="translate(-62.257 -274.704)" fill="#d3a131"/>
    <path id="Tracé_62" data-name="Tracé 62" d="M-5434.539,2658.276a2.712,2.712,0,0,1,.425,1.862A1.488,1.488,0,0,1-5434.539,2658.276Z" transform="translate(-65.462 -285.932)" fill="#d3a131"/>
    <path id="Tracé_63" data-name="Tracé 63" d="M-4975.921,2686a2.617,2.617,0,0,0,.965-.728c.447.5.029.773-.3,1.011C-4975.563,2686.512-4975.837,2686.428-4975.921,2686Z" transform="translate(-418.072 -306.683)" fill="#d3a131"/>
    <path id="Tracé_64" data-name="Tracé 64" d="M-4896.874,2644.051a12.672,12.672,0,0,1,2.773-.011A3.841,3.841,0,0,1-4896.874,2644.051Z" transform="translate(-478.825 -274.933)" fill="#d3a131"/>
    <path id="Tracé_65" data-name="Tracé 65" d="M-5330.874,2688.349c.131-.015.214.028.209.175Z" transform="translate(-145.263 -309.043)" fill="#d3a131"/>
    <path id="Tracé_66" data-name="Tracé 66" d="M-5257.5,2364.8c0-1.118.031-2.237-.011-3.354-.028-.732.2-1.066.981-1.022.922.052,1.854-.037,2.774.034a2.862,2.862,0,0,1,2.555,1.53,1.968,1.968,0,0,1-.564,2.592c-.306.246-.224.444.059.625a1.935,1.935,0,0,1,.791,1.922,1.8,1.8,0,0,0,.02.461c.088.4.037,1.008.485,1.07.517.071.53-.57.648-.932.7-2.121,1.395-4.243,2-6.391.239-.845.729-.9,1.446-.913a1.125,1.125,0,0,1,1.31.945c.638,2.179,1.364,4.332,2.026,6.5.1.323.6.876-.051.995-.545.1-1.337.419-1.732-.4-.177-.366-.076-.988-.522-1.078a9.094,9.094,0,0,0-2.069-.055c-.458.014-.488.409-.55.756a.912.912,0,0,1-1.118.848,13.092,13.092,0,0,0-2.416,0c-1.167.128-1.5-.446-1.467-1.468.023-.659.077-1.358-.671-1.7-1.106-.5-1.786-.03-1.795,1.211,0,.27,0,.54,0,.81-.029,1.043-.792,1.5-1.8,1.109-.356-.137-.3-.391-.3-.653q0-1.728,0-3.455Zm2.814-.641c.868-.071,1.689.071,1.715-.97.023-.973-.607-1.18-1.452-1.219-.826-.038-1.081.281-1.061,1.074C-5255.47,2363.759-5255.429,2364.317-5254.688,2364.163Zm8.356-1a3.263,3.263,0,0,0-.655,1.658c-.079.31-.392.693-.014.942a1.2,1.2,0,0,0,1.212.012c.4-.23.078-.632,0-.932C-5245.918,2364.29-5246.132,2363.759-5246.332,2363.159Z" transform="translate(-201.644 -57.009)" fill="#e8f3f6"/>
    <path id="Tracé_67" data-name="Tracé 67" d="M-5184.7,2360.348a1.64,1.64,0,0,1,.234,1.208c.008,2.04.028,4.081-.015,6.121-.008.383.342,1.063-.361,1.134-.662.066-1.5.387-1.913-.56a4.117,4.117,0,0,0-.375-.579l-2.2-3.925a18,18,0,0,0-.137,4.19c0,1.22-.771.864-1.4.915-.869.071-.614-.513-.611-1,.015-2.041-.031-4.083.034-6.123.014-.437-.437-1.206.4-1.335.77-.119,1.579-.217,2.056.784.61,1.283,1.382,2.489,2.087,3.726.089.156.2.3.414.628a16.1,16.1,0,0,0,.122-3.449C-5186.323,2360.385-5186.385,2360.383-5184.7,2360.348Z" transform="translate(-252.343 -56.931)" fill="#e8f3f6"/>
    <path id="Tracé_68" data-name="Tracé 68" d="M-5323.815,2364.125a5.722,5.722,0,0,1,.263-2.274,3.341,3.341,0,0,1,3.187-2.059,2.9,2.9,0,0,1,3.006,1.692c.141.365.509.911-.03,1.1-.461.159-1.2.4-1.547-.232-.4-.736-.879-1.165-1.741-.915-.957.279-1.143,1.042-1.138,1.906,0,.731-.043,1.467.029,2.191a1.655,1.655,0,0,0,2.337,1.444c.477-.186.478-.526.491-.918.016-.435-.17-.646-.61-.624-.614.031-.812-.3-.767-.864.055-.694.586-.435.959-.495a.794.794,0,0,1,.116,0c2.383-.031,2.815.54,2.225,2.895a1.254,1.254,0,0,1-.456.774,4.372,4.372,0,0,1-4.482.5,3.18,3.18,0,0,1-1.842-3.2Z" transform="translate(-150.675 -56.522)" fill="#e8f3f6"/>
    <path id="Tracé_69" data-name="Tracé 69" d="M-5283.283,2368.822c-1.185.118-2.072.31-2.381-1.113-.19-.876-1.2-.288-1.822-.421a.785.785,0,0,0-1.027.651c-.1.383-.109.835-.678.952-1.192.244-1.534-.088-1.17-1.266.672-2.17,1.39-4.325,2.046-6.5.163-.54.423-.808.975-.721.526.083,1.259-.32,1.515.453C-5284.958,2363.482-5284.14,2366.125-5283.283,2368.822Zm-3.722-5.924c-.254.742-.47,1.312-.64,1.894-.09.307-.354.7.033.933a1.232,1.232,0,0,0,1.216,0c.409-.239.057-.622-.019-.922C-5286.561,2364.217-5286.769,2363.646-5287.005,2362.9Z" transform="translate(-176.293 -56.968)" fill="#e8f3f6"/>
    <path id="Tracé_70" data-name="Tracé 70" d="M-5369.423,2575.844q13.05.011,26.1.021,14.032.006,28.064,0c.65,0,1.3-.067,1.949-.1.018.115.035.229.052.344a.366.366,0,0,0-.172.046c-.307-.012-.615-.035-.922-.035q-47.678-.007-95.356-.008c-.307,0-.614.025-.921.039a.719.719,0,0,0-.205-.051q.072-.1.141-.206l39.768-.018C-5370.424,2575.871-5369.923,2575.854-5369.423,2575.844Z" transform="translate(-83.808 -222.511)" fill="#2d7a8c"/>
    <path id="Tracé_71" data-name="Tracé 71" d="M-5439.925,2563.417q-.07.1-.141.206l-8.8,0c.546-.789,1.521-.7,2.274-1.063a35.885,35.885,0,0,1,4.516-1.682c.739-.239,1.005-.621.823-1.349a15.881,15.881,0,0,1,.816,2.908C-5440.35,2562.822-5440.3,2563.2-5439.925,2563.417Z" transform="translate(-54.574 -210.039)" fill="#a77f26"/>
    <path id="Tracé_72" data-name="Tracé 72" d="M-5059.054,2418.4c-.017,2.662-1.211,3.818-3.922,3.8-2.444-.017-3.669-1.364-3.644-4.009.024-2.6,1.319-3.854,3.955-3.834C-5060.249,2414.373-5059.037,2415.729-5059.054,2418.4Zm-4.906.237c0,.459-.04,1.321,1.17,1.3,1.084-.018,1.2-.821,1.193-1.606-.011-.816-.117-1.7-1.247-1.7C-5063.94,2416.635-5063.965,2417.457-5063.96,2418.635Z" transform="translate(-348.362 -98.459)" fill="#e8f3f6"/>
    <path id="Tracé_73" data-name="Tracé 73" d="M-5032.059,2459.324c0-2.655,1.25-3.937,3.835-3.933,2.475,0,3.783,1.357,3.788,3.917,0,2.65-1.283,3.906-4,3.9C-5030.861,2463.208-5032.06,2461.922-5032.059,2459.324Zm4.954-.014c-.059-.624.1-1.574-1.095-1.642-1.051-.06-1.271.663-1.288,1.521-.025,1.242.361,1.759,1.29,1.782C-5027.094,2461-5027.1,2460.238-5027.1,2459.309Z" transform="translate(-374.926 -129.999)" fill="#e8f3f6"/>
    <path id="Tracé_74" data-name="Tracé 74" d="M-5112.385,2364.68c0-1.115.011-2.231,0-3.346-.008-.628.241-.883.9-.863,1.384.041,2.77.03,4.153.006.548-.009.841.092.855.746.015.706-.291.842-.9.809-.652-.036-1.308.012-1.961-.005-.615-.017-1.08-.049-1.063.865.015.891.467.9,1.089.889.5-.007,1,.063,1.5.033.55-.032.846.056.824.728-.019.591-.188.84-.79.812-.459-.022-.928.086-1.38.033-1.059-.125-1.212.438-1.155,1.307.036.547.244.746.771.73.73-.021,1.464.031,2.192-.011.64-.036.872.168.872.842s-.329.731-.856.724c-1.384-.021-2.77-.038-4.153,0-.652.02-.882-.178-.854-.844.048-1.15.013-2.3.013-3.457Z" transform="translate(-313.186 -57.044)" fill="#e8f3f6"/>
    <path id="Tracé_75" data-name="Tracé 75" d="M-5053.537,2436.444a4.827,4.827,0,0,1-1.462-.778c-.376-.408.21-.8.43-1.155,2.326-3.766,4.716-7.494,6.985-11.293.706-1.183,1.316-.49,1.968-.153.891.462.111.914-.112,1.278q-3.511,5.7-7.077,11.374C-5052.977,2435.991-5053.031,2436.4-5053.537,2436.444Z" transform="translate(-357.199 -104.761)" fill="#e8f3f6"/>
    <path id="Tracé_76" data-name="Tracé 76" d="M-5156.274,2365.51c0-.808-.06-1.622.016-2.423.085-.9-.292-1.142-1.12-1.084-.514.036-1.2.262-1.166-.748.028-.955.65-.768,1.2-.771,1.5-.009,3,.008,4.5-.018.581-.01.83.181.836.794s-.244.854-.823.753c-1.262-.22-1.544.378-1.476,1.529.092,1.534-.017,3.079.037,4.617.029.828-.424.823-1.015.814-.571-.01-1.077.042-1.015-.808.064-.881.014-1.77.014-2.655Z" transform="translate(-277.711 -57.041)" fill="#e8f3f6"/>
    <path id="Tracé_77" data-name="Tracé 77" d="M-5124.659,2364.825c0,1.114-.051,2.231.017,3.341.053.865-.463.781-1.019.8-.59.018-1.024.015-1.007-.81q.072-3.4,0-6.8c-.016-.861.444-.878,1.089-.9.692-.021.962.186.929.91C-5124.7,2362.518-5124.66,2363.672-5124.659,2364.825Z" transform="translate(-302.211 -57.034)" fill="#e8f3f6"/>
    <path id="Tracé_78" data-name="Tracé 78" d="M-4989.371,2563.375q-.026-.172-.052-.344V2563c.337-.046.421-.255.359-.557a16.226,16.226,0,0,1,.913-3.244c-.433,1.093.135,1.441,1.1,1.75,1.733.555,3.412,1.281,5.119,1.921.267.1.505.176.509.514Z" transform="translate(-407.694 -209.782)" fill="#a77f26"/>
    <path id="Tracé_79" data-name="Tracé 79" d="M-4989.107,2573.215c.062.3-.021.512-.358.558C-4989.529,2573.469-4989.343,2573.326-4989.107,2573.215Z" transform="translate(-407.652 -220.555)" fill="#2d7a8c"/>
    <path id="Tracé_80" data-name="Tracé 80" d="M-5289.207,2597.533c.724.739,1.192.115,1.875-.37a1.735,1.735,0,0,1-1.624-2.142c.089-1.1.042-2.212.127-3.313.031-.406-.2-.436-.436-.538.01-.27.02-.541.03-.812l1-.2c-.029,1.794-.05,3.589-.091,5.383-.013.554.148.852.772.858.667.006.845-.284.839-.908-.015-1.643.026-3.285.045-4.928.654.123-.078,1.093.7,1.141q.007.557.015,1.114c-.475-.131-.587.14-.374.456.164.242.027.942.326.689.334-.284,1.111.656.976-.4l.472-.028-.01,0c.134.293.4.253.653.268l.024.014c-.174.278.5.81-.272.909l-.453-.3a.783.783,0,0,0-1.092.054l-.031.034c-.583.169-.21.579-.224.891-.71.365-.651,1.2-.76,1.744-.083.414.814-.045,1.259.131a5.492,5.492,0,0,0,.879.2l1.853-.207c.222.317.6.313.917.429a2.619,2.619,0,0,1,1.69,3.386c-.021.074-.043.147-.063.222-.115.429-.436.851-.055,1.3.107.126.31.219.384.077a2.551,2.551,0,0,0,.2-1.315,4.113,4.113,0,0,1,3.81-4.112,1.909,1.909,0,0,0,1.316-.32c-1.58-.243-1.166-1.257-.893-2.173.383-1.281.831-2.544,1.232-3.82a1.518,1.518,0,0,1,2.624-.662l-.081.071c-1.817-.241-1.814-.24-2.362,1.426-.384,1.167-.776,2.332-1.16,3.5-.115.352-.4.823.069,1.012a1,1,0,0,0,1.392-.393,1.14,1.14,0,0,1,2.135.04c.339.6.85.514,1.3.375.558-.172.238-.618.136-.962q-.639-2.154-1.284-4.307l.11-.085c.8.731.7,1.817,1.061,2.723a4.6,4.6,0,0,0,.721,1.505c0-1.334.063-2.672-.021-4-.067-1.063.292-1.512,1.357-1.34,1.744.283,3.482-.3,5.237-.023.572.092,1.09.081,1.172.783a.926.926,0,0,1-.855,1.046c-.908.1-.854.67-.891,1.309a8.752,8.752,0,0,1-.167,2.955l-.124-.24c.011-.5-.01-1,.039-1.5.1-.974-.282-2,.3-2.92.416.035,1,.158,1.036-.386.043-.617-.55-.566-1.015-.564-.8,0-1.6-.043-2.405-.025-.428.009-1.092-.106-1.079.516.013.6.657.476,1.1.494a1.1,1.1,0,0,1,.311.833c-.024,1.338-.036,2.677-.053,4.016-.495-.924-.186-1.916-.218-2.874-.055-1.605-.013-1.607-1.616-1.533a3.968,3.968,0,0,1-.04-.454c.015-.544.119-1.146-.735-1.1-.694.035-1.111.252-1.042,1.108.1,1.219.031,2.451.073,3.676.052,1.531.068,1.53,1.668,1.316.036.426-.081.666-.583.571a8.947,8.947,0,0,0-2.71-.06c-.48.055-.958-.005-1.036-.631-.067-.548-.461-.563-.851-.525-.723.071-.847.812-1.163,1.254-.251.351.427.379.688.543.469.3,1.141.375,1.1,1.153a3.667,3.667,0,0,1-.391-.225,4.322,4.322,0,0,0-4.6-.425,3.437,3.437,0,0,0-2.06,3.567c.051.729,0,1.465.028,2.2a3.558,3.558,0,0,0,3.446,3.519c2.113.224,4.168-.882,4.408-2.7.262-1.983.58-4.08-.79-5.891.7-.059.78.553.985.964.808,1.612.658,5.836-1.1,7.149a4.673,4.673,0,0,1-7.026-1.636,2.244,2.244,0,0,0-.239-.352c-.435.082-.313.425-.377.655-.557,2-2.262,2.079-3.858,2.245a24.091,24.091,0,0,1-2.888,0,1.292,1.292,0,0,1-1.453-1.463c.032-1.259.05-2.522.159-3.775.071-.817-.458-1.548-.231-2.379a.456.456,0,0,0-.409-.592c-.411,0-.3.38-.3.619-.011,1.888-.007,3.776-.007,5.665,0,.805.116,1.81-.891,1.995-1.982.363-2.284.094-2.61-1.645-.01-.054-.1-.092-.3-.262-.2,1.245-.851,1.958-2.135,1.844-1.539-.136-.867-1.764-1.736-2.49-.36.839.787,2.955-1.6,2.079,1.027.04,1.415-.414,1.217-1.447a7.66,7.66,0,0,1-.034-1.585c.014-.7.345-.519.7-.235.226.724.472,1.444.673,2.175a1.13,1.13,0,0,0,1.23.924c.728.019,1.011-.346,1.2-.95.182-.577.414-1.138.624-1.706.305-.127.227-.644.64-.666.2,1.045-.19,2.105.208,3.116.454.3.965.139,1.451.186.68.065.954-.222.944-.921-.041-2.786-.044-5.573-.062-8.359C-5289.229,2597.7-5289.218,2597.617-5289.207,2597.533Zm4.649,9.538a9,9,0,0,0,2.736-.241,2.538,2.538,0,0,0,1.07-4.127c-.4-.419-.332-.6-.081-1.026a2.337,2.337,0,0,0-1.447-3.712c-1.353-.445-2.75-.15-4.122-.244-.857-.059-1.037.322-1.023,1.079.034,1.885,0,3.772,0,5.657C-5287.416,2607.052-5287.413,2607.052-5284.558,2607.07Zm-3.785-8.821c-.194.073-.35.193-.262.418.048.124.192.31.274.3.215-.026.283-.232.275-.435A.271.271,0,0,0-5288.343,2598.25Z" transform="translate(-170.505 -233.263)" fill="#c2c080"/>
    <path id="Tracé_81" data-name="Tracé 81" d="M-5293.733,2624.21c.018,2.786.021,5.573.062,8.359.01.7-.265.986-.943.921-.486-.047-1,.111-1.451-.184q0-2.074,0-4.152a2.661,2.661,0,0,0-.85,1.7c-.21.568-.441,1.129-.623,1.706-.19.6-.474.969-1.2.95a1.129,1.129,0,0,1-1.229-.924c-.2-.731-.446-1.451-.673-2.175a7.1,7.1,0,0,0-.925-2.118c0,1.258,0,2.215,0,3.171-.011,2.123.209,1.762-1.674,2.039-.549-.081-.465-.513-.5-.887-.2-2.189-.062-4.382-.082-6.573a3.244,3.244,0,0,1,.175-1.906l2.971.04.019.016a39.653,39.653,0,0,0,1.959,5.788c.156-.583.426-.844.327-1.226a.362.362,0,0,0,.042-.2,5.1,5.1,0,0,0,.7-1.806C-5296.682,2624-5296.687,2624-5293.733,2624.21Z" transform="translate(-166.011 -259.687)" fill="#1c71b0"/>
    <path id="Tracé_82" data-name="Tracé 82" d="M-5056.382,2615.46a6.264,6.264,0,0,0,2.4.195c.668,0,.964.208.943.948-.02.711-.162,1.083-.97,1.028s-1.617,0-2.425.009c-.54.008-.871.228-.864.831.006.646.333.89.945.866.539-.021,1.079,0,1.617-.023.689-.028,1.1.189,1.1.974,0,.743-.316,1.053-1.054,1.008-.538-.033-1.079,0-1.617-.016-.66-.025-1,.229-1.01.934-.016.736.287,1.071,1.02,1.056.77-.015,1.541.015,2.311-.012.621-.022.939.2.934.86,0,.616-.018,1.21-.851,1.213-1.807.005-3.615,0-5.422-.018-.586,0-.651-.41-.65-.878.01-2.619.049-5.238,0-7.855-.02-.991.547-.888,1.189-.918.44-.021,1.242.433.971-.776-.115-.511.521-1.2,1.167-1.441a2.748,2.748,0,0,1,2.14.011c.446.209.139.594-.088.728C-5055.221,2614.55-5055.558,2615.311-5056.382,2615.46Z" transform="translate(-353.466 -251.312)" fill="#2173ad"/>
    <path id="Tracé_83" data-name="Tracé 83" d="M-5134.771,2628.58c0-1.193.043-2.389-.014-3.579-.041-.859.1-1.272,1.13-1.16,1.215.133,2.46-.028,3.682.072a2.672,2.672,0,0,1,2.087,4.291c-.248.383-.346.616.008.98,1.024,1.054.46,2.52.908,3.732.034.09-.1.293-.2.372a1.83,1.83,0,0,1-2.643-1.136c-.065-.456-.036-.927-.119-1.378-.154-.836-.792-.924-1.5-.915-.788.01-.824.526-.809,1.105.009.308.007.616.005.924-.007,1.455-.578,1.871-1.988,1.493-.558-.149-.558-.558-.559-.99q0-1.906,0-3.812Zm3.217-.687c.86-.086,1.646-.108,1.591-1.093-.051-.909-.765-1-1.5-1.047-.833-.055-.808.464-.792,1.036C-5132.238,2627.38-5132.315,2628.016-5131.554,2627.893Z" transform="translate(-295.967 -259.451)" fill="#2173ad"/>
    <path id="Tracé_84" data-name="Tracé 84" d="M-5375.921,2628.615c0-1.234.037-2.469-.014-3.7-.032-.747.235-1.062.979-1.041,1.271.037,2.543.065,3.814.061a2.735,2.735,0,0,1,2.2,4.276c-.186.283-.448.576-.119.927,1,1.066.433,2.541.969,3.731a.435.435,0,0,1-.114.405,4.044,4.044,0,0,1-2.039.1c-.556-.051-.573-.543-.613-.969a13.254,13.254,0,0,0-.133-1.492c-.173-.83-.774-1.063-1.564-1.026-.887.042-.781.672-.792,1.244a8.375,8.375,0,0,0,.006,1.156c.1.862-.25,1.155-1.108,1.15-1.451-.007-1.462.028-1.463-1.466q0-1.678,0-3.354Zm2.546-1.694c-.121.672.092,1.122.964,1.038.678-.064,1.39-.121,1.39-1,0-.929-.646-1.18-1.481-1.2S-5373.483,2626.163-5373.375,2626.921Z" transform="translate(-110.628 -259.49)" fill="#1c71b0"/>
    <path id="Tracé_85" data-name="Tracé 85" d="M-5094.167,2622.98a4.03,4.03,0,0,1,3.175,1.145c.471.55.895,1.123.463,1.845-.225.377-2.013.2-2.372-.177-.157-.166-.242-.43-.425-.533-.539-.3-1.171-.405-1.563.146-.438.614.022.983.584,1.207.677.271,1.36.522,2.035.8a2.663,2.663,0,0,1,1.947,3.124c-.153,1.335-.861,1.95-2.513,2.245a5.277,5.277,0,0,1-3.893-.626,2.679,2.679,0,0,1-.83-.788c-.345-.545-.735-1.175-.17-1.78.347-.372,2-.059,2.283.4a1.65,1.65,0,0,0,.946.79c.613.188,1.211.164,1.478-.488.286-.7-.322-.942-.813-1.158-.669-.294-1.368-.522-2.039-.813a2.639,2.639,0,0,1-1.887-2.951,2.708,2.708,0,0,1,2.466-2.241C-5094.916,2623.048-5094.53,2623.025-5094.167,2622.98Z" transform="translate(-324.236 -258.804)" fill="#2173ad"/>
    <path id="Tracé_86" data-name="Tracé 86" d="M-5409.948,2577.3c.308-.013.615-.039.922-.039q47.678,0,95.355.008c.307,0,.615.023.922.035-.31.35-.722.2-1.088.2q-47.513.013-95.026.007C-5409.23,2577.511-5409.643,2577.653-5409.948,2577.3Z" transform="translate(-84.488 -223.665)" fill="#adcfa4"/>
    <path id="Tracé_87" data-name="Tracé 87" d="M-5101.688,2596.946a.506.506,0,0,1,0-.192,24.061,24.061,0,0,1-.213-4.2c.03-1.166.211-1.29,1.385-.925a19.982,19.982,0,0,1,.127,3.211c.063.642-.076,1.422.894,1.445,1,.024.884-.744.887-1.4q.007-1.27.019-2.54c.012-1.189.629-1.505,1.778-.915,0,.453,0,.908-.012,1.361-.054,1.488.3,3.043-.7,4.382l0,0A4.139,4.139,0,0,1-5101.688,2596.946Z" transform="translate(-321.233 -234.332)" fill="#2173ad"/>
    <path id="Tracé_88" data-name="Tracé 88" d="M-5328.039,2593.427c-.315-.452-.862-.7-.938-1.37-.205-1.794.475-2.648,2.3-2.754a2.787,2.787,0,0,1,3.159,1.792c.234.567,0,.653-.365.821-.592.271-.961.569-.168,1.08a1.284,1.284,0,0,1,.381.554c.085.186.162.367.388.347s.275-.211.335-.406c.3-.986.629-1.965.931-2.951a1.483,1.483,0,0,1,2.565-.608l-.1.1c-.691-.056-1.622-.51-1.944.362a28.141,28.141,0,0,0-1.677,5.576c-.028.027-.058.053-.087.079a1.477,1.477,0,0,0-1.3.171,2.147,2.147,0,0,1-1.621.257l-.7-.022a1.941,1.941,0,0,1-2.1-1.383l.156-.468a2.892,2.892,0,0,0,3.7,1.421,1.61,1.61,0,0,0,1.251-1.478,1.462,1.462,0,0,0-.885-1.6c-.519-.252-1.059-.46-1.588-.689-.447-.193-.917-.424-.567-1.01.3-.508.776-.4,1.206-.13.161.1.27.3.438.37.425.173.958.388,1.25-.085.252-.407-.1-.784-.442-1.07a3.123,3.123,0,0,0-3.378-.223,1.528,1.528,0,0,0-.022,2.78,10.163,10.163,0,0,0,1.563.729c.361.148.761.226.769.728a.626.626,0,0,1-.409.639.855.855,0,0,1-1.056-.231,1.667,1.667,0,0,0-1.727-.637l-.02-.426.684-.017C-5327.862,2593.606-5327.885,2593.521-5328.039,2593.427Z" transform="translate(-146.693 -232.912)" fill="#b8bd86"/>
    <path id="Tracé_89" data-name="Tracé 89" d="M-5276.2,2591.785q-.015.406-.03.812l-.011.037c-1.6.208-1.6.208-1.61,1.885,0,.807-.023,1.615.01,2.421.027.658-.264.876-.893.877-.68,0-.724-.411-.722-.91,0-1.076-.006-2.153,0-3.229,0-.579-.167-.983-.848-.953-.414.018-.817-.036-.759-.592.054-.519.477-.532.872-.529,1.306.01,2.611.028,3.917.043A.207.207,0,0,0-5276.2,2591.785Z" transform="translate(-183.545 -234.689)" fill="#2173ad"/>
    <path id="Tracé_90" data-name="Tracé 90" d="M-5216.54,2595.455l-.761-.009c-1.393-.553-1.206.45-1.248,1.255-.023.448.008,1.037-.646,1-.531-.031-.73-.475-.719-1,.014-.652,0-1.305,0-1.958,0-3.24.1-3.316,3.377-2.976.726.076.838.384.593.979l.015-.008a5.442,5.442,0,0,0-2.041.063l-.33.159a.7.7,0,0,0,0,1.108l.3.133c.3.225.646.108.971.124.785.038,1,.385.624,1.083a.162.162,0,0,1-.144.051Z" transform="translate(-230.542 -234.707)" fill="#1c71b0"/>
    <path id="Tracé_91" data-name="Tracé 91" d="M-5171.893,2597.728c-1.6.214-1.617.215-1.668-1.316-.042-1.225.025-2.457-.073-3.676-.069-.855.348-1.073,1.042-1.108.854-.043.75.559.735,1.1a3.976,3.976,0,0,0,.039.454c0,.215,0,.429,0,.644,0,.092,0,.184-.007.276q0,.443,0,.887a3.21,3.21,0,0,0,0,1.426c0,.14,0,.28.005.42-.005.244-.01.487-.016.73A.3.3,0,0,0-5171.893,2597.728Z" transform="translate(-266.108 -234.706)" fill="#2173ad"/>
    <path id="Tracé_92" data-name="Tracé 92" d="M-5278.288,2589.82c-1.305-.015-2.611-.033-3.917-.043-.395,0-.817.01-.872.529-.058.556.347.61.76.592.681-.03.851.375.848.953,0,1.076,0,2.153,0,3.229,0,.5.042.911.723.91.629,0,.92-.219.893-.877-.033-.806-.012-1.614-.01-2.421,0-1.678.007-1.678,1.61-1.885.094.315.085.8-.231.759-1.185-.146-.851.672-.867,1.246-.025.923-.04,1.848,0,2.77.049,1.05-.7.8-1.266.813-.582.016-1.3.219-1.275-.807.03-1.076,0-2.155.008-3.232.005-.472-.06-.8-.653-.857-.686-.061-.883-.667-1.1-1.2-.136-.338-.033-.677.314-.746a14.06,14.06,0,0,1,4.8-.2C-5278.332,2589.377-5278.249,2589.6-5278.288,2589.82Z" transform="translate(-181.527 -232.861)" fill="#c2c080"/>
    <path id="Tracé_93" data-name="Tracé 93" d="M-5320.639,2623.45a3.24,3.24,0,0,0-.175,1.906c.021,2.191-.116,4.384.082,6.573.034.374-.051.807.5.887l.345.195c-.243.612-.631.293-.858.057a.929.929,0,0,0-1-.287l-.056-.058c.1-1.646.1-1.647-1.562-1.655-.538,0-1.078-.024-1.612.018-.743.058-.995-.225-1.013-.987-.022-.893.14-1.413,1.177-1.259.375.056.773-.041,1.149.013.976.139,1.455-.248,1.432-1.24.77.323.3.809.148,1.235a.622.622,0,0,1-.865.461,13.391,13.391,0,0,0-1.719-.074.783.783,0,0,0-.975.834c-.03.631.482.559.9.588a12.977,12.977,0,0,1,3.089.162c.41.128.545-.159.545-.517,0-1.964,0-3.927,0-6.016-.4.362-.035,1.074-.753.985a5.537,5.537,0,0,0,.03-1.775l.082-.078c.407.169.725-.184,1.1-.185C-5320.64,2623.306-5320.64,2623.378-5320.639,2623.45Z" transform="translate(-149.018 -258.999)" fill="#c2c080"/>
    <path id="Tracé_94" data-name="Tracé 94" d="M-5168.8,2624.062c.574.185.413.672.415,1.068.01,1.731,0,3.463,0,5.194a3.451,3.451,0,0,1-2.973,3.646,6.438,6.438,0,0,1-3.623-.339,2.738,2.738,0,0,1-1.955-2.917c-.006-1.847-.015-3.693-.013-5.54,0-.375-.105-.778.211-1.094l.079.076c-.013,1.845,0,3.691-.049,5.534-.043,1.492.275,2.858,1.739,3.466a4.923,4.923,0,0,0,5.045-.374,2.5,2.5,0,0,0,1.1-2.063c.006-2.189.139-4.381-.059-6.569C-5168.864,2624.119-5168.834,2624.09-5168.8,2624.062Z" transform="translate(-263.547 -259.636)" fill="#c2c080"/>
    <path id="Tracé_95" data-name="Tracé 95" d="M-5254.419,2591.846c-.019,1.643-.06,3.286-.045,4.928.005.624-.172.915-.839.908-.623-.006-.785-.3-.771-.858.042-1.794.063-3.589.091-5.383l0-.012,1.289-.01.016.008.19.238A.322.322,0,0,0-5254.419,2591.846Z" transform="translate(-202.751 -234.546)" fill="#2173ad"/>
    <path id="Tracé_96" data-name="Tracé 96" d="M-5331.565,2631.99a1.129,1.129,0,0,1-1.23.631c-1.411-.031-2.822-.01-4.233-.016s-1.562-.27-1.561-1.674c0-2.178-.137-4.355-.173-6.534-.032-1.924.021-1.856,1.916-2.051,1.481-.152,2.96.285,4.43-.1a.629.629,0,0,1,.852.385l-.081.078c-1.885-.012-3.77-.012-5.655-.044-.56-.01-.871.138-.875.76-.019,2.615-.061,5.23-.087,7.845-.006.582.336.84.882.823a42.046,42.046,0,0,0,5.76-.159Z" transform="translate(-139.195 -258.208)" fill="#c2c080"/>
    <path id="Tracé_97" data-name="Tracé 97" d="M-5175.988,2622.4c.663-.84,1.547-.457,2.282-.271.533.135.705.675.632,1.392-.162,1.584-.057,3.193-.108,4.791a1.227,1.227,0,0,0,1.045,1.42c.765.121,1.052-.505,1.186-1.136.35-1.648-.073-3.344.288-5,.087-.4-.1-.849.215-1.211l.086.084c-.024,1.919-.045,3.838-.073,5.757-.018,1.239-.52,1.842-1.523,1.853-1.03.012-1.541-.525-1.592-1.815-.05-1.227-.028-2.458-.011-3.686.032-2.31.04-2.31-2.348-2.1Z" transform="translate(-264.305 -257.961)" fill="#c2c080"/>
    <path id="Tracé_98" data-name="Tracé 98" d="M-5234.415,2592.925c.289-.146.156-.7.637-.659q-.023,2.9-.048,5.806l-.584-.224-.149-.138a3.114,3.114,0,0,0-.143-2.212.519.519,0,0,0,.459-.816c-.372-.7-1.047-.223-1.624-.276.243.227.646.272.674.674a6.093,6.093,0,0,1-1.943-.7c-.332-.147-.621-.386-.437-.807.166-.384.544-.376.9-.372.4,0,.554.389.848.553.779.434,1.27.158,1.28-.709Z" transform="translate(-216.929 -235.196)" fill="#b8bd86"/>
    <path id="Tracé_99" data-name="Tracé 99" d="M-5300.328,2592.057c.634.435.605,1.2.833,1.811.4,1.078.675,2.2.971,3.314.124.465.382,1.1-.261,1.3s-1.464.328-1.883-.413c-.547-.966-.92-.921-1.556-.059-.483.654-1.2.977-1.908.158.03-.025.059-.051.087-.078.562.033,1.136.2,1.563-.4.72-1.009,1.541-1,2.182.022a.993.993,0,0,0,1.317.354c.532-.208.148-.643.049-.977-.492-1.648-.992-3.295-1.489-4.942C-5300.392,2592.122-5300.359,2592.089-5300.328,2592.057Z" transform="translate(-165.815 -235.037)" fill="#b8bd86"/>
    <path id="Tracé_100" data-name="Tracé 100" d="M-5221.2,2596.783l.048-5.806c1.388-.712,2.861-.248,4.266-.168.752.042.72.765-.049,1.133.246-.595.134-.9-.592-.979-3.276-.34-3.38-.264-3.377,2.976,0,.652.016,1.305,0,1.958-.012.529.187.974.719,1,.654.037.622-.552.646-1,.042-.8-.144-1.808,1.249-1.255-.788.1-1.192.471-1.074,1.343.057.421.174,1.052-.4,1.181A1.209,1.209,0,0,1-5221.2,2596.783Z" transform="translate(-229.559 -233.907)" fill="#2d7a8c"/>
    <path id="Tracé_101" data-name="Tracé 101" d="M-5275.708,2622.695c-2.952-.211-2.948-.209-3.9,2.543a5.089,5.089,0,0,1-.7,1.806c-.389-1.154.254-2.128.559-3.159.174-.591.121-1.5.9-1.538,1.046-.047,2.136-.456,3.171.094Z" transform="translate(-184.037 -258.172)" fill="#b8bd86"/>
    <path id="Tracé_102" data-name="Tracé 102" d="M-5110.188,2596.256c-.441,0-.407.353-.495.642-.2.656-.529,1.2-1.312,1.26l-.092-.114a4,4,0,0,0,.016-5.912l.073-.09a1.321,1.321,0,0,1,1.161.817c.1.174.074.627.515.4A12.943,12.943,0,0,1-5110.188,2596.256Z" transform="translate(-313.418 -235.026)" fill="#c2c080"/>
    <path id="Tracé_103" data-name="Tracé 103" d="M-5131.063,2597.744a1.679,1.679,0,0,1-.852-1.52,18.683,18.683,0,0,1,.015-2.64,1.4,1.4,0,0,1,1.32-1.475l.114.117a4.655,4.655,0,0,0-.475,5.4Q-5131,2597.686-5131.063,2597.744Z" transform="translate(-298.148 -235.077)" fill="#c2c080"/>
    <path id="Tracé_104" data-name="Tracé 104" d="M-5287.672,2628.977c.1.381-.171.642-.327,1.226a39.651,39.651,0,0,1-1.959-5.788c.84.324.633,1.2.916,1.8.32.691.5,1.447.76,2.169C-5288.18,2628.674-5288.071,2628.984-5287.672,2628.977Z" transform="translate(-176.71 -259.906)" fill="#b8bd86"/>
    <path id="Tracé_105" data-name="Tracé 105" d="M-5156.92,2600.788l.124.24a.481.481,0,0,0-.034.21c-.506.386-1.1.215-1.662.272l-.2-.254c.016-1.338.029-2.677.053-4.016a1.107,1.107,0,0,0-.311-.833c.6-.087.7.265.691.754-.024,1.048,0,2.1-.062,3.145-.02.366-.081.718.306.87a.677.677,0,0,0,.938-.4l.077,0Z" transform="translate(-277.403 -238.37)" fill="#2d7a8c"/>
    <path id="Tracé_106" data-name="Tracé 106" d="M-5246.206,2611.244c.014-.312-.358-.722.224-.892-.134,1,.489,1.485,1.283,1.784a3.506,3.506,0,0,0,3.467-.525l.149.138c-.02.133-.04.266-.059.4l-.249.231c-.312.033-.654-.037-.9.249a10.456,10.456,0,0,1-3-.214C-5245.784,2612.176-5246.308,2611.956-5246.206,2611.244Z" transform="translate(-210.256 -249.098)" fill="#b8bd86"/>
    <path id="Tracé_107" data-name="Tracé 107" d="M-5300.78,2647.53l-.345-.194c1.884-.276,1.664.084,1.674-2.039,0-.957,0-1.913,0-3.171a7.071,7.071,0,0,1,.924,2.119c-.355-.284-.686-.463-.7.235a7.661,7.661,0,0,0,.034,1.585c.2,1.033-.189,1.487-1.217,1.447Z" transform="translate(-168.127 -273.519)" fill="#2d7a8c"/>
    <path id="Tracé_108" data-name="Tracé 108" d="M-5101.41,2591.747c-1.174-.365-1.355-.241-1.386.925a23.969,23.969,0,0,0,.214,4.2l-.356-.3q-.063-.451-.124-.9-.007-1.959-.014-3.918c.379-.756,1.064-.326,1.616-.417Z" transform="translate(-320.344 -234.453)" fill="#2d7a8c"/>
    <path id="Tracé_109" data-name="Tracé 109" d="M-5244.485,2595.375l-.473.028a1.063,1.063,0,0,1-.928-.749l-.015-1.113c.014-.654-.089-1.384.907-1.4l.125.131C-5245.945,2593.662-5245.886,2594.142-5244.485,2595.375Z" transform="translate(-210.572 -235.099)" fill="#b8bd86"/>
    <path id="Tracé_110" data-name="Tracé 110" d="M-5100.927,2616.232a4.14,4.14,0,0,0,4.167.222c-.644,1.268-1.8.754-2.758.708C-5100.045,2617.136-5100.924,2617.231-5100.927,2616.232Z" transform="translate(-321.995 -253.617)" fill="#b8bd86"/>
    <path id="Tracé_111" data-name="Tracé 111" d="M-5124.3,2616.534c-1.444,1.009-3,.818-3.8-.466l.12-.117a3.614,3.614,0,0,0,3.585.469Z" transform="translate(-301.111 -253.402)" fill="#c2c080"/>
    <path id="Tracé_112" data-name="Tracé 112" d="M-5082.93,2598.132c1-1.339.643-2.893.7-4.381.017-.454.009-.908.012-1.361a14.223,14.223,0,0,1,.124,4.955A.787.787,0,0,1-5082.93,2598.132Z" transform="translate(-335.827 -235.293)" fill="#b8bd86"/>
    <path id="Tracé_113" data-name="Tracé 113" d="M-5241.982,2589.983a2.805,2.805,0,0,1,3.789.188c-.034.039-.07.076-.105.113a3.855,3.855,0,0,0-3.559-.17Z" transform="translate(-213.583 -232.945)" fill="#b8bd86"/>
    <path id="Tracé_114" data-name="Tracé 114" d="M-5210.047,2603.282c.378-.7.161-1.046-.624-1.083-.325-.016-.672.1-.971-.124a2.46,2.46,0,0,1,1.581-.123.688.688,0,0,1,.592.737C-5209.465,2603.086-5209.53,2603.4-5210.047,2603.282Z" transform="translate(-236.902 -242.585)" fill="#2d7a8c"/>
    <path id="Tracé_115" data-name="Tracé 115" d="M-5241.876,2619.265a10.456,10.456,0,0,0,3,.214c-.145.283-.446.34-.69.48l-1.852.207C-5241.31,2619.733-5241.634,2619.519-5241.876,2619.265Z" transform="translate(-213.665 -255.949)" fill="#e6c660"/>
    <path id="Tracé_116" data-name="Tracé 116" d="M-5126.015,2589.851a2.178,2.178,0,0,1,2.866-.268l-.1.128a4.606,4.606,0,0,0-2.65.258Z" transform="translate(-302.713 -232.819)" fill="#c2c080"/>
    <path id="Tracé_117" data-name="Tracé 117" d="M-5330.814,2607.313l.019.427-.1.484-.155.468c-.39-.037-.717-.205-.645-.633a1.367,1.367,0,0,1,.589-1.04C-5331.078,2607-5330.916,2607.209-5330.814,2607.313Z" transform="translate(-144.621 -246.534)" fill="#e6c660"/>
    <path id="Tracé_118" data-name="Tracé 118" d="M-5152.047,2622.437a1.707,1.707,0,0,1,2.4,0l-.088.087-2.226,0Z" transform="translate(-282.705 -258.005)" fill="#c2c080"/>
    <path id="Tracé_119" data-name="Tracé 119" d="M-5302.879,2622.6c0-.072,0-.144,0-.217a10.029,10.029,0,0,0,2.027-.177c.343-.08.885-.254.944.433Z" transform="translate(-166.778 -258.147)" fill="#b8bd86"/>
    <path id="Tracé_120" data-name="Tracé 120" d="M-5104.141,2593.277q.007,1.959.014,3.918a1.656,1.656,0,0,1-.194.008l-.006,0a12.947,12.947,0,0,0-.134-3c0-.08,0-.161,0-.241Z" transform="translate(-319.278 -235.975)" fill="#adcfa4"/>
    <path id="Tracé_121" data-name="Tracé 121" d="M-5156.982,2617.6c.56-.057,1.156.114,1.662-.272C-5155.571,2618.256-5156.113,2618.345-5156.982,2617.6Z" transform="translate(-278.912 -254.457)" fill="#c2c080"/>
    <path id="Tracé_122" data-name="Tracé 122" d="M-5104.523,2590.626q-.161.343-.32.687c-.058-.444-.3-1.075.154-1.254a1.466,1.466,0,0,1,1.782.15C-5103.459,2590.3-5104.144,2589.869-5104.523,2590.626Z" transform="translate(-318.896 -233.324)" fill="#c2c080"/>
    <path id="Tracé_123" data-name="Tracé 123" d="M-5254.368,2589.728l-1.289.01C-5255.235,2589.05-5254.811,2589.047-5254.368,2589.728Z" transform="translate(-203.073 -232.857)" fill="#c2c080"/>
    <path id="Tracé_124" data-name="Tracé 124" d="M-5211.516,2596.251a5.429,5.429,0,0,1,2.041-.062A3.3,3.3,0,0,1-5211.516,2596.251Z" transform="translate(-236.999 -238.161)" fill="#2d7a8c"/>
    <path id="Tracé_125" data-name="Tracé 125" d="M-5213.839,2598.476a.7.7,0,0,1,0-1.108C-5213.841,2597.738-5213.84,2598.107-5213.839,2598.476Z" transform="translate(-235.004 -239.119)" fill="#2d7a8c"/>
    <path id="Tracé_126" data-name="Tracé 126" d="M-5166.026,2607.6a3.207,3.207,0,0,1,0-1.426A1.231,1.231,0,0,1-5166.026,2607.6Z" transform="translate(-271.899 -245.886)" fill="#c2c080"/>
    <path id="Tracé_127" data-name="Tracé 127" d="M-5165.8,2614.878l.016-.73C-5165.519,2614.4-5165.1,2614.649-5165.8,2614.878Z" transform="translate(-272.132 -252.016)" fill="#c2c080"/>
    <path id="Tracé_128" data-name="Tracé 128" d="M-5225.959,2592.951a.565.565,0,0,1,.432.5l-.133.124-.405-.513C-5226.029,2593.027-5225.994,2592.989-5225.959,2592.951Z" transform="translate(-225.816 -235.724)" fill="#b8bd86"/>
    <path id="Tracé_129" data-name="Tracé 129" d="M-5103.9,2610.214a1.756,1.756,0,0,0,.193-.007q.062.45.124.9C-5104.058,2610.943-5103.866,2610.539-5103.9,2610.214Z" transform="translate(-319.703 -248.987)" fill="#b8bd86"/>
    <path id="Tracé_130" data-name="Tracé 130" d="M-5183.928,2592.069q.127.338.255.677l-.11.085q-.112-.346-.226-.691Z" transform="translate(-258.14 -235.046)" fill="#c2c080"/>
    <path id="Tracé_131" data-name="Tracé 131" d="M-5319.814,2620.228l.705.022C-5319.352,2620.477-5319.588,2620.523-5319.814,2620.228Z" transform="translate(-153.763 -256.689)" fill="#c2c080"/>
    <path id="Tracé_132" data-name="Tracé 132" d="M-5113.969,2590.952l.445.252-.072.09-.475-.215Z" transform="translate(-311.892 -234.188)" fill="#c2c080"/>
    <path id="Tracé_133" data-name="Tracé 133" d="M-5249.829,2591.69l-.19-.238A.19.19,0,0,1-5249.829,2591.69Z" transform="translate(-207.406 -234.572)" fill="#c2c080"/>
    <path id="Tracé_134" data-name="Tracé 134" d="M-5165.777,2601.422c0-.092,0-.184.007-.276C-5165.624,2601.242-5165.628,2601.334-5165.777,2601.422Z" transform="translate(-272.152 -242.023)" fill="#c2c080"/>
    <path id="Tracé_135" data-name="Tracé 135" d="M-5225.05,2618.348l.249-.231Z" transform="translate(-226.597 -255.066)" fill="#e6c660"/>
    <path id="Tracé_136" data-name="Tracé 136" d="M-5324.868,2607.159c.155.095.176.179-.019.247C-5324.881,2607.323-5324.875,2607.241-5324.868,2607.159Z" transform="translate(-149.865 -246.644)" fill="#e6c660"/>
    <path id="Tracé_137" data-name="Tracé 137" d="M-5205.363,2608.168h-.011l0,.066Z" transform="translate(-241.719 -247.42)" fill="#2d7a8c"/>
    <path id="Tracé_138" data-name="Tracé 138" d="M-5239.938,2452.707c-.126,1.843.242,4.085-.271,6.29a3.525,3.525,0,0,1-1.2,2.17,2.807,2.807,0,0,1-4.34-1.368,5.664,5.664,0,0,1-.414-1.673c-.146-4.187-.452-8.394.159-12.552.49-3.33,3.229-3.42,4.681-2.239a4.637,4.637,0,0,1,1.345,3.569c.052.921.031,1.846.036,2.77C-5239.935,2450.558-5239.938,2451.444-5239.938,2452.707Z" transform="translate(-210.212 -120.203)" fill="#2881c5"/>
    <path id="Tracé_139" data-name="Tracé 139" d="M-5247.951,2369.3c-.741.154-.781-.4-.8-1.115-.02-.793.235-1.113,1.061-1.074.844.039,1.476.246,1.452,1.219C-5246.262,2369.371-5247.083,2369.229-5247.951,2369.3Z" transform="translate(-208.381 -62.145)" fill="#2881c5"/>
    <path id="Tracé_140" data-name="Tracé 140" d="M-5212.018,2372.243c.2.6.414,1.13.548,1.68.073.3.4.7,0,.932a1.2,1.2,0,0,1-1.212-.012c-.378-.249-.065-.632.014-.942A3.256,3.256,0,0,1-5212.018,2372.243Z" transform="translate(-235.959 -66.093)" fill="#2881c5"/>
    <path id="Tracé_141" data-name="Tracé 141" d="M-5278.1,2371.288c.237.749.445,1.319.591,1.9.075.3.427.683.018.922a1.23,1.23,0,0,1-1.215,0c-.388-.232-.124-.627-.034-.933C-5278.567,2372.6-5278.351,2372.03-5278.1,2371.288Z" transform="translate(-185.202 -65.359)" fill="#2881c5"/>
    <path id="Tracé_142" data-name="Tracé 142" d="M-5133.634,2452.97c-.11,1.672.245,3.914-.251,6.125-.415,1.846-1.355,2.765-2.872,2.79-1.384.023-2.433-.934-2.889-2.655a9.3,9.3,0,0,1-.307-2.4c0-3.044-.005-6.088.006-9.131a8.273,8.273,0,0,1,.537-2.937,2.63,2.63,0,0,1,2.387-1.883,2.613,2.613,0,0,1,2.763,1.655,6.937,6.937,0,0,1,.625,2.912C-5133.628,2449.1-5133.634,2450.761-5133.634,2452.97Z" transform="translate(-292 -120.376)" fill="#1370b9"/>
    <path id="Tracé_143" data-name="Tracé 143" d="M-5055.126,2426.2c-.006-1.178.02-2,1.116-2,1.13,0,1.236.883,1.247,1.7.011.785-.11,1.588-1.193,1.606C-5055.166,2427.519-5055.129,2426.658-5055.126,2426.2Z" transform="translate(-357.196 -106.022)" fill="#1370b9"/>
    <path id="Tracé_144" data-name="Tracé 144" d="M-5018.565,2466.858c0,.929.011,1.689-1.094,1.661-.928-.023-1.314-.54-1.289-1.782.017-.858.237-1.581,1.288-1.521C-5018.469,2465.284-5018.625,2466.234-5018.565,2466.858Z" transform="translate(-383.464 -137.548)" fill="#1370b9"/>
    <path id="Tracé_145" data-name="Tracé 145" d="M-5249.333,2633.514c-2.854-.018-2.857-.018-2.86-2.613,0-1.886.028-3.772-.005-5.657-.013-.757.166-1.139,1.023-1.08,1.373.095,2.77-.2,4.122.244a2.338,2.338,0,0,1,1.447,3.712c-.251.423-.325.606.08,1.026a2.538,2.538,0,0,1-1.07,4.127A8.994,8.994,0,0,1-5249.333,2633.514Zm.462-7.454c-1.385-.613-.864.542-.937,1.059-.061.434-.1.955.63.951.7,0,1.375-.136,1.541-.888.115-.52-.064-1.087-.829-1.053Zm-.957,4.534c-.1.758.008,1.306.983,1.21.755-.075,1.543-.092,1.517-1.116-.028-1.14-.906-1.072-1.73-1.171C-5250.111,2629.39-5249.739,2630.132-5249.828,2630.595Z" transform="translate(-205.73 -259.707)" fill="#1c71b0"/>
    <path id="Tracé_146" data-name="Tracé 146" d="M-5209.173,2624.291c1.37,1.811,1.052,3.908.79,5.891-.24,1.816-2.3,2.922-4.408,2.7a3.558,3.558,0,0,1-3.446-3.52c-.028-.732.024-1.468-.027-2.2a3.435,3.435,0,0,1,2.06-3.567,4.319,4.319,0,0,1,4.6.425,3.762,3.762,0,0,0,.391.224Zm-4.734,3.748a15.39,15.39,0,0,0,.221,1.819,1.394,1.394,0,0,0,1.3,1.12,1.337,1.337,0,0,0,1.472-.89,5.682,5.682,0,0,0-.15-4.254,1.337,1.337,0,0,0-2.4-.021A4.269,4.269,0,0,0-5213.907,2628.039Z" transform="translate(-233.34 -258.918)" fill="#1c71b0"/>
    <path id="Tracé_147" data-name="Tracé 147" d="M-5240.594,2591.7l.405.513c-.01.868-.5,1.143-1.28.709-.295-.164-.45-.548-.848-.553-.352,0-.729-.012-.9.372-.183.421.106.659.438.807a6.1,6.1,0,0,0,1.943.7l0,0c.034.185.115.321.329.322a.319.319,0,0,0,.157.1,3.115,3.115,0,0,1,.143,2.212,3.509,3.509,0,0,1-3.468.524c-.793-.3-1.416-.788-1.282-1.784l.03-.033,1.093-.053.453.3a.909.909,0,0,0,1.155.626.567.567,0,0,0,.5-.643c-.033-.586-.535-.659-.95-.81a2.7,2.7,0,0,0-.438-.083l-.024-.014a.749.749,0,0,0-.653-.268h.011c-1.4-1.234-1.46-1.713-.384-3.107A3.855,3.855,0,0,1-5240.594,2591.7Z" transform="translate(-211.288 -234.358)" fill="#2173ad"/>
    <path id="Tracé_148" data-name="Tracé 148" d="M-5196.339,2592l.226.69q.643,2.153,1.284,4.307c.1.344.422.79-.136.962-.45.139-.961.22-1.3-.375a1.141,1.141,0,0,0-2.135-.041,1,1,0,0,1-1.392.393c-.468-.189-.184-.66-.068-1.012.383-1.167.775-2.332,1.159-3.5C-5198.154,2591.758-5198.156,2591.757-5196.339,2592Zm-.56,3.255c-.183-.276-.062-.825-.59-.82-.3,0-.4.287-.382.6.025.39.13.678.6.644C-5197.024,2595.656-5196.806,2595.607-5196.9,2595.253Z" transform="translate(-245.81 -234.904)" fill="#2173ad"/>
    <path id="Tracé_149" data-name="Tracé 149" d="M-5160.728,2597.456a.677.677,0,0,1-.938.4c-.386-.152-.326-.5-.305-.869.057-1.046.037-2.1.062-3.145.011-.489-.092-.841-.692-.754-.443-.018-1.087.109-1.1-.494-.013-.622.65-.507,1.079-.516.8-.018,1.6.028,2.405.025.465,0,1.059-.052,1.016.564-.039.543-.621.42-1.036.386-.6.026-.493.477-.5.843C-5160.738,2595.079-5160.73,2596.268-5160.728,2597.456Z" transform="translate(-273.748 -235.047)" fill="#1370b9"/>
    <path id="Tracé_150" data-name="Tracé 150" d="M-5247.48,2615.375c.243.255.566.468.456.9a5.46,5.46,0,0,1-.878-.2c-.445-.177-1.342.283-1.259-.131.109-.548.05-1.379.76-1.744C-5248.5,2614.916-5247.98,2615.136-5247.48,2615.375Z" transform="translate(-208.06 -252.059)" fill="#f2c64f"/>
    <path id="Tracé_151" data-name="Tracé 151" d="M-5237.808,2607.356a2.64,2.64,0,0,1,.438.083c.415.151.917.223.949.81a.567.567,0,0,1-.5.643.909.909,0,0,1-1.155-.626C-5237.307,2608.166-5237.982,2607.634-5237.808,2607.356Z" transform="translate(-216.582 -246.796)" fill="#b8bd86"/>
    <path id="Tracé_152" data-name="Tracé 152" d="M-5273.789,2647.546a2.661,2.661,0,0,1,.85-1.7q0,2.077,0,4.152c-.4-1.013-.012-2.073-.208-3.118C-5273.562,2646.9-5273.484,2647.42-5273.789,2647.546Z" transform="translate(-189.137 -276.378)" fill="#adcfa4"/>
    <path id="Tracé_153" data-name="Tracé 153" d="M-5150.888,2600.707c0-1.188-.011-2.377,0-3.565,0-.365-.1-.816.495-.843-.579.923-.2,1.947-.3,2.92-.049.495-.028,1-.039,1.5l-.077-.012Z" transform="translate(-283.588 -238.298)" fill="#2881c5"/>
    <path id="Tracé_154" data-name="Tracé 154" d="M-5247.42,2602.9a1.062,1.062,0,0,0,.927.749c.136,1.053-.641.113-.976.4-.3.253-.162-.448-.325-.689C-5248.007,2603.04-5247.9,2602.769-5247.42,2602.9Z" transform="translate(-209.037 -243.345)" fill="#f2c64f"/>
    <path id="Tracé_155" data-name="Tracé 155" d="M-5257.121,2626.489a.269.269,0,0,1,.286.283c.009.2-.06.41-.275.435-.082.01-.227-.177-.274-.3C-5257.471,2626.681-5257.315,2626.561-5257.121,2626.489Z" transform="translate(-201.727 -261.501)" fill="#f2c64f"/>
    <path id="Tracé_156" data-name="Tracé 156" d="M-5243.665,2609.328l-1.092.053A.783.783,0,0,1-5243.665,2609.328Z" transform="translate(-211.45 -248.161)" fill="#b8bd86"/>
    <path id="Tracé_157" data-name="Tracé 157" d="M-5239.832,2606.135a.748.748,0,0,1,.653.268C-5239.427,2606.388-5239.7,2606.427-5239.832,2606.135Z" transform="translate(-215.236 -245.857)" fill="#b8bd86"/>
    <path id="Tracé_158" data-name="Tracé 158" d="M-5123.143,2634.291c-.762.124-.684-.513-.7-1.1-.016-.573-.041-1.091.792-1.036.734.049,1.448.138,1.5,1.047C-5121.5,2634.182-5122.282,2634.2-5123.143,2634.291Z" transform="translate(-304.379 -265.849)" fill="#e6c660"/>
    <path id="Tracé_159" data-name="Tracé 159" d="M-5364.968,2633.16c-.108-.758.051-1.192.873-1.169s1.481.275,1.482,1.2c0,.883-.712.939-1.391,1C-5364.875,2634.282-5365.09,2633.832-5364.968,2633.16Zm1-.816c-.464.028-.559.339-.552.721.009.407.051.839.61.741.349-.061.817-.1.792-.654C-5363.14,2632.616-5363.559,2632.483-5363.966,2632.344Z" transform="translate(-119.035 -265.729)" fill="#c2c080"/>
    <path id="Tracé_160" data-name="Tracé 160" d="M-5328.207,2596.005c.035-.161.069-.322.1-.484a1.668,1.668,0,0,1,1.727.636.855.855,0,0,0,1.056.231.625.625,0,0,0,.409-.639c-.007-.5-.408-.58-.768-.728a10.15,10.15,0,0,1-1.563-.729,1.528,1.528,0,0,1,.022-2.78,3.121,3.121,0,0,1,3.377.223c.347.286.694.663.442,1.07-.292.472-.825.258-1.25.085-.168-.069-.277-.269-.437-.37-.431-.27-.9-.378-1.207.13-.349.585.12.816.567,1.01.529.229,1.07.437,1.588.689a1.462,1.462,0,0,1,.886,1.6,1.61,1.61,0,0,1-1.251,1.477A2.893,2.893,0,0,1-5328.207,2596.005Z" transform="translate(-147.312 -234.317)" fill="#2173ad"/>
    <path id="Tracé_161" data-name="Tracé 161" d="M-5300.135,2591.917q.746,2.471,1.489,4.942c.1.333.482.769-.049.976a.993.993,0,0,1-1.317-.354c-.641-1.02-1.461-1.031-2.182-.022-.426.6-1,.428-1.562.4a28.169,28.169,0,0,1,1.677-5.576C-5301.757,2591.406-5300.826,2591.861-5300.135,2591.917Zm-.884,2.306a1.011,1.011,0,0,0-.453,1.206c.085.229.572.241.693.049C-5300.516,2595.057-5300.812,2594.67-5301.02,2594.223Z" transform="translate(-166.104 -234.8)" fill="#1c71b0"/>
    <path id="Tracé_162" data-name="Tracé 162" d="M-5329.945,2633.451a42.044,42.044,0,0,1-5.76.16.749.749,0,0,1-.882-.823c.026-2.615.068-5.23.086-7.845,0-.622.316-.77.876-.76,1.885.032,3.77.032,5.654.044A5.537,5.537,0,0,1-5330,2626a.3.3,0,0,0-.159.068,2.067,2.067,0,0,0-1.189,0l-.661,0c-2.189-.259-2.336-.153-1.922,1.386l.009.054c.195.6.7.292,1.063.347.81.121,1.673-.232,2.44.28a.305.305,0,0,0,.044.208c.024.992-.456,1.378-1.432,1.24-.376-.053-.773.043-1.149-.013-1.036-.155-1.2.365-1.177,1.259.019.762.271,1.045,1.014.987.534-.042,1.074-.02,1.611-.018C-5329.841,2631.8-5329.841,2631.805-5329.945,2633.451Z" transform="translate(-140.872 -259.727)" fill="#1c71b0"/>
    <path id="Tracé_163" data-name="Tracé 163" d="M-5321.341,2628.842a.294.294,0,0,1,.159-.068c.718.09.354-.623.753-.984,0,2.089,0,4.052,0,6.016,0,.357-.136.644-.546.517a12.962,12.962,0,0,0-3.089-.163c-.419-.029-.931.044-.9-.587a.784.784,0,0,1,.976-.835,13.31,13.31,0,0,1,1.719.075.622.622,0,0,0,.865-.462c.15-.426.622-.912-.148-1.235a.309.309,0,0,1-.045-.208c-.01-.393.159-1-.542-.823-.987.25-1.985-.007-2.96.2l-.009-.054c-.024-1.385,1.226-1,1.922-1.386l.661,0C-5322.134,2629.067-5321.739,2629.328-5321.341,2628.842Z" transform="translate(-149.69 -262.5)" fill="#f2c64f"/>
    <path id="Tracé_164" data-name="Tracé 164" d="M-5170.278,2624.186l2.227,0c.2,2.188.064,4.379.058,6.569a2.5,2.5,0,0,1-1.1,2.063,4.923,4.923,0,0,1-5.045.375c-1.464-.607-1.783-1.974-1.74-3.466.053-1.844.037-3.689.05-5.534,2.388-.2,2.38-.205,2.349,2.1-.017,1.229-.039,2.459.011,3.686.051,1.291.562,1.827,1.592,1.815,1-.011,1.506-.615,1.524-1.854C-5170.323,2628.024-5170.3,2626.1-5170.278,2624.186Z" transform="translate(-264.388 -259.67)" fill="#1c71b0"/>
    <path id="Tracé_165" data-name="Tracé 165" d="M-5228.847,2602.248a.326.326,0,0,1-.157-.1c-.041-.177-.117-.319-.329-.322l0,0c-.028-.4-.43-.447-.674-.674.576.053,1.252-.426,1.624.276A.519.519,0,0,1-5228.847,2602.248Z" transform="translate(-222.784 -241.945)" fill="#f2c64f"/>
    <path id="Tracé_166" data-name="Tracé 166" d="M-5126.568,2591.2l.476.215a4,4,0,0,1-.016,5.912,3.614,3.614,0,0,1-3.585-.469,4.656,4.656,0,0,1,.476-5.4A4.606,4.606,0,0,1-5126.568,2591.2Zm.023,3.19c0-.847.1-1.957-1.025-1.972-1.248-.016-1.035,1.158-1.06,2.017-.023.831-.016,1.861,1.008,1.874C-5126.5,2596.322-5126.551,2595.24-5126.545,2594.388Z" transform="translate(-299.396 -234.307)" fill="#2173ad"/>
    <path id="Tracé_167" data-name="Tracé 167" d="M-5242.048,2648.354c.089-.463-.283-1.205.77-1.078.824.1,1.7.031,1.73,1.171.026,1.025-.762,1.042-1.517,1.116C-5242.04,2649.661-5242.144,2649.112-5242.048,2648.354Zm1.278.795c.452,0,.917-.026.857-.719s-.557-.727-1.082-.742c-.474-.013-.844.058-.816.671C-5241.78,2649.03-5241.39,2649.2-5240.77,2649.149Z" transform="translate(-213.51 -277.467)" fill="#adcfa4"/>
    <path id="Tracé_168" data-name="Tracé 168" d="M-5240.651,2631.877c.764-.034.943.533.829,1.053-.167.752-.839.885-1.541.888-.729,0-.69-.517-.63-.951.073-.517-.448-1.672.938-1.059a1.171,1.171,0,0,1-.279.188c-.673.206-.463.744-.346,1.131.127.419.576.327.885.209.5-.192.519-.6.323-1.04C-5240.535,2632.158-5240.592,2632.017-5240.651,2631.877Z" transform="translate(-213.546 -265.455)" fill="#b8bd86"/>
    <path id="Tracé_169" data-name="Tracé 169" d="M-5239.905,2632.458c.06.14.116.281.178.419.2.443.183.848-.323,1.04-.31.117-.758.209-.885-.209-.117-.387-.328-.925.346-1.131a1.156,1.156,0,0,0,.279-.188Z" transform="translate(-214.291 -266.035)" fill="#f2c64f"/>
    <path id="Tracé_170" data-name="Tracé 170" d="M-5206.039,2634.5a4.276,4.276,0,0,1,.446-2.227,1.337,1.337,0,0,1,2.4.022,5.682,5.682,0,0,1,.15,4.254,1.338,1.338,0,0,1-1.473.89,1.4,1.4,0,0,1-1.3-1.12A15.493,15.493,0,0,1-5206.039,2634.5Z" transform="translate(-241.208 -265.384)" fill="#e6c660"/>
    <path id="Tracé_171" data-name="Tracé 171" d="M-5227.08,2604.421c.212,0,.288.145.329.322C-5226.965,2604.742-5227.046,2604.605-5227.08,2604.421Z" transform="translate(-225.036 -244.54)" fill="#b8bd86"/>
    <path id="Tracé_172" data-name="Tracé 172" d="M-5189.661,2603.721c.093.354-.125.4-.374.421-.468.034-.572-.255-.6-.644-.021-.31.086-.594.382-.6C-5189.724,2602.9-5189.844,2603.446-5189.661,2603.721Z" transform="translate(-253.047 -243.372)" fill="#adcfa4"/>
    <path id="Tracé_173" data-name="Tracé 173" d="M-5362.369,2633.519c.408.139.826.272.852.808.025.554-.443.594-.793.654-.56.1-.6-.334-.61-.741C-5362.928,2633.858-5362.833,2633.547-5362.369,2633.519Z" transform="translate(-120.632 -266.904)" fill="#f2c64f"/>
    <path id="Tracé_174" data-name="Tracé 174" d="M-5293.639,2602.439c.208.448.5.834.24,1.255-.121.192-.609.18-.693-.049A1.011,1.011,0,0,1-5293.639,2602.439Z" transform="translate(-173.485 -243.017)" fill="#adcfa4"/>
    <path id="Tracé_175" data-name="Tracé 175" d="M-5325.071,2637.8c.976-.2,1.974.055,2.96-.2.7-.178.533.429.542.823-.766-.513-1.63-.16-2.439-.28C-5324.376,2638.09-5324.877,2638.395-5325.071,2637.8Z" transform="translate(-149.723 -270.018)" fill="#c2c080"/>
    <path id="Tracé_176" data-name="Tracé 176" d="M-5323.8,2631.968c-.7.384-1.946,0-1.922,1.386C-5326.136,2631.815-5325.989,2631.709-5323.8,2631.968Z" transform="translate(-149.082 -265.628)" fill="#c2c080"/>
    <path id="Tracé_177" data-name="Tracé 177" d="M-5312.76,2632.041c-.4.486-.793.225-1.189,0A2.067,2.067,0,0,1-5312.76,2632.041Z" transform="translate(-158.271 -265.699)" fill="#c2c080"/>
    <path id="Tracé_178" data-name="Tracé 178" d="M-5120.913,2598.74c-.007.851.048,1.932-1.077,1.918-1.023-.013-1.031-1.043-1.008-1.874.024-.859-.188-2.033,1.06-2.017C-5120.818,2596.781-5120.917,2597.892-5120.913,2598.74Z" transform="translate(-305.027 -238.657)" fill="#e6c660"/>
    <path id="Tracé_179" data-name="Tracé 179" d="M-5239.891,2650.562c-.62.054-1.01-.119-1.041-.79-.028-.613.342-.684.816-.671.525.015,1.021.047,1.082.741S-5239.439,2650.561-5239.891,2650.562Z" transform="translate(-214.389 -278.879)" fill="#f2c64f"/>
  </g>
</svg>
