<svg xmlns="http://www.w3.org/2000/svg" width="182.507" height="64.5" viewBox="0 0 182.507 64.5">
  <g id="Groupe_29" data-name="Groupe 29" transform="translate(7737.895 -2327.098)">
    <path id="Tracé_183" data-name="Tracé 183" d="M-7669.992,2395.95l12.019-.074c-.9,1.966-2.019,3.816-2.02,6.13,0,2.464.165,4.983,2.738,5.886a7.544,7.544,0,0,0,7.894-1.4c1.254-1.148,2.4-2.663-.46-3.2-1.566-.292-3.481-.17-3.262-2.309a4.05,4.05,0,0,1,3.262-3.577,9.547,9.547,0,0,0,4.292-2.678l2.643.3a16.182,16.182,0,0,0-3.06,5.647c-1.37,5.706.477,8.026,6.313,7.328,1.513-.181,2.993-.644,4.487-.978.947,1.149,1.947,1.312,3.019.164l.677-.718,1.748-.366c.358,1.41,1.356,1.79,2.708,1.983,4.956.706,4.786-5.033,8.429-6.533.414,2.784.729,5.639,3.911,6.6,1.119,1.021,2.519.666,3.822.782.548.283,1.166.893,1.632.794,1.989-.424,4.426-1.1,4.565-3.312.308-4.9,4.456-9.184,2.241-14.41-.148-.35-.648-.552-.984-.823,13.43-2.7,27.049-2.457,40.643-2.635,2.959-.039,3.478,2.107,3.993,4.3-1.655,1.156-1.7-.681-2.186-1.314-1.407-1.823-2.632-1.807-4.181-.158-3.855,4.107-7.771,8.158-11.708,12.188-1.473,1.508-1.559,2.86-.128,4.475,1.505,1.7,2.735,1.484,4.295.036a14.265,14.265,0,0,1,6.032-3.968c-5.271,10.434-10.59,19.274-20.318,24.788-14.367,8.143-27.875,6.828-40.982-3.21,4.591,6.708,10.395,11.371,18.456,12.833-10.565,1.341-21.2,1.789-31.823,2.219-26.138,1.06-52.252,2.4-78.276,5.153a32.875,32.875,0,0,1-3.745.281c-8.854-.081-9.691-.958-10.882-9.7a171.215,171.215,0,0,0-3.229-18.921c-1.744-6.885,1.719-12.561,3.476-18.58.754-2.583,3.981-1.686,6.28-1.5-.528,2.232-1.106,4.455-1.563,6.7-.267,1.316-.915,2.985.859,3.643,1.586.588,3.461.808,4.722-.773a11.561,11.561,0,0,0,1.688-3.278c.4-1.1.092-2.91,2.094-1.183,1.533,1.323,2.831-.7,3.757-.584,2.171,1.747-1.686,5.684,2.824,5.948,3.924.23,3.941-3.116,4.567-5.8.439-1.888,1.05-3.736,1.584-5.6l1.352.354c-.168.9-.294,1.811-.513,2.7-1.665,6.776,1.737,10.129,8.559,8.728,2.205-.453,3.417-1.952,4.976-3.147l1.9-.906c.131,1.73-.858,3.981,1.842,4.591a4.666,4.666,0,0,0,5.32-1.949c1.017-1.55,1.881-3.2,2.882-4.76.978-1.522,1.516-3.528,4.265-4.115a33.663,33.663,0,0,0-1.791,5.654c-.169,1.3-2.29,2.914-.107,3.972,1.909.925,3.636-.215,4.768-1.849A20.208,20.208,0,0,0-7669.992,2395.95Zm14.152,31.347c1.961,2.087.524,5.784,4.92,6.235,4.829.5,4.705-3.184,6.385-5.771a19.257,19.257,0,0,1,.857,5.9c-.149,3.667,2.245,3.278,4.675,3.406,3.036.161,2.77-1.707,2.633-3.647-.331-4.684-1-9.375-.9-14.05.1-4.851-1.9-6.2-6.439-5.723-2.254.237-3.372.929-3.957,3.042-.58,2.091-1.435,4.106-2.554,7.228-1.282-3.545-2.022-5.914-2.985-8.188-1.6-3.768-4.916-1.569-7.431-1.854-2.322-.263-1.942,1.9-2.054,3.4-.382,5.15-.788,10.3-1.122,15.451-.116,1.79-1.575,4.2,2.156,4.309,3.033.087,5.266-.1,4.854-4.091A9.691,9.691,0,0,1-7655.839,2427.3Zm-49.879-.378c2.6,1.781.712,6.624,5.937,6.66,4.994.034,3.813-4.286,6.127-6.525.287,2.734.708,5.05.732,7.371.037,3.468,2.522,2.352,4.337,2.548,2.415.261,2.866-1,2.667-3.127-.453-4.822-1.2-9.684-.954-14.484.258-4.976-1.658-6.183-6.19-5.742-2.217.216-3.322.816-4.026,2.921-.717,2.143-.928,4.57-2.857,6.5-.92-2.531-1.722-4.889-2.633-7.2-1.517-3.856-4.844-1.661-7.338-2-2.594-.351-2.332,1.945-2.454,3.585-.382,5.142-.752,10.286-1.013,15.434-.093,1.845-1,4.119,2.535,4.21,3.085.08,4.71-.694,4.7-3.993C-7706.155,2431.083-7705.881,2429.093-7705.719,2426.918Zm30.265,10.047c2.855,0,4.579-.042,6.3.01,2.517.075,2.264-1.789,2.116-3.253s1.036-4.25-1.722-3.918c-5.412.652-4.879-2.666-4.768-6.037.072-2.189-.147-4.4.042-6.572.273-3.132-1.348-3.514-3.972-3.551-2.751-.038-4,.608-3.836,3.632.227,4.215.014,8.452.065,12.679C-7681.128,2438.042-7682.329,2436.859-7675.454,2436.965Zm84.591-34.143a20.569,20.569,0,0,0,3.267-2.558c2.324-2.7,1.8-7.627-.911-8.41-3.683-1.062-6.688.395-9.092,3.24-2.647,3.133-4.536,6.742-2.787,10.705,1.561,3.539,5.151,2.647,8.263,2.326,1.757-.181,3.891-.3,4.359-2.053C-7587.23,2404.076-7589.691,2403.783-7590.863,2402.822Zm15.866-11.793c-1.7,2.149-6.1-1.352-7.5,2.795-1.242,3.673-2.3,7.407-3.434,11.118-.437,1.434-.512,2.844.993,3.708,1.482.852,2.66-.192,3.871-.841,1.468-.786,1.417-2.361,1.765-3.658.966-3.6,1.489-7.359,5.88-8.748,1.343-.425,1.547-1.987.931-3.207C-7572.838,2391.515-7573.224,2390.307-7575,2391.029Z" transform="translate(0 -54.577)" fill="#feb400"/>
    <path id="Tracé_184" data-name="Tracé 184" d="M-6736.771,2451.235c-8.061-1.462-13.865-6.125-18.456-12.833,13.107,10.038,26.615,11.353,40.982,3.21,9.728-5.514,15.047-14.354,20.318-24.788a14.265,14.265,0,0,0-6.032,3.968c-1.56,1.448-2.79,1.664-4.295-.036-1.431-1.616-1.344-2.968.128-4.476,3.936-4.03,7.852-8.081,11.708-12.188,1.548-1.649,2.774-1.664,4.181.158.49.634.531,2.471,2.186,1.314,1.181,1.774.29,3.922,1.038,5.771a18.744,18.744,0,0,0,1.768,18.162c-3.747-1.062-4.5-4.192-7.2-5.995-4.253,10.889-11.992,18.637-20.8,25.475C-6719.643,2450.967-6728.269,2450.407-6736.771,2451.235Z" transform="translate(-872.691 -67.291)" fill="#fffbef"/>
    <path id="Tracé_185" data-name="Tracé 185" d="M-6888.437,2353.58c-3.183-.96-3.5-3.815-3.911-6.6-3.643,1.5-3.474,7.239-8.429,6.533-1.352-.192-2.351-.573-2.708-1.982-.291-.436-.59-1.246-.873-1.24-.991.02-.822.923-.875,1.605l-.677.718-3.019-.164c-1.495.334-2.974.8-4.487.978-5.836.7-7.683-1.622-6.313-7.328a16.182,16.182,0,0,1,3.06-5.647c3.953-2.9,7.956-5.118,12.438-.928,1.91,1.951-.563,4.26.588,7.254a17.649,17.649,0,0,0,2.985-7.709c1.572-3.192,3.272-6.329,4.672-9.6a3.394,3.394,0,0,1,4.513-2.158c2.619.8,1.171,2.73.669,4.206-.747,2.2-2,4.22-2.185,6.6-.167.815-2.38,2,.57,2.2,6.842.451,6.813.522,6.008,7.8a14.536,14.536,0,0,0,.205,3.219C-6886,2353.066-6887.12,2353.409-6888.437,2353.58Zm-22.62-5.519c-.42-.914-.561-1.393-.647-1.383-.728.081-.991.65-1.046,1.284-.022.252.2.526.313.79Z" transform="translate(-726.216)" fill="#10256f"/>
    <path id="Tracé_186" data-name="Tracé 186" d="M-7641,2349.284c-.534,1.866-1.145,3.714-1.584,5.6-.625,2.688-.643,6.033-4.567,5.8-4.51-.264-.653-4.2-2.825-5.948-.926-.12-2.224,1.907-3.757.584-2-1.727-1.7.086-2.094,1.183a11.561,11.561,0,0,1-1.688,3.278c-1.26,1.581-3.136,1.361-4.722.773-1.774-.657-1.126-2.326-.859-3.643.457-2.247,1.035-4.47,1.563-6.7,1.319-3.316,2.517-6.688,4-9.93,1.058-2.314,2.585-4.548,5.627-3.979,3.475.649.844,3.735,2.185,5.637,1.536-1.719,3.012-3.564,4.695-5.2,1.283-1.244,2.979-1.913,4.708-.97,1.63.888.842,2.482.674,3.8C-7640.061,2342.819-7640.548,2346.05-7641,2349.284Z" transform="translate(-66.124 -7.313)" fill="#10256f"/>
    <path id="Tracé_187" data-name="Tracé 187" d="M-6362.237,2516.162c8.811-6.837,16.55-14.585,20.8-25.475,2.7,1.8,3.449,4.933,7.2,5.995a18.744,18.744,0,0,1-1.768-18.162c1.726,10.084,1.984,20.27,2.309,30.458.088,2.758-.673,4.958-3.536,4.964C-6345.646,2513.958-6353.906,2515.4-6362.237,2516.162Z" transform="translate(-1221.698 -134.476)" fill="#feb400"/>
    <path id="Tracé_188" data-name="Tracé 188" d="M-7297.287,2422.094a20.212,20.212,0,0,1-3.682,9.871c-1.131,1.634-2.858,2.774-4.768,1.849-2.183-1.058-.062-2.671.107-3.972a33.663,33.663,0,0,1,1.791-5.654c-2.75.587-3.288,2.593-4.265,4.115-1,1.561-1.865,3.211-2.883,4.76a4.666,4.666,0,0,1-5.319,1.949c-2.7-.61-1.711-2.861-1.842-4.591a26.027,26.027,0,0,0,2.776-8.039c1.474-1.966,2.617-4.428,5.913-2.744,1.58.808,2.819-.97,4.3-1.181C-7301.778,2417.976-7298,2416.764-7297.287,2422.094Z" transform="translate(-372.705 -80.721)" fill="#10256f"/>
    <path id="Tracé_189" data-name="Tracé 189" d="M-7445.276,2430.783c-1.559,1.195-2.771,2.695-4.976,3.147-6.822,1.4-10.224-1.952-8.559-8.728.218-.888.344-1.8.513-2.7,2.063-2.645,4.541-4.606,8.017-5.02s6.25.281,7.107,4.23A18.59,18.59,0,0,1-7445.276,2430.783Zm-4.9-5.762c-1.664,1.777-3.981,2.439-3.391,4.971.151.648.932.728,1.538.441C-7449.937,2429.438-7449.214,2427.854-7450.181,2425.021Z" transform="translate(-247.478 -80.177)" fill="#12266f"/>
    <path id="Tracé_190" data-name="Tracé 190" d="M-7027.362,2416.467a9.547,9.547,0,0,1-4.292,2.678,4.049,4.049,0,0,0-3.262,3.577c-.219,2.139,1.7,2.017,3.262,2.309,2.865.534,1.714,2.05.46,3.2a7.544,7.544,0,0,1-7.894,1.4c-2.573-.9-2.739-3.422-2.738-5.886,0-2.313,1.12-4.164,2.02-6.13a12.137,12.137,0,0,1,8.261-4.548C-7029.129,2412.862-7027.2,2413.425-7027.362,2416.467Z" transform="translate(-618.167 -76.312)" fill="#10256f"/>
    <path id="Tracé_191" data-name="Tracé 191" d="M-6596.381,2411.189c.336.271.836.472.984.823,2.214,5.226-1.934,9.509-2.241,14.41-.139,2.214-2.576,2.887-4.565,3.312-.466.1-1.084-.51-1.632-.794-.876-6.263,2-11.516,4.54-16.862C-6598.64,2410.747-6597.474,2411.085-6596.381,2411.189Z" transform="translate(-1006.996 -74.577)" fill="#10256f"/>
    <path id="Tracé_192" data-name="Tracé 192" d="M-6672.028,2418.332c-2.536,5.345-5.416,10.6-4.54,16.862-1.3-.116-2.7.239-3.822-.782,1.318-.171,2.433-.514,2.232-2.234a14.536,14.536,0,0,1-.205-3.219c.805-7.28.834-7.352-6.008-7.8-2.95-.194-.737-1.382-.57-2.2A48.534,48.534,0,0,1-6672.028,2418.332Z" transform="translate(-934.263 -80.831)" fill="#d99d15"/>
    <path id="Tracé_193" data-name="Tracé 193" d="M-7334.559,2465.183a18.59,18.59,0,0,0,2.1-9.07l2.575.124a26.022,26.022,0,0,1-2.776,8.04Z" transform="translate(-358.196 -114.576)" fill="#d99d15"/>
    <path id="Tracé_194" data-name="Tracé 194" d="M-6540.889,2352.357c1.415.009,2.476.511,2.453,1.742-.031,1.719-1.45,2.176-2.9,2.186-1.095.008-2.3-.276-2.237-1.682C-6543.495,2352.882-6542.118,2352.5-6540.889,2352.357Z" transform="translate(-1060.652 -22.432)" fill="#12266f"/>
    <path id="Tracé_195" data-name="Tracé 195" d="M-6774.265,2434.074a17.649,17.649,0,0,1-2.985,7.709c-1.151-2.994,1.322-5.3-.588-7.254Z" transform="translate(-852.609 -95.004)" fill="#feb400"/>
    <path id="Tracé_196" data-name="Tracé 196" d="M-7070.954,2625.189a9.691,9.691,0,0,0-.961,5.644c.412,3.988-1.821,4.178-4.854,4.091-3.731-.107-2.271-2.519-2.156-4.309.334-5.153.74-10.3,1.122-15.451.111-1.5-.268-3.661,2.054-3.4,2.515.285,5.836-1.914,7.431,1.854.963,2.274,1.7,4.642,2.985,8.188,1.119-3.122,1.975-5.136,2.554-7.228.585-2.113,1.7-2.805,3.957-3.042,4.542-.478,6.543.872,6.439,5.723-.1,4.675.567,9.366.9,14.05.137,1.94.4,3.808-2.633,3.647-2.43-.129-4.824.26-4.675-3.406a19.257,19.257,0,0,0-.857-5.9c-1.68,2.587-1.557,6.266-6.385,5.771C-7070.429,2630.973-7068.992,2627.276-7070.954,2625.189Z" transform="translate(-584.886 -252.469)" fill="#fffbef"/>
    <path id="Tracé_197" data-name="Tracé 197" d="M-7512.588,2625c-.162,2.175-.437,4.165-.43,6.155.01,3.3-1.615,4.073-4.7,3.993-3.534-.091-2.628-2.365-2.535-4.21.26-5.149.63-10.293,1.013-15.435.122-1.64-.14-3.936,2.454-3.585,2.494.337,5.822-1.858,7.338,2,.911,2.315,1.712,4.673,2.633,7.2,1.929-1.929,2.14-4.356,2.857-6.5.7-2.1,1.81-2.706,4.026-2.921,4.532-.44,6.448.767,6.19,5.742-.249,4.8.5,9.662.954,14.484.2,2.129-.251,3.388-2.666,3.127-1.816-.2-4.3.919-4.338-2.548-.024-2.32-.445-4.637-.731-7.371-2.314,2.239-1.134,6.559-6.127,6.525C-7511.876,2631.625-7509.99,2626.783-7512.588,2625Z" transform="translate(-193.131 -252.66)" fill="#fffbef"/>
    <path id="Tracé_198" data-name="Tracé 198" d="M-7226.421,2636.061c-6.875-.106-5.674,1.077-5.773-7.01-.052-4.227.161-8.464-.065-12.679-.163-3.024,1.085-3.67,3.836-3.632,2.624.036,4.245.418,3.972,3.551-.19,2.175.029,4.383-.042,6.572-.111,3.371-.644,6.688,4.768,6.037,2.758-.332,1.574,2.465,1.722,3.918s.4,3.329-2.116,3.253C-7221.842,2636.02-7223.566,2636.061-7226.421,2636.061Z" transform="translate(-449.033 -253.673)" fill="#fffbef"/>
    <path id="Tracé_199" data-name="Tracé 199" d="M-6505.092,2426.271c1.172.96,3.633,1.253,3.1,3.251-.468,1.75-2.6,1.871-4.359,2.052-3.112.322-6.7,1.213-8.263-2.326-1.749-3.963.14-7.572,2.787-10.705,2.4-2.845,5.409-4.3,9.092-3.24,2.715.783,3.235,5.711.911,8.41A20.569,20.569,0,0,1-6505.092,2426.271Z" transform="translate(-1085.771 -78.026)" fill="#10256f"/>
    <path id="Tracé_200" data-name="Tracé 200" d="M-6371.354,2408.917c1.773-.722,2.159.486,2.5,1.167.616,1.22.412,2.782-.932,3.207-4.391,1.389-4.914,5.147-5.88,8.748-.348,1.3-.3,2.873-1.765,3.658-1.211.649-2.389,1.692-3.871.841-1.5-.865-1.43-2.275-.993-3.708,1.129-3.711,2.192-7.445,3.434-11.118C-6377.458,2407.564-6373.057,2411.065-6371.354,2408.917Z" transform="translate(-1203.643 -72.464)" fill="#12266f"/>
    <path id="Tracé_201" data-name="Tracé 201" d="M-6786.79,2535.941c.053-.682-.116-1.585.875-1.605.283-.006.582.8.873,1.24Z" transform="translate(-844.66 -184.044)" fill="#12266f"/>
    <path id="Tracé_202" data-name="Tracé 202" d="M-6819.813,2553.632l3.019.164C-6817.866,2554.944-6818.866,2554.781-6819.813,2553.632Z" transform="translate(-815.333 -201.181)" fill="#12266f"/>
    <path id="Tracé_203" data-name="Tracé 203" d="M-6852.271,2503.432l-1.38.691c-.111-.264-.335-.538-.313-.791.055-.633.319-1.2,1.046-1.284C-6852.832,2502.039-6852.691,2502.518-6852.271,2503.432Z" transform="translate(-785.002 -155.371)" fill="#12266f"/>
    <path id="Tracé_204" data-name="Tracé 204" d="M-7406.037,2485.665c.967,2.833.244,4.417-1.854,5.412-.605.287-1.386.207-1.538-.441C-7410.02,2488.1-7407.7,2487.442-7406.037,2485.665Z" transform="translate(-291.621 -140.821)" fill="#d99d15"/>
  </g>
</svg>
